<?xml version="1.0" encoding="UTF-8" standalone="no"?>
<svg width="300px" height="300px" viewBox="0 0 300 300" version="1.1" xmlns="http://www.w3.org/2000/svg" xmlns:xlink="http://www.w3.org/1999/xlink" xmlns:sketch="http://www.bohemiancoding.com/sketch/ns">
    <!-- Generator: Sketch 3.4 (15588) - http://www.bohemiancoding.com/sketch -->
    <title>ico-results</title>
    <desc>Created with Sketch.</desc>
    <defs></defs>
    <g id="Page-1" stroke="none" stroke-width="1" fill="none" fill-rule="evenodd" sketch:type="MSPage">
        <g id="ico-results" sketch:type="MSArtboardGroup" fill="#FFFFFF">
            <g id="Group" sketch:type="MSLayerGroup" transform="translate(27.000000, 41.000000)">
                <path d="M231.05407,166.666737 L182.932465,166.666737 C182.142977,166.666737 181.502233,166.024211 181.502233,165.232526 C181.502233,164.440842 182.142977,163.798316 182.932465,163.798316 L231.05407,163.798316 C231.843558,163.798316 232.484302,164.440842 232.484302,165.232526 C232.484302,166.024211 231.846419,166.666737 231.05407,166.666737 L231.05407,166.666737 Z" id="Shape" sketch:type="MSShapeGroup"></path>
                <path d="M231.05407,178.619447 L182.932465,178.619447 C182.142977,178.619447 181.502233,177.976921 181.502233,177.185237 C181.502233,176.393553 182.142977,175.751026 182.932465,175.751026 L231.05407,175.751026 C231.843558,175.751026 232.484302,176.393553 232.484302,177.185237 C232.484302,177.976921 231.846419,178.619447 231.05407,178.619447 L231.05407,178.619447 Z" id="Shape" sketch:type="MSShapeGroup"></path>
                <path d="M210.33,190.927842 L182.932465,190.927842 C182.142977,190.927842 181.502233,190.285316 181.502233,189.493632 C181.502233,188.701947 182.142977,188.059421 182.932465,188.059421 L210.33,188.059421 C211.119488,188.059421 211.760233,188.701947 211.760233,189.493632 C211.760233,190.285316 211.122349,190.927842 210.33,190.927842 L210.33,190.927842 Z" id="Shape" sketch:type="MSShapeGroup"></path>
                <path d="M63.3936279,48.1062895 L15.2691628,48.1062895 C14.4796744,48.1062895 13.8389302,47.4637632 13.8389302,46.6720789 C13.8389302,45.8803947 14.4796744,45.2378684 15.2691628,45.2378684 L63.3936279,45.2378684 C64.1831163,45.2378684 64.8238605,45.8803947 64.8238605,46.6720789 C64.8238605,47.4637632 64.1831163,48.1062895 63.3936279,48.1062895 L63.3936279,48.1062895 Z" id="Shape" sketch:type="MSShapeGroup"></path>
                <path d="M63.3936279,60.059 L15.2691628,60.059 C14.4796744,60.059 13.8389302,59.4164737 13.8389302,58.6247895 C13.8389302,57.8331053 14.4796744,57.1905789 15.2691628,57.1905789 L63.3936279,57.1905789 C64.1831163,57.1905789 64.8238605,57.8331053 64.8238605,58.6247895 C64.8238605,59.4164737 64.1831163,60.059 63.3936279,60.059 L63.3936279,60.059 Z" id="Shape" sketch:type="MSShapeGroup"></path>
                <path d="M42.6695581,72.3673947 L15.2691628,72.3673947 C14.4796744,72.3673947 13.8389302,71.7248684 13.8389302,70.9331842 C13.8389302,70.1415 14.4796744,69.4989737 15.2691628,69.4989737 L42.6695581,69.4989737 C43.4590465,69.4989737 44.0997907,70.1415 44.0997907,70.9331842 C44.0997907,71.7248684 43.4590465,72.3673947 42.6695581,72.3673947 L42.6695581,72.3673947 Z" id="Shape" sketch:type="MSShapeGroup"></path>
                <rect id="Rectangle-path" sketch:type="MSShapeGroup" x="148.778512" y="174.692579" width="10.000186" height="18.857"></rect>
                <rect id="Rectangle-path" sketch:type="MSShapeGroup" x="134.476186" y="166.726974" width="10.000186" height="26.8197368"></rect>
                <rect id="Rectangle-path" sketch:type="MSShapeGroup" x="163.830279" y="160.820895" width="10.000186" height="32.7258158"></rect>
                <path d="M246,218 L0,218 L0,28.6842105 L246,28.6842105 L246,218 L246,218 Z M5.72093023,212.263158 L240.27907,212.263158 L240.27907,34.4210526 L5.72093023,34.4210526 L5.72093023,212.263158 L5.72093023,212.263158 Z" id="Shape" sketch:type="MSShapeGroup"></path>
                <path d="M246,34.4210526 L0,34.4210526 L0,8.02010526 C0,3.06634211 5.01153488,0 9.65406977,0 L236.34593,0 C240.988465,0 246,3.06634211 246,8.02010526 L246,34.4210526 L246,34.4210526 Z M5.72093023,28.6842105 L240.27907,28.6842105 L240.27907,8.02010526 C240.27907,6.88994737 238.293907,5.73684211 236.34593,5.73684211 L9.65406977,5.73684211 C7.70609302,5.73684211 5.72093023,6.88994737 5.72093023,8.02010526 L5.72093023,28.6842105 L5.72093023,28.6842105 Z" id="Shape" sketch:type="MSShapeGroup"></path>
                <ellipse id="Oval" sketch:type="MSShapeGroup" cx="20.6182326" cy="16.6138947" rx="4.41083721" ry="4.42310526"></ellipse>
                <ellipse id="Oval" sketch:type="MSShapeGroup" cx="34.9205581" cy="16.6138947" rx="4.41083721" ry="4.42310526"></ellipse>
                <ellipse id="Oval" sketch:type="MSShapeGroup" cx="49.2228837" cy="16.6138947" rx="4.41083721" ry="4.42310526"></ellipse>
                <ellipse id="Oval" sketch:type="MSShapeGroup" cx="16.5334884" cy="146.682447" rx="3.56413953" ry="3.57405263"></ellipse>
                <ellipse id="Oval" sketch:type="MSShapeGroup" cx="38.2987674" cy="124.753368" rx="3.56413953" ry="3.57405263"></ellipse>
                <ellipse id="Oval" sketch:type="MSShapeGroup" cx="113.511837" cy="104.892421" rx="3.56413953" ry="3.57405263"></ellipse>
                <ellipse id="Oval" sketch:type="MSShapeGroup" cx="135.477349" cy="127.604579" rx="3.56413953" ry="3.57405263"></ellipse>
                <ellipse id="Oval" sketch:type="MSShapeGroup" cx="174.331047" cy="88.6399474" rx="3.56413953" ry="3.57405263"></ellipse>
                <ellipse id="Oval" sketch:type="MSShapeGroup" cx="198.659302" cy="113.038737" rx="3.56413953" ry="3.57405263"></ellipse>
                <ellipse id="Oval" sketch:type="MSShapeGroup" cx="65.9823488" cy="152.052132" rx="3.56413953" ry="3.57405263"></ellipse>
                <path d="M31.823806,129.117404 L33.8464409,131.145664 L22.3659653,142.658071 L20.3433304,140.62981 L31.823806,129.117404 L31.823806,129.117404 Z" id="Rectangle-path" sketch:type="MSShapeGroup"></path>
                <path d="M44.7624232,129.092291 L62.2548876,145.639878 L60.2920365,147.726367 L42.799572,131.178781 L44.7624232,129.092291 L44.7624232,129.092291 Z" id="Rectangle-path" sketch:type="MSShapeGroup"></path>
                <path d="M106.803236,109.596403 L108.825871,111.624663 L72.8573546,147.69322 L70.8347197,145.66496 L106.803236,109.596403 L106.803236,109.596403 Z" id="Rectangle-path" sketch:type="MSShapeGroup"></path>
                <path d="M119.52992,109.594546 L132.225999,122.325937 L130.203365,124.354198 L117.507285,111.622806 L119.52992,109.594546 L119.52992,109.594546 Z" id="Rectangle-path" sketch:type="MSShapeGroup"></path>
                <path d="M168.179063,92.7790259 L170.201698,94.8072864 L141.551075,123.537597 L139.52844,121.509336 L168.179063,92.7790259 L168.179063,92.7790259 Z" id="Rectangle-path" sketch:type="MSShapeGroup"></path>
                <path d="M180.469427,92.7811586 L195.541993,107.899922 L193.519072,109.927896 L178.446506,94.8091322 L180.469427,92.7811586 L180.469427,92.7811586 Z" id="Rectangle-path" sketch:type="MSShapeGroup"></path>
                <path d="M236.02666,73.5373832 L238.049295,75.5656438 L203.545167,110.16574 L201.522532,108.13748 L236.02666,73.5373832 L236.02666,73.5373832 Z" id="Rectangle-path" sketch:type="MSShapeGroup"></path>
            </g>
        </g>
    </g>
</svg>