<?xml version="1.0" encoding="UTF-8" standalone="no"?>
<svg width="300px" height="300px" viewBox="0 0 300 300" version="1.1" xmlns="http://www.w3.org/2000/svg" xmlns:xlink="http://www.w3.org/1999/xlink" xmlns:sketch="http://www.bohemiancoding.com/sketch/ns">
    <!-- Generator: Sketch 3.4 (15588) - http://www.bohemiancoding.com/sketch -->
    <title>ico-world</title>
    <desc>Created with Sketch.</desc>
    <defs></defs>
    <g id="Page-1" stroke="none" stroke-width="1" fill="none" fill-rule="evenodd" sketch:type="MSPage">
        <g id="ico-world" sketch:type="MSArtboardGroup" fill="#FFFFFF">
            <path d="M76.12,219.59072 C74.736,219.59072 73.5273067,220.688693 73.5273067,222.077307 C73.5273067,223.46592 74.736,224.67 76.12,224.67 C77.5086133,224.67 78.6065867,223.46592 78.6065867,222.077307 C78.6065867,220.688693 77.5086133,219.59072 76.12,219.59072 L76.12,219.59072 Z M267.393413,212.237067 C266.009413,212.237067 264.80072,213.44576 264.80072,214.82976 C264.80072,216.218373 266.009413,217.316347 267.393413,217.316347 C268.782027,217.316347 269.88,216.218373 269.88,214.82976 C269.88,213.44576 268.782027,212.237067 267.393413,212.237067 L267.393413,212.237067 Z M76.12,212.237067 C74.736,212.237067 73.5273067,213.44576 73.5273067,214.82976 C73.5273067,216.218373 74.736,217.316347 76.12,217.316347 C77.5086133,217.316347 78.6065867,216.218373 78.6065867,214.82976 C78.6065867,213.44576 77.5086133,212.237067 76.12,212.237067 L76.12,212.237067 Z M68.77096,212.237067 C67.3823467,212.237067 66.1736533,213.44576 66.1736533,214.82976 C66.1736533,216.218373 67.3823467,217.316347 68.77096,217.316347 C70.15496,217.316347 71.2575467,216.218373 71.2575467,214.82976 C71.2575467,213.44576 70.15496,212.237067 68.77096,212.237067 L68.77096,212.237067 Z M267.393413,204.994133 C266.009413,204.994133 264.80072,206.092107 264.80072,207.48072 C264.80072,208.86472 266.009413,209.967307 267.393413,209.967307 C268.782027,209.967307 269.88,208.86472 269.88,207.48072 C269.88,206.092107 268.782027,204.994133 267.393413,204.994133 L267.393413,204.994133 Z M260.044373,204.994133 C258.65576,204.994133 257.447067,206.092107 257.447067,207.48072 C257.447067,208.86472 258.65576,209.967307 260.044373,209.967307 C261.428373,209.967307 262.53096,208.86472 262.53096,207.48072 C262.53096,206.092107 261.428373,204.994133 260.044373,204.994133 L260.044373,204.994133 Z M252.69072,204.994133 C251.302107,204.994133 250.093413,206.092107 250.093413,207.48072 C250.093413,208.86472 251.302107,209.967307 252.69072,209.967307 C254.079333,209.967307 255.177307,208.86472 255.177307,207.48072 C255.177307,206.092107 254.079333,204.994133 252.69072,204.994133 L252.69072,204.994133 Z M245.337067,204.994133 C243.948453,204.994133 242.744373,206.092107 242.744373,207.48072 C242.744373,208.86472 243.948453,209.967307 245.337067,209.967307 C246.72568,209.967307 247.823653,208.86472 247.823653,207.48072 C247.823653,206.092107 246.72568,204.994133 245.337067,204.994133 L245.337067,204.994133 Z M237.983413,204.994133 C236.599413,204.994133 235.39072,206.092107 235.39072,207.48072 C235.39072,208.86472 236.599413,209.967307 237.983413,209.967307 C239.372027,209.967307 240.47,208.86472 240.47,207.48072 C240.47,206.092107 239.372027,204.994133 237.983413,204.994133 L237.983413,204.994133 Z M164.35,204.994133 C162.966,204.994133 161.863413,206.092107 161.863413,207.48072 C161.863413,208.86472 162.966,209.967307 164.35,209.967307 C165.738613,209.967307 166.947307,208.86472 166.947307,207.48072 C166.947307,206.092107 165.738613,204.994133 164.35,204.994133 L164.35,204.994133 Z M157.00096,204.994133 C155.612347,204.994133 154.514373,206.092107 154.514373,207.48072 C154.514373,208.86472 155.612347,209.967307 157.00096,209.967307 C158.38496,209.967307 159.593653,208.86472 159.593653,207.48072 C159.593653,206.092107 158.38496,204.994133 157.00096,204.994133 L157.00096,204.994133 Z M83.4736533,204.994133 C82.08504,204.994133 80.88096,206.092107 80.88096,207.48072 C80.88096,208.86472 82.08504,209.967307 83.4736533,209.967307 C84.8622667,209.967307 85.96024,208.86472 85.96024,207.48072 C85.96024,206.092107 84.8622667,204.994133 83.4736533,204.994133 L83.4736533,204.994133 Z M76.12,204.994133 C74.736,204.994133 73.5273067,206.092107 73.5273067,207.48072 C73.5273067,208.86472 74.736,209.967307 76.12,209.967307 C77.5086133,209.967307 78.6065867,208.86472 78.6065867,207.48072 C78.6065867,206.092107 77.5086133,204.994133 76.12,204.994133 L76.12,204.994133 Z M68.77096,204.994133 C67.3823467,204.994133 66.1736533,206.092107 66.1736533,207.48072 C66.1736533,208.86472 67.3823467,209.967307 68.77096,209.967307 C70.15496,209.967307 71.2575467,208.86472 71.2575467,207.48072 C71.2575467,206.092107 70.15496,204.994133 68.77096,204.994133 L68.77096,204.994133 Z M267.393413,197.64048 C266.009413,197.64048 264.80072,198.738453 264.80072,200.127067 C264.80072,201.51568 266.009413,202.71976 267.393413,202.71976 C268.782027,202.71976 269.88,201.51568 269.88,200.127067 C269.88,198.738453 268.782027,197.64048 267.393413,197.64048 L267.393413,197.64048 Z M260.044373,197.64048 C258.65576,197.64048 257.447067,198.738453 257.447067,200.127067 C257.447067,201.51568 258.65576,202.71976 260.044373,202.71976 C261.428373,202.71976 262.53096,201.51568 262.53096,200.127067 C262.53096,198.738453 261.428373,197.64048 260.044373,197.64048 L260.044373,197.64048 Z M252.69072,197.64048 C251.302107,197.64048 250.093413,198.738453 250.093413,200.127067 C250.093413,201.51568 251.302107,202.71976 252.69072,202.71976 C254.079333,202.71976 255.177307,201.51568 255.177307,200.127067 C255.177307,198.738453 254.079333,197.64048 252.69072,197.64048 L252.69072,197.64048 Z M245.337067,197.64048 C243.948453,197.64048 242.744373,198.738453 242.744373,200.127067 C242.744373,201.51568 243.948453,202.71976 245.337067,202.71976 C246.72568,202.71976 247.823653,201.51568 247.823653,200.127067 C247.823653,198.738453 246.72568,197.64048 245.337067,197.64048 L245.337067,197.64048 Z M237.983413,197.64048 C236.599413,197.64048 235.39072,198.738453 235.39072,200.127067 C235.39072,201.51568 236.599413,202.71976 237.983413,202.71976 C239.372027,202.71976 240.47,201.51568 240.47,200.127067 C240.47,198.738453 239.372027,197.64048 237.983413,197.64048 L237.983413,197.64048 Z M179.057307,197.64048 C177.668693,197.64048 176.57072,198.738453 176.57072,200.127067 C176.57072,201.51568 177.668693,202.71976 179.057307,202.71976 C180.44592,202.71976 181.65,201.51568 181.65,200.127067 C181.65,198.738453 180.44592,197.64048 179.057307,197.64048 L179.057307,197.64048 Z M164.35,197.64048 C162.966,197.64048 161.863413,198.738453 161.863413,200.127067 C161.863413,201.51568 162.966,202.71976 164.35,202.71976 C165.738613,202.71976 166.947307,201.51568 166.947307,200.127067 C166.947307,198.738453 165.738613,197.64048 164.35,197.64048 L164.35,197.64048 Z M157.00096,197.64048 C155.612347,197.64048 154.514373,198.738453 154.514373,200.127067 C154.514373,201.51568 155.612347,202.71976 157.00096,202.71976 C158.38496,202.71976 159.593653,201.51568 159.593653,200.127067 C159.593653,198.738453 158.38496,197.64048 157.00096,197.64048 L157.00096,197.64048 Z M90.8273067,197.64048 C89.4386933,197.64048 88.23,198.738453 88.23,200.127067 C88.23,201.51568 89.4386933,202.71976 90.8273067,202.71976 C92.21592,202.71976 93.3138933,201.51568 93.3138933,200.127067 C93.3138933,198.738453 92.21592,197.64048 90.8273067,197.64048 L90.8273067,197.64048 Z M83.4736533,197.64048 C82.08504,197.64048 80.88096,198.738453 80.88096,200.127067 C80.88096,201.51568 82.08504,202.71976 83.4736533,202.71976 C84.8622667,202.71976 85.96024,201.51568 85.96024,200.127067 C85.96024,198.738453 84.8622667,197.64048 83.4736533,197.64048 L83.4736533,197.64048 Z M76.12,197.64048 C74.736,197.64048 73.5273067,198.738453 73.5273067,200.127067 C73.5273067,201.51568 74.736,202.71976 76.12,202.71976 C77.5086133,202.71976 78.6065867,201.51568 78.6065867,200.127067 C78.6065867,198.738453 77.5086133,197.64048 76.12,197.64048 L76.12,197.64048 Z M68.77096,197.64048 C67.3823467,197.64048 66.1736533,198.738453 66.1736533,200.127067 C66.1736533,201.51568 67.3823467,202.71976 68.77096,202.71976 C70.15496,202.71976 71.2575467,201.51568 71.2575467,200.127067 C71.2575467,198.738453 70.15496,197.64048 68.77096,197.64048 L68.77096,197.64048 Z M267.393413,190.286827 C266.009413,190.286827 264.80072,191.49552 264.80072,192.884133 C264.80072,194.268133 266.009413,195.37072 267.393413,195.37072 C268.782027,195.37072 269.88,194.268133 269.88,192.884133 C269.88,191.49552 268.782027,190.286827 267.393413,190.286827 L267.393413,190.286827 Z M260.044373,190.286827 C258.65576,190.286827 257.447067,191.49552 257.447067,192.884133 C257.447067,194.268133 258.65576,195.37072 260.044373,195.37072 C261.428373,195.37072 262.53096,194.268133 262.53096,192.884133 C262.53096,191.49552 261.428373,190.286827 260.044373,190.286827 L260.044373,190.286827 Z M252.69072,190.286827 C251.302107,190.286827 250.093413,191.49552 250.093413,192.884133 C250.093413,194.268133 251.302107,195.37072 252.69072,195.37072 C254.079333,195.37072 255.177307,194.268133 255.177307,192.884133 C255.177307,191.49552 254.079333,190.286827 252.69072,190.286827 L252.69072,190.286827 Z M245.337067,190.286827 C243.948453,190.286827 242.744373,191.49552 242.744373,192.884133 C242.744373,194.268133 243.948453,195.37072 245.337067,195.37072 C246.72568,195.37072 247.823653,194.268133 247.823653,192.884133 C247.823653,191.49552 246.72568,190.286827 245.337067,190.286827 L245.337067,190.286827 Z M237.983413,190.286827 C236.599413,190.286827 235.39072,191.49552 235.39072,192.884133 C235.39072,194.268133 236.599413,195.37072 237.983413,195.37072 C239.372027,195.37072 240.47,194.268133 240.47,192.884133 C240.47,191.49552 239.372027,190.286827 237.983413,190.286827 L237.983413,190.286827 Z M186.41096,190.286827 C185.022347,190.286827 183.924373,191.49552 183.924373,192.884133 C183.924373,194.268133 185.022347,195.37072 186.41096,195.37072 C187.79496,195.37072 189.003653,194.268133 189.003653,192.884133 C189.003653,191.49552 187.79496,190.286827 186.41096,190.286827 L186.41096,190.286827 Z M171.703653,190.286827 C170.31504,190.286827 169.217067,191.49552 169.217067,192.884133 C169.217067,194.268133 170.31504,195.37072 171.703653,195.37072 C173.092267,195.37072 174.30096,194.268133 174.30096,192.884133 C174.30096,191.49552 173.092267,190.286827 171.703653,190.286827 L171.703653,190.286827 Z M164.35,190.286827 C162.966,190.286827 161.863413,191.49552 161.863413,192.884133 C161.863413,194.268133 162.966,195.37072 164.35,195.37072 C165.738613,195.37072 166.947307,194.268133 166.947307,192.884133 C166.947307,191.49552 165.738613,190.286827 164.35,190.286827 L164.35,190.286827 Z M157.00096,190.286827 C155.612347,190.286827 154.514373,191.49552 154.514373,192.884133 C154.514373,194.268133 155.612347,195.37072 157.00096,195.37072 C158.38496,195.37072 159.593653,194.268133 159.593653,192.884133 C159.593653,191.49552 158.38496,190.286827 157.00096,190.286827 L157.00096,190.286827 Z M149.647307,190.286827 C148.258693,190.286827 147.16072,191.49552 147.16072,192.884133 C147.16072,194.268133 148.258693,195.37072 149.647307,195.37072 C151.03592,195.37072 152.24,194.268133 152.24,192.884133 C152.24,191.49552 151.03592,190.286827 149.647307,190.286827 L149.647307,190.286827 Z M98.18096,190.286827 C96.7923467,190.286827 95.6943733,191.49552 95.6943733,192.884133 C95.6943733,194.268133 96.7923467,195.37072 98.18096,195.37072 C99.56496,195.37072 100.667547,194.268133 100.667547,192.884133 C100.667547,191.49552 99.56496,190.286827 98.18096,190.286827 L98.18096,190.286827 Z M90.8273067,190.286827 C89.4386933,190.286827 88.23,191.49552 88.23,192.884133 C88.23,194.268133 89.4386933,195.37072 90.8273067,195.37072 C92.21592,195.37072 93.3138933,194.268133 93.3138933,192.884133 C93.3138933,191.49552 92.21592,190.286827 90.8273067,190.286827 L90.8273067,190.286827 Z M83.4736533,190.286827 C82.08504,190.286827 80.88096,191.49552 80.88096,192.884133 C80.88096,194.268133 82.08504,195.37072 83.4736533,195.37072 C84.8622667,195.37072 85.96024,194.268133 85.96024,192.884133 C85.96024,191.49552 84.8622667,190.286827 83.4736533,190.286827 L83.4736533,190.286827 Z M76.12,190.286827 C74.736,190.286827 73.5273067,191.49552 73.5273067,192.884133 C73.5273067,194.268133 74.736,195.37072 76.12,195.37072 C77.5086133,195.37072 78.6065867,194.268133 78.6065867,192.884133 C78.6065867,191.49552 77.5086133,190.286827 76.12,190.286827 L76.12,190.286827 Z M68.77096,190.286827 C67.3823467,190.286827 66.1736533,191.49552 66.1736533,192.884133 C66.1736533,194.268133 67.3823467,195.37072 68.77096,195.37072 C70.15496,195.37072 71.2575467,194.268133 71.2575467,192.884133 C71.2575467,191.49552 70.15496,190.286827 68.77096,190.286827 L68.77096,190.286827 Z M252.69072,183.043893 C251.302107,183.043893 250.093413,184.141867 250.093413,185.53048 C250.093413,186.919093 251.302107,188.123173 252.69072,188.123173 C254.079333,188.123173 255.177307,186.919093 255.177307,185.53048 C255.177307,184.141867 254.079333,183.043893 252.69072,183.043893 L252.69072,183.043893 Z M171.703653,183.043893 C170.31504,183.043893 169.217067,184.141867 169.217067,185.53048 C169.217067,186.919093 170.31504,188.123173 171.703653,188.123173 C173.092267,188.123173 174.30096,186.919093 174.30096,185.53048 C174.30096,184.141867 173.092267,183.043893 171.703653,183.043893 L171.703653,183.043893 Z M164.35,183.043893 C162.966,183.043893 161.863413,184.141867 161.863413,185.53048 C161.863413,186.919093 162.966,188.123173 164.35,188.123173 C165.738613,188.123173 166.947307,186.919093 166.947307,185.53048 C166.947307,184.141867 165.738613,183.043893 164.35,183.043893 L164.35,183.043893 Z M157.00096,183.043893 C155.612347,183.043893 154.514373,184.141867 154.514373,185.53048 C154.514373,186.919093 155.612347,188.123173 157.00096,188.123173 C158.38496,188.123173 159.593653,186.919093 159.593653,185.53048 C159.593653,184.141867 158.38496,183.043893 157.00096,183.043893 L157.00096,183.043893 Z M149.647307,183.043893 C148.258693,183.043893 147.16072,184.141867 147.16072,185.53048 C147.16072,186.919093 148.258693,188.123173 149.647307,188.123173 C151.03592,188.123173 152.24,186.919093 152.24,185.53048 C152.24,184.141867 151.03592,183.043893 149.647307,183.043893 L149.647307,183.043893 Z M98.18096,183.043893 C96.7923467,183.043893 95.6943733,184.141867 95.6943733,185.53048 C95.6943733,186.919093 96.7923467,188.123173 98.18096,188.123173 C99.56496,188.123173 100.667547,186.919093 100.667547,185.53048 C100.667547,184.141867 99.56496,183.043893 98.18096,183.043893 L98.18096,183.043893 Z M90.8273067,183.043893 C89.4386933,183.043893 88.23,184.141867 88.23,185.53048 C88.23,186.919093 89.4386933,188.123173 90.8273067,188.123173 C92.21592,188.123173 93.3138933,186.919093 93.3138933,185.53048 C93.3138933,184.141867 92.21592,183.043893 90.8273067,183.043893 L90.8273067,183.043893 Z M83.4736533,183.043893 C82.08504,183.043893 80.88096,184.141867 80.88096,185.53048 C80.88096,186.919093 82.08504,188.123173 83.4736533,188.123173 C84.8622667,188.123173 85.96024,186.919093 85.96024,185.53048 C85.96024,184.141867 84.8622667,183.043893 83.4736533,183.043893 L83.4736533,183.043893 Z M76.12,183.043893 C74.736,183.043893 73.5273067,184.141867 73.5273067,185.53048 C73.5273067,186.919093 74.736,188.123173 76.12,188.123173 C77.5086133,188.123173 78.6065867,186.919093 78.6065867,185.53048 C78.6065867,184.141867 77.5086133,183.043893 76.12,183.043893 L76.12,183.043893 Z M68.77096,183.043893 C67.3823467,183.043893 66.1736533,184.141867 66.1736533,185.53048 C66.1736533,186.919093 67.3823467,188.123173 68.77096,188.123173 C70.15496,188.123173 71.2575467,186.919093 71.2575467,185.53048 C71.2575467,184.141867 70.15496,183.043893 68.77096,183.043893 L68.77096,183.043893 Z M61.4173067,183.043893 C60.0286933,183.043893 58.82,184.141867 58.82,185.53048 C58.82,186.919093 60.0286933,188.123173 61.4173067,188.123173 C62.80592,188.123173 63.9038933,186.919093 63.9038933,185.53048 C63.9038933,184.141867 62.80592,183.043893 61.4173067,183.043893 L61.4173067,183.043893 Z M267.393413,175.69024 C266.009413,175.69024 264.80072,176.898933 264.80072,178.287547 C264.80072,179.671547 266.009413,180.774133 267.393413,180.774133 C268.782027,180.774133 269.88,179.671547 269.88,178.287547 C269.88,176.898933 268.782027,175.69024 267.393413,175.69024 L267.393413,175.69024 Z M245.337067,175.69024 C243.948453,175.69024 242.744373,176.898933 242.744373,178.287547 C242.744373,179.671547 243.948453,180.774133 245.337067,180.774133 C246.72568,180.774133 247.823653,179.671547 247.823653,178.287547 C247.823653,176.898933 246.72568,175.69024 245.337067,175.69024 L245.337067,175.69024 Z M171.703653,175.69024 C170.31504,175.69024 169.217067,176.898933 169.217067,178.287547 C169.217067,179.671547 170.31504,180.774133 171.703653,180.774133 C173.092267,180.774133 174.30096,179.671547 174.30096,178.287547 C174.30096,176.898933 173.092267,175.69024 171.703653,175.69024 L171.703653,175.69024 Z M164.35,175.69024 C162.966,175.69024 161.863413,176.898933 161.863413,178.287547 C161.863413,179.671547 162.966,180.774133 164.35,180.774133 C165.738613,180.774133 166.947307,179.671547 166.947307,178.287547 C166.947307,176.898933 165.738613,175.69024 164.35,175.69024 L164.35,175.69024 Z M157.00096,175.69024 C155.612347,175.69024 154.514373,176.898933 154.514373,178.287547 C154.514373,179.671547 155.612347,180.774133 157.00096,180.774133 C158.38496,180.774133 159.593653,179.671547 159.593653,178.287547 C159.593653,176.898933 158.38496,175.69024 157.00096,175.69024 L157.00096,175.69024 Z M149.647307,175.69024 C148.258693,175.69024 147.16072,176.898933 147.16072,178.287547 C147.16072,179.671547 148.258693,180.774133 149.647307,180.774133 C151.03592,180.774133 152.24,179.671547 152.24,178.287547 C152.24,176.898933 151.03592,175.69024 149.647307,175.69024 L149.647307,175.69024 Z M98.18096,175.69024 C96.7923467,175.69024 95.6943733,176.898933 95.6943733,178.287547 C95.6943733,179.671547 96.7923467,180.774133 98.18096,180.774133 C99.56496,180.774133 100.667547,179.671547 100.667547,178.287547 C100.667547,176.898933 99.56496,175.69024 98.18096,175.69024 L98.18096,175.69024 Z M90.8273067,175.69024 C89.4386933,175.69024 88.23,176.898933 88.23,178.287547 C88.23,179.671547 89.4386933,180.774133 90.8273067,180.774133 C92.21592,180.774133 93.3138933,179.671547 93.3138933,178.287547 C93.3138933,176.898933 92.21592,175.69024 90.8273067,175.69024 L90.8273067,175.69024 Z M83.4736533,175.69024 C82.08504,175.69024 80.88096,176.898933 80.88096,178.287547 C80.88096,179.671547 82.08504,180.774133 83.4736533,180.774133 C84.8622667,180.774133 85.96024,179.671547 85.96024,178.287547 C85.96024,176.898933 84.8622667,175.69024 83.4736533,175.69024 L83.4736533,175.69024 Z M76.12,175.69024 C74.736,175.69024 73.5273067,176.898933 73.5273067,178.287547 C73.5273067,179.671547 74.736,180.774133 76.12,180.774133 C77.5086133,180.774133 78.6065867,179.671547 78.6065867,178.287547 C78.6065867,176.898933 77.5086133,175.69024 76.12,175.69024 L76.12,175.69024 Z M68.77096,175.69024 C67.3823467,175.69024 66.1736533,176.898933 66.1736533,178.287547 C66.1736533,179.671547 67.3823467,180.774133 68.77096,180.774133 C70.15496,180.774133 71.2575467,179.671547 71.2575467,178.287547 C71.2575467,176.898933 70.15496,175.69024 68.77096,175.69024 L68.77096,175.69024 Z M61.4173067,175.69024 C60.0286933,175.69024 58.82,176.898933 58.82,178.287547 C58.82,179.671547 60.0286933,180.774133 61.4173067,180.774133 C62.80592,180.774133 63.9038933,179.671547 63.9038933,178.287547 C63.9038933,176.898933 62.80592,175.69024 61.4173067,175.69024 L61.4173067,175.69024 Z M54.0636533,175.69024 C52.67504,175.69024 51.47096,176.898933 51.47096,178.287547 C51.47096,179.671547 52.67504,180.774133 54.0636533,180.774133 C55.4522667,180.774133 56.55024,179.671547 56.55024,178.287547 C56.55024,176.898933 55.4522667,175.69024 54.0636533,175.69024 L54.0636533,175.69024 Z M237.983413,168.447307 C236.599413,168.447307 235.39072,169.54528 235.39072,170.933893 C235.39072,172.322507 236.599413,173.42048 237.983413,173.42048 C239.372027,173.42048 240.47,172.322507 240.47,170.933893 C240.47,169.54528 239.372027,168.447307 237.983413,168.447307 L237.983413,168.447307 Z M179.057307,168.447307 C177.668693,168.447307 176.57072,169.54528 176.57072,170.933893 C176.57072,172.322507 177.668693,173.42048 179.057307,173.42048 C180.44592,173.42048 181.65,172.322507 181.65,170.933893 C181.65,169.54528 180.44592,168.447307 179.057307,168.447307 L179.057307,168.447307 Z M171.703653,168.447307 C170.31504,168.447307 169.217067,169.54528 169.217067,170.933893 C169.217067,172.322507 170.31504,173.42048 171.703653,173.42048 C173.092267,173.42048 174.30096,172.322507 174.30096,170.933893 C174.30096,169.54528 173.092267,168.447307 171.703653,168.447307 L171.703653,168.447307 Z M164.35,168.447307 C162.966,168.447307 161.863413,169.54528 161.863413,170.933893 C161.863413,172.322507 162.966,173.42048 164.35,173.42048 C165.738613,173.42048 166.947307,172.322507 166.947307,170.933893 C166.947307,169.54528 165.738613,168.447307 164.35,168.447307 L164.35,168.447307 Z M157.00096,168.447307 C155.612347,168.447307 154.514373,169.54528 154.514373,170.933893 C154.514373,172.322507 155.612347,173.42048 157.00096,173.42048 C158.38496,173.42048 159.593653,172.322507 159.593653,170.933893 C159.593653,169.54528 158.38496,168.447307 157.00096,168.447307 L157.00096,168.447307 Z M149.647307,168.447307 C148.258693,168.447307 147.16072,169.54528 147.16072,170.933893 C147.16072,172.322507 148.258693,173.42048 149.647307,173.42048 C151.03592,173.42048 152.24,172.322507 152.24,170.933893 C152.24,169.54528 151.03592,168.447307 149.647307,168.447307 L149.647307,168.447307 Z M83.4736533,168.447307 C82.08504,168.447307 80.88096,169.54528 80.88096,170.933893 C80.88096,172.322507 82.08504,173.42048 83.4736533,173.42048 C84.8622667,173.42048 85.96024,172.322507 85.96024,170.933893 C85.96024,169.54528 84.8622667,168.447307 83.4736533,168.447307 L83.4736533,168.447307 Z M76.12,168.447307 C74.736,168.447307 73.5273067,169.54528 73.5273067,170.933893 C73.5273067,172.322507 74.736,173.42048 76.12,173.42048 C77.5086133,173.42048 78.6065867,172.322507 78.6065867,170.933893 C78.6065867,169.54528 77.5086133,168.447307 76.12,168.447307 L76.12,168.447307 Z M68.77096,168.447307 C67.3823467,168.447307 66.1736533,169.54528 66.1736533,170.933893 C66.1736533,172.322507 67.3823467,173.42048 68.77096,173.42048 C70.15496,173.42048 71.2575467,172.322507 71.2575467,170.933893 C71.2575467,169.54528 70.15496,168.447307 68.77096,168.447307 L68.77096,168.447307 Z M61.4173067,168.447307 C60.0286933,168.447307 58.82,169.54528 58.82,170.933893 C58.82,172.322507 60.0286933,173.42048 61.4173067,173.42048 C62.80592,173.42048 63.9038933,172.322507 63.9038933,170.933893 C63.9038933,169.54528 62.80592,168.447307 61.4173067,168.447307 L61.4173067,168.447307 Z M237.983413,161.093653 C236.599413,161.093653 235.39072,162.191627 235.39072,163.58024 C235.39072,164.968853 236.599413,166.177547 237.983413,166.177547 C239.372027,166.177547 240.47,164.968853 240.47,163.58024 C240.47,162.191627 239.372027,161.093653 237.983413,161.093653 L237.983413,161.093653 Z M215.927067,161.093653 C214.538453,161.093653 213.334373,162.191627 213.334373,163.58024 C213.334373,164.968853 214.538453,166.177547 215.927067,166.177547 C217.31568,166.177547 218.413653,164.968853 218.413653,163.58024 C218.413653,162.191627 217.31568,161.093653 215.927067,161.093653 L215.927067,161.093653 Z M179.057307,161.093653 C177.668693,161.093653 176.57072,162.191627 176.57072,163.58024 C176.57072,164.968853 177.668693,166.177547 179.057307,166.177547 C180.44592,166.177547 181.65,164.968853 181.65,163.58024 C181.65,162.191627 180.44592,161.093653 179.057307,161.093653 L179.057307,161.093653 Z M171.703653,161.093653 C170.31504,161.093653 169.217067,162.191627 169.217067,163.58024 C169.217067,164.968853 170.31504,166.177547 171.703653,166.177547 C173.092267,166.177547 174.30096,164.968853 174.30096,163.58024 C174.30096,162.191627 173.092267,161.093653 171.703653,161.093653 L171.703653,161.093653 Z M164.35,161.093653 C162.966,161.093653 161.863413,162.191627 161.863413,163.58024 C161.863413,164.968853 162.966,166.177547 164.35,166.177547 C165.738613,166.177547 166.947307,164.968853 166.947307,163.58024 C166.947307,162.191627 165.738613,161.093653 164.35,161.093653 L164.35,161.093653 Z M157.00096,161.093653 C155.612347,161.093653 154.514373,162.191627 154.514373,163.58024 C154.514373,164.968853 155.612347,166.177547 157.00096,166.177547 C158.38496,166.177547 159.593653,164.968853 159.593653,163.58024 C159.593653,162.191627 158.38496,161.093653 157.00096,161.093653 L157.00096,161.093653 Z M149.647307,161.093653 C148.258693,161.093653 147.16072,162.191627 147.16072,163.58024 C147.16072,164.968853 148.258693,166.177547 149.647307,166.177547 C151.03592,166.177547 152.24,164.968853 152.24,163.58024 C152.24,162.191627 151.03592,161.093653 149.647307,161.093653 L149.647307,161.093653 Z M142.293653,161.093653 C140.90504,161.093653 139.807067,162.191627 139.807067,163.58024 C139.807067,164.968853 140.90504,166.177547 142.293653,166.177547 C143.682267,166.177547 144.89096,164.968853 144.89096,163.58024 C144.89096,162.191627 143.682267,161.093653 142.293653,161.093653 L142.293653,161.093653 Z M134.94,161.093653 C133.556,161.093653 132.453413,162.191627 132.453413,163.58024 C132.453413,164.968853 133.556,166.177547 134.94,166.177547 C136.328613,166.177547 137.426587,164.968853 137.426587,163.58024 C137.426587,162.191627 136.328613,161.093653 134.94,161.093653 L134.94,161.093653 Z M127.59096,161.093653 C126.202347,161.093653 125.104373,162.191627 125.104373,163.58024 C125.104373,164.968853 126.202347,166.177547 127.59096,166.177547 C128.97496,166.177547 130.077547,164.968853 130.077547,163.58024 C130.077547,162.191627 128.97496,161.093653 127.59096,161.093653 L127.59096,161.093653 Z M76.12,161.093653 C74.736,161.093653 73.5273067,162.191627 73.5273067,163.58024 C73.5273067,164.968853 74.736,166.177547 76.12,166.177547 C77.5086133,166.177547 78.6065867,164.968853 78.6065867,163.58024 C78.6065867,162.191627 77.5086133,161.093653 76.12,161.093653 L76.12,161.093653 Z M68.77096,161.093653 C67.3823467,161.093653 66.1736533,162.191627 66.1736533,163.58024 C66.1736533,164.968853 67.3823467,166.177547 68.77096,166.177547 C70.15496,166.177547 71.2575467,164.968853 71.2575467,163.58024 C71.2575467,162.191627 70.15496,161.093653 68.77096,161.093653 L68.77096,161.093653 Z M61.4173067,161.093653 C60.0286933,161.093653 58.82,162.191627 58.82,163.58024 C58.82,164.968853 60.0286933,166.177547 61.4173067,166.177547 C62.80592,166.177547 63.9038933,164.968853 63.9038933,163.58024 C63.9038933,162.191627 62.80592,161.093653 61.4173067,161.093653 L61.4173067,161.093653 Z M54.0636533,161.093653 C52.67504,161.093653 51.47096,162.191627 51.47096,163.58024 C51.47096,164.968853 52.67504,166.177547 54.0636533,166.177547 C55.4522667,166.177547 56.55024,164.968853 56.55024,163.58024 C56.55024,162.191627 55.4522667,161.093653 54.0636533,161.093653 L54.0636533,161.093653 Z M245.337067,153.74 C243.948453,153.74 242.744373,154.948693 242.744373,156.337307 C242.744373,157.72592 243.948453,158.823893 245.337067,158.823893 C246.72568,158.823893 247.823653,157.72592 247.823653,156.337307 C247.823653,154.948693 246.72568,153.74 245.337067,153.74 L245.337067,153.74 Z M237.983413,153.74 C236.599413,153.74 235.39072,154.948693 235.39072,156.337307 C235.39072,157.72592 236.599413,158.823893 237.983413,158.823893 C239.372027,158.823893 240.47,157.72592 240.47,156.337307 C240.47,154.948693 239.372027,153.74 237.983413,153.74 L237.983413,153.74 Z M223.28072,153.74 C221.892107,153.74 220.683413,154.948693 220.683413,156.337307 C220.683413,157.72592 221.892107,158.823893 223.28072,158.823893 C224.669333,158.823893 225.767307,157.72592 225.767307,156.337307 C225.767307,154.948693 224.669333,153.74 223.28072,153.74 L223.28072,153.74 Z M215.927067,153.74 C214.538453,153.74 213.334373,154.948693 213.334373,156.337307 C213.334373,157.72592 214.538453,158.823893 215.927067,158.823893 C217.31568,158.823893 218.413653,157.72592 218.413653,156.337307 C218.413653,154.948693 217.31568,153.74 215.927067,153.74 L215.927067,153.74 Z M208.467307,153.74 C207.078693,153.74 205.98072,154.948693 205.98072,156.337307 C205.98072,157.72592 207.078693,158.823893 208.467307,158.823893 C209.85592,158.823893 211.06,157.72592 211.06,156.337307 C211.06,154.948693 209.85592,153.74 208.467307,153.74 L208.467307,153.74 Z M186.41096,153.74 C185.022347,153.74 183.924373,154.948693 183.924373,156.337307 C183.924373,157.72592 185.022347,158.823893 186.41096,158.823893 C187.79496,158.823893 189.003653,157.72592 189.003653,156.337307 C189.003653,154.948693 187.79496,153.74 186.41096,153.74 L186.41096,153.74 Z M171.703653,153.74 C170.31504,153.74 169.217067,154.948693 169.217067,156.337307 C169.217067,157.72592 170.31504,158.823893 171.703653,158.823893 C173.092267,158.823893 174.30096,157.72592 174.30096,156.337307 C174.30096,154.948693 173.092267,153.74 171.703653,153.74 L171.703653,153.74 Z M164.35,153.74 C162.966,153.74 161.863413,154.948693 161.863413,156.337307 C161.863413,157.72592 162.966,158.823893 164.35,158.823893 C165.738613,158.823893 166.947307,157.72592 166.947307,156.337307 C166.947307,154.948693 165.738613,153.74 164.35,153.74 L164.35,153.74 Z M157.00096,153.74 C155.612347,153.74 154.514373,154.948693 154.514373,156.337307 C154.514373,157.72592 155.612347,158.823893 157.00096,158.823893 C158.38496,158.823893 159.593653,157.72592 159.593653,156.337307 C159.593653,154.948693 158.38496,153.74 157.00096,153.74 L157.00096,153.74 Z M149.647307,153.74 C148.258693,153.74 147.16072,154.948693 147.16072,156.337307 C147.16072,157.72592 148.258693,158.823893 149.647307,158.823893 C151.03592,158.823893 152.24,157.72592 152.24,156.337307 C152.24,154.948693 151.03592,153.74 149.647307,153.74 L149.647307,153.74 Z M142.293653,153.74 C140.90504,153.74 139.807067,154.948693 139.807067,156.337307 C139.807067,157.72592 140.90504,158.823893 142.293653,158.823893 C143.682267,158.823893 144.89096,157.72592 144.89096,156.337307 C144.89096,154.948693 143.682267,153.74 142.293653,153.74 L142.293653,153.74 Z M134.94,153.74 C133.556,153.74 132.453413,154.948693 132.453413,156.337307 C132.453413,157.72592 133.556,158.823893 134.94,158.823893 C136.328613,158.823893 137.426587,157.72592 137.426587,156.337307 C137.426587,154.948693 136.328613,153.74 134.94,153.74 L134.94,153.74 Z M127.59096,153.74 C126.202347,153.74 125.104373,154.948693 125.104373,156.337307 C125.104373,157.72592 126.202347,158.823893 127.59096,158.823893 C128.97496,158.823893 130.077547,157.72592 130.077547,156.337307 C130.077547,154.948693 128.97496,153.74 127.59096,153.74 L127.59096,153.74 Z M120.237307,153.74 C118.848693,153.74 117.75072,154.948693 117.75072,156.337307 C117.75072,157.72592 118.848693,158.823893 120.237307,158.823893 C121.62592,158.823893 122.723893,157.72592 122.723893,156.337307 C122.723893,154.948693 121.62592,153.74 120.237307,153.74 L120.237307,153.74 Z M46.71,153.74 C45.326,153.74 44.1173067,154.948693 44.1173067,156.337307 C44.1173067,157.72592 45.326,158.823893 46.71,158.823893 C48.0986133,158.823893 49.1965867,157.72592 49.1965867,156.337307 C49.1965867,154.948693 48.0986133,153.74 46.71,153.74 L46.71,153.74 Z M245.337067,146.497067 C243.948453,146.497067 242.744373,147.59504 242.744373,148.983653 C242.744373,150.372267 243.948453,151.576347 245.337067,151.576347 C246.72568,151.576347 247.823653,150.372267 247.823653,148.983653 C247.823653,147.59504 246.72568,146.497067 245.337067,146.497067 L245.337067,146.497067 Z M237.983413,146.497067 C236.599413,146.497067 235.39072,147.59504 235.39072,148.983653 C235.39072,150.372267 236.599413,151.576347 237.983413,151.576347 C239.372027,151.576347 240.47,150.372267 240.47,148.983653 C240.47,147.59504 239.372027,146.497067 237.983413,146.497067 L237.983413,146.497067 Z M230.634373,146.497067 C229.24576,146.497067 228.037067,147.59504 228.037067,148.983653 C228.037067,150.372267 229.24576,151.576347 230.634373,151.576347 C232.018373,151.576347 233.12096,150.372267 233.12096,148.983653 C233.12096,147.59504 232.018373,146.497067 230.634373,146.497067 L230.634373,146.497067 Z M223.28072,146.497067 C221.892107,146.497067 220.683413,147.59504 220.683413,148.983653 C220.683413,150.372267 221.892107,151.576347 223.28072,151.576347 C224.669333,151.576347 225.767307,150.372267 225.767307,148.983653 C225.767307,147.59504 224.669333,146.497067 223.28072,146.497067 L223.28072,146.497067 Z M215.927067,146.497067 C214.538453,146.497067 213.334373,147.59504 213.334373,148.983653 C213.334373,150.372267 214.538453,151.576347 215.927067,151.576347 C217.31568,151.576347 218.413653,150.372267 218.413653,148.983653 C218.413653,147.59504 217.31568,146.497067 215.927067,146.497067 L215.927067,146.497067 Z M208.467307,146.497067 C207.078693,146.497067 205.98072,147.59504 205.98072,148.983653 C205.98072,150.372267 207.078693,151.576347 208.467307,151.576347 C209.85592,151.576347 211.06,150.372267 211.06,148.983653 C211.06,147.59504 209.85592,146.497067 208.467307,146.497067 L208.467307,146.497067 Z M193.76,146.497067 C192.376,146.497067 191.273413,147.59504 191.273413,148.983653 C191.273413,150.372267 192.376,151.576347 193.76,151.576347 C195.148613,151.576347 196.357307,150.372267 196.357307,148.983653 C196.357307,147.59504 195.148613,146.497067 193.76,146.497067 L193.76,146.497067 Z M186.41096,146.497067 C185.022347,146.497067 183.924373,147.59504 183.924373,148.983653 C183.924373,150.372267 185.022347,151.576347 186.41096,151.576347 C187.79496,151.576347 189.003653,150.372267 189.003653,148.983653 C189.003653,147.59504 187.79496,146.497067 186.41096,146.497067 L186.41096,146.497067 Z M179.057307,146.497067 C177.668693,146.497067 176.57072,147.59504 176.57072,148.983653 C176.57072,150.372267 177.668693,151.576347 179.057307,151.576347 C180.44592,151.576347 181.65,150.372267 181.65,148.983653 C181.65,147.59504 180.44592,146.497067 179.057307,146.497067 L179.057307,146.497067 Z M164.35,146.497067 C162.966,146.497067 161.863413,147.59504 161.863413,148.983653 C161.863413,150.372267 162.966,151.576347 164.35,151.576347 C165.738613,151.576347 166.947307,150.372267 166.947307,148.983653 C166.947307,147.59504 165.738613,146.497067 164.35,146.497067 L164.35,146.497067 Z M157.00096,146.497067 C155.612347,146.497067 154.514373,147.59504 154.514373,148.983653 C154.514373,150.372267 155.612347,151.576347 157.00096,151.576347 C158.38496,151.576347 159.593653,150.372267 159.593653,148.983653 C159.593653,147.59504 158.38496,146.497067 157.00096,146.497067 L157.00096,146.497067 Z M149.647307,146.497067 C148.258693,146.497067 147.16072,147.59504 147.16072,148.983653 C147.16072,150.372267 148.258693,151.576347 149.647307,151.576347 C151.03592,151.576347 152.24,150.372267 152.24,148.983653 C152.24,147.59504 151.03592,146.497067 149.647307,146.497067 L149.647307,146.497067 Z M142.293653,146.497067 C140.90504,146.497067 139.807067,147.59504 139.807067,148.983653 C139.807067,150.372267 140.90504,151.576347 142.293653,151.576347 C143.682267,151.576347 144.89096,150.372267 144.89096,148.983653 C144.89096,147.59504 143.682267,146.497067 142.293653,146.497067 L142.293653,146.497067 Z M134.94,146.497067 C133.556,146.497067 132.453413,147.59504 132.453413,148.983653 C132.453413,150.372267 133.556,151.576347 134.94,151.576347 C136.328613,151.576347 137.426587,150.372267 137.426587,148.983653 C137.426587,147.59504 136.328613,146.497067 134.94,146.497067 L134.94,146.497067 Z M127.59096,146.497067 C126.202347,146.497067 125.104373,147.59504 125.104373,148.983653 C125.104373,150.372267 126.202347,151.576347 127.59096,151.576347 C128.97496,151.576347 130.077547,150.372267 130.077547,148.983653 C130.077547,147.59504 128.97496,146.497067 127.59096,146.497067 L127.59096,146.497067 Z M120.237307,146.497067 C118.848693,146.497067 117.75072,147.59504 117.75072,148.983653 C117.75072,150.372267 118.848693,151.576347 120.237307,151.576347 C121.62592,151.576347 122.723893,150.372267 122.723893,148.983653 C122.723893,147.59504 121.62592,146.497067 120.237307,146.497067 L120.237307,146.497067 Z M39.36096,146.497067 C37.9723467,146.497067 36.7636533,147.59504 36.7636533,148.983653 C36.7636533,150.372267 37.9723467,151.576347 39.36096,151.576347 C40.74496,151.576347 41.8475467,150.372267 41.8475467,148.983653 C41.8475467,147.59504 40.74496,146.497067 39.36096,146.497067 L39.36096,146.497067 Z M32.0073067,146.497067 C30.6186933,146.497067 29.41,147.59504 29.41,148.983653 C29.41,150.372267 30.6186933,151.576347 32.0073067,151.576347 C33.39592,151.576347 34.4938933,150.372267 34.4938933,148.983653 C34.4938933,147.59504 33.39592,146.497067 32.0073067,146.497067 L32.0073067,146.497067 Z M245.337067,139.143413 C243.948453,139.143413 242.744373,140.352107 242.744373,141.74072 C242.744373,143.12472 243.948453,144.227307 245.337067,144.227307 C246.72568,144.227307 247.823653,143.12472 247.823653,141.74072 C247.823653,140.352107 246.72568,139.143413 245.337067,139.143413 L245.337067,139.143413 Z M237.983413,139.143413 C236.599413,139.143413 235.39072,140.352107 235.39072,141.74072 C235.39072,143.12472 236.599413,144.227307 237.983413,144.227307 C239.372027,144.227307 240.47,143.12472 240.47,141.74072 C240.47,140.352107 239.372027,139.143413 237.983413,139.143413 L237.983413,139.143413 Z M230.634373,139.143413 C229.24576,139.143413 228.037067,140.352107 228.037067,141.74072 C228.037067,143.12472 229.24576,144.227307 230.634373,144.227307 C232.018373,144.227307 233.12096,143.12472 233.12096,141.74072 C233.12096,140.352107 232.018373,139.143413 230.634373,139.143413 L230.634373,139.143413 Z M223.28072,139.143413 C221.892107,139.143413 220.683413,140.352107 220.683413,141.74072 C220.683413,143.12472 221.892107,144.227307 223.28072,144.227307 C224.669333,144.227307 225.767307,143.12472 225.767307,141.74072 C225.767307,140.352107 224.669333,139.143413 223.28072,139.143413 L223.28072,139.143413 Z M215.927067,139.143413 C214.538453,139.143413 213.334373,140.352107 213.334373,141.74072 C213.334373,143.12472 214.538453,144.227307 215.927067,144.227307 C217.31568,144.227307 218.413653,143.12472 218.413653,141.74072 C218.413653,140.352107 217.31568,139.143413 215.927067,139.143413 L215.927067,139.143413 Z M208.467307,139.143413 C207.078693,139.143413 205.98072,140.352107 205.98072,141.74072 C205.98072,143.12472 207.078693,144.227307 208.467307,144.227307 C209.85592,144.227307 211.06,143.12472 211.06,141.74072 C211.06,140.352107 209.85592,139.143413 208.467307,139.143413 L208.467307,139.143413 Z M201.113653,139.143413 C199.72504,139.143413 198.627067,140.352107 198.627067,141.74072 C198.627067,143.12472 199.72504,144.227307 201.113653,144.227307 C202.502267,144.227307 203.71096,143.12472 203.71096,141.74072 C203.71096,140.352107 202.502267,139.143413 201.113653,139.143413 L201.113653,139.143413 Z M193.76,139.143413 C192.376,139.143413 191.273413,140.352107 191.273413,141.74072 C191.273413,143.12472 192.376,144.227307 193.76,144.227307 C195.148613,144.227307 196.357307,143.12472 196.357307,141.74072 C196.357307,140.352107 195.148613,139.143413 193.76,139.143413 L193.76,139.143413 Z M186.41096,139.143413 C185.022347,139.143413 183.924373,140.352107 183.924373,141.74072 C183.924373,143.12472 185.022347,144.227307 186.41096,144.227307 C187.79496,144.227307 189.003653,143.12472 189.003653,141.74072 C189.003653,140.352107 187.79496,139.143413 186.41096,139.143413 L186.41096,139.143413 Z M179.057307,139.143413 C177.668693,139.143413 176.57072,140.352107 176.57072,141.74072 C176.57072,143.12472 177.668693,144.227307 179.057307,144.227307 C180.44592,144.227307 181.65,143.12472 181.65,141.74072 C181.65,140.352107 180.44592,139.143413 179.057307,139.143413 L179.057307,139.143413 Z M171.703653,139.143413 C170.31504,139.143413 169.217067,140.352107 169.217067,141.74072 C169.217067,143.12472 170.31504,144.227307 171.703653,144.227307 C173.092267,144.227307 174.30096,143.12472 174.30096,141.74072 C174.30096,140.352107 173.092267,139.143413 171.703653,139.143413 L171.703653,139.143413 Z M164.35,139.143413 C162.966,139.143413 161.863413,140.352107 161.863413,141.74072 C161.863413,143.12472 162.966,144.227307 164.35,144.227307 C165.738613,144.227307 166.947307,143.12472 166.947307,141.74072 C166.947307,140.352107 165.738613,139.143413 164.35,139.143413 L164.35,139.143413 Z M157.00096,139.143413 C155.612347,139.143413 154.514373,140.352107 154.514373,141.74072 C154.514373,143.12472 155.612347,144.227307 157.00096,144.227307 C158.38496,144.227307 159.593653,143.12472 159.593653,141.74072 C159.593653,140.352107 158.38496,139.143413 157.00096,139.143413 L157.00096,139.143413 Z M149.647307,139.143413 C148.258693,139.143413 147.16072,140.352107 147.16072,141.74072 C147.16072,143.12472 148.258693,144.227307 149.647307,144.227307 C151.03592,144.227307 152.24,143.12472 152.24,141.74072 C152.24,140.352107 151.03592,139.143413 149.647307,139.143413 L149.647307,139.143413 Z M142.293653,139.143413 C140.90504,139.143413 139.807067,140.352107 139.807067,141.74072 C139.807067,143.12472 140.90504,144.227307 142.293653,144.227307 C143.682267,144.227307 144.89096,143.12472 144.89096,141.74072 C144.89096,140.352107 143.682267,139.143413 142.293653,139.143413 L142.293653,139.143413 Z M134.94,139.143413 C133.556,139.143413 132.453413,140.352107 132.453413,141.74072 C132.453413,143.12472 133.556,144.227307 134.94,144.227307 C136.328613,144.227307 137.426587,143.12472 137.426587,141.74072 C137.426587,140.352107 136.328613,139.143413 134.94,139.143413 L134.94,139.143413 Z M127.59096,139.143413 C126.202347,139.143413 125.104373,140.352107 125.104373,141.74072 C125.104373,143.12472 126.202347,144.227307 127.59096,144.227307 C128.97496,144.227307 130.077547,143.12472 130.077547,141.74072 C130.077547,140.352107 128.97496,139.143413 127.59096,139.143413 L127.59096,139.143413 Z M61.4173067,139.143413 C60.0286933,139.143413 58.82,140.352107 58.82,141.74072 C58.82,143.12472 60.0286933,144.227307 61.4173067,144.227307 C62.80592,144.227307 63.9038933,143.12472 63.9038933,141.74072 C63.9038933,140.352107 62.80592,139.143413 61.4173067,139.143413 L61.4173067,139.143413 Z M39.36096,139.143413 C37.9723467,139.143413 36.7636533,140.352107 36.7636533,141.74072 C36.7636533,143.12472 37.9723467,144.227307 39.36096,144.227307 C40.74496,144.227307 41.8475467,143.12472 41.8475467,141.74072 C41.8475467,140.352107 40.74496,139.143413 39.36096,139.143413 L39.36096,139.143413 Z M32.0073067,139.143413 C30.6186933,139.143413 29.41,140.352107 29.41,141.74072 C29.41,143.12472 30.6186933,144.227307 32.0073067,144.227307 C33.39592,144.227307 34.4938933,143.12472 34.4938933,141.74072 C34.4938933,140.352107 33.39592,139.143413 32.0073067,139.143413 L32.0073067,139.143413 Z M245.337067,131.90048 C243.948453,131.90048 242.744373,132.998453 242.744373,134.387067 C242.744373,135.77568 243.948453,136.873653 245.337067,136.873653 C246.72568,136.873653 247.823653,135.77568 247.823653,134.387067 C247.823653,132.998453 246.72568,131.90048 245.337067,131.90048 L245.337067,131.90048 Z M237.983413,131.90048 C236.599413,131.90048 235.39072,132.998453 235.39072,134.387067 C235.39072,135.77568 236.599413,136.873653 237.983413,136.873653 C239.372027,136.873653 240.47,135.77568 240.47,134.387067 C240.47,132.998453 239.372027,131.90048 237.983413,131.90048 L237.983413,131.90048 Z M230.634373,131.90048 C229.24576,131.90048 228.037067,132.998453 228.037067,134.387067 C228.037067,135.77568 229.24576,136.873653 230.634373,136.873653 C232.018373,136.873653 233.12096,135.77568 233.12096,134.387067 C233.12096,132.998453 232.018373,131.90048 230.634373,131.90048 L230.634373,131.90048 Z M223.28072,131.90048 C221.892107,131.90048 220.683413,132.998453 220.683413,134.387067 C220.683413,135.77568 221.892107,136.873653 223.28072,136.873653 C224.669333,136.873653 225.767307,135.77568 225.767307,134.387067 C225.767307,132.998453 224.669333,131.90048 223.28072,131.90048 L223.28072,131.90048 Z M215.927067,131.90048 C214.538453,131.90048 213.334373,132.998453 213.334373,134.387067 C213.334373,135.77568 214.538453,136.873653 215.927067,136.873653 C217.31568,136.873653 218.413653,135.77568 218.413653,134.387067 C218.413653,132.998453 217.31568,131.90048 215.927067,131.90048 L215.927067,131.90048 Z M208.467307,131.90048 C207.078693,131.90048 205.98072,132.998453 205.98072,134.387067 C205.98072,135.77568 207.078693,136.873653 208.467307,136.873653 C209.85592,136.873653 211.06,135.77568 211.06,134.387067 C211.06,132.998453 209.85592,131.90048 208.467307,131.90048 L208.467307,131.90048 Z M201.113653,131.90048 C199.72504,131.90048 198.627067,132.998453 198.627067,134.387067 C198.627067,135.77568 199.72504,136.873653 201.113653,136.873653 C202.502267,136.873653 203.71096,135.77568 203.71096,134.387067 C203.71096,132.998453 202.502267,131.90048 201.113653,131.90048 L201.113653,131.90048 Z M193.76,131.90048 C192.376,131.90048 191.273413,132.998453 191.273413,134.387067 C191.273413,135.77568 192.376,136.873653 193.76,136.873653 C195.148613,136.873653 196.357307,135.77568 196.357307,134.387067 C196.357307,132.998453 195.148613,131.90048 193.76,131.90048 L193.76,131.90048 Z M186.41096,131.90048 C185.022347,131.90048 183.924373,132.998453 183.924373,134.387067 C183.924373,135.77568 185.022347,136.873653 186.41096,136.873653 C187.79496,136.873653 189.003653,135.77568 189.003653,134.387067 C189.003653,132.998453 187.79496,131.90048 186.41096,131.90048 L186.41096,131.90048 Z M179.057307,131.90048 C177.668693,131.90048 176.57072,132.998453 176.57072,134.387067 C176.57072,135.77568 177.668693,136.873653 179.057307,136.873653 C180.44592,136.873653 181.65,135.77568 181.65,134.387067 C181.65,132.998453 180.44592,131.90048 179.057307,131.90048 L179.057307,131.90048 Z M171.703653,131.90048 C170.31504,131.90048 169.217067,132.998453 169.217067,134.387067 C169.217067,135.77568 170.31504,136.873653 171.703653,136.873653 C173.092267,136.873653 174.30096,135.77568 174.30096,134.387067 C174.30096,132.998453 173.092267,131.90048 171.703653,131.90048 L171.703653,131.90048 Z M142.293653,131.90048 C140.90504,131.90048 139.807067,132.998453 139.807067,134.387067 C139.807067,135.77568 140.90504,136.873653 142.293653,136.873653 C143.682267,136.873653 144.89096,135.77568 144.89096,134.387067 C144.89096,132.998453 143.682267,131.90048 142.293653,131.90048 L142.293653,131.90048 Z M134.94,131.90048 C133.556,131.90048 132.453413,132.998453 132.453413,134.387067 C132.453413,135.77568 133.556,136.873653 134.94,136.873653 C136.328613,136.873653 137.426587,135.77568 137.426587,134.387067 C137.426587,132.998453 136.328613,131.90048 134.94,131.90048 L134.94,131.90048 Z M61.4173067,131.90048 C60.0286933,131.90048 58.82,132.998453 58.82,134.387067 C58.82,135.77568 60.0286933,136.873653 61.4173067,136.873653 C62.80592,136.873653 63.9038933,135.77568 63.9038933,134.387067 C63.9038933,132.998453 62.80592,131.90048 61.4173067,131.90048 L61.4173067,131.90048 Z M54.0636533,131.90048 C52.67504,131.90048 51.47096,132.998453 51.47096,134.387067 C51.47096,135.77568 52.67504,136.873653 54.0636533,136.873653 C55.4522667,136.873653 56.55024,135.77568 56.55024,134.387067 C56.55024,132.998453 55.4522667,131.90048 54.0636533,131.90048 L54.0636533,131.90048 Z M46.71,131.90048 C45.326,131.90048 44.1173067,132.998453 44.1173067,134.387067 C44.1173067,135.77568 45.326,136.873653 46.71,136.873653 C48.0986133,136.873653 49.1965867,135.77568 49.1965867,134.387067 C49.1965867,132.998453 48.0986133,131.90048 46.71,131.90048 L46.71,131.90048 Z M39.36096,131.90048 C37.9723467,131.90048 36.7636533,132.998453 36.7636533,134.387067 C36.7636533,135.77568 37.9723467,136.873653 39.36096,136.873653 C40.74496,136.873653 41.8475467,135.77568 41.8475467,134.387067 C41.8475467,132.998453 40.74496,131.90048 39.36096,131.90048 L39.36096,131.90048 Z M32.0073067,131.90048 C30.6186933,131.90048 29.41,132.998453 29.41,134.387067 C29.41,135.77568 30.6186933,136.873653 32.0073067,136.873653 C33.39592,136.873653 34.4938933,135.77568 34.4938933,134.387067 C34.4938933,132.998453 33.39592,131.90048 32.0073067,131.90048 L32.0073067,131.90048 Z M24.6536533,131.90048 C23.26504,131.90048 22.06096,132.998453 22.06096,134.387067 C22.06096,135.77568 23.26504,136.873653 24.6536533,136.873653 C26.0422667,136.873653 27.14024,135.77568 27.14024,134.387067 C27.14024,132.998453 26.0422667,131.90048 24.6536533,131.90048 L24.6536533,131.90048 Z M260.044373,124.546827 C258.65576,124.546827 257.447067,125.6448 257.447067,127.033413 C257.447067,128.422027 258.65576,129.63072 260.044373,129.63072 C261.428373,129.63072 262.53096,128.422027 262.53096,127.033413 C262.53096,125.6448 261.428373,124.546827 260.044373,124.546827 L260.044373,124.546827 Z M252.69072,124.546827 C251.302107,124.546827 250.093413,125.6448 250.093413,127.033413 C250.093413,128.422027 251.302107,129.63072 252.69072,129.63072 C254.079333,129.63072 255.177307,128.422027 255.177307,127.033413 C255.177307,125.6448 254.079333,124.546827 252.69072,124.546827 L252.69072,124.546827 Z M245.337067,124.546827 C243.948453,124.546827 242.744373,125.6448 242.744373,127.033413 C242.744373,128.422027 243.948453,129.63072 245.337067,129.63072 C246.72568,129.63072 247.823653,128.422027 247.823653,127.033413 C247.823653,125.6448 246.72568,124.546827 245.337067,124.546827 L245.337067,124.546827 Z M237.983413,124.546827 C236.599413,124.546827 235.39072,125.6448 235.39072,127.033413 C235.39072,128.422027 236.599413,129.63072 237.983413,129.63072 C239.372027,129.63072 240.47,128.422027 240.47,127.033413 C240.47,125.6448 239.372027,124.546827 237.983413,124.546827 L237.983413,124.546827 Z M230.634373,124.546827 C229.24576,124.546827 228.037067,125.6448 228.037067,127.033413 C228.037067,128.422027 229.24576,129.63072 230.634373,129.63072 C232.018373,129.63072 233.12096,128.422027 233.12096,127.033413 C233.12096,125.6448 232.018373,124.546827 230.634373,124.546827 L230.634373,124.546827 Z M223.28072,124.546827 C221.892107,124.546827 220.683413,125.6448 220.683413,127.033413 C220.683413,128.422027 221.892107,129.63072 223.28072,129.63072 C224.669333,129.63072 225.767307,128.422027 225.767307,127.033413 C225.767307,125.6448 224.669333,124.546827 223.28072,124.546827 L223.28072,124.546827 Z M215.927067,124.546827 C214.538453,124.546827 213.334373,125.6448 213.334373,127.033413 C213.334373,128.422027 214.538453,129.63072 215.927067,129.63072 C217.31568,129.63072 218.413653,128.422027 218.413653,127.033413 C218.413653,125.6448 217.31568,124.546827 215.927067,124.546827 L215.927067,124.546827 Z M208.467307,124.546827 C207.078693,124.546827 205.98072,125.6448 205.98072,127.033413 C205.98072,128.422027 207.078693,129.63072 208.467307,129.63072 C209.85592,129.63072 211.06,128.422027 211.06,127.033413 C211.06,125.6448 209.85592,124.546827 208.467307,124.546827 L208.467307,124.546827 Z M201.113653,124.546827 C199.72504,124.546827 198.627067,125.6448 198.627067,127.033413 C198.627067,128.422027 199.72504,129.63072 201.113653,129.63072 C202.502267,129.63072 203.71096,128.422027 203.71096,127.033413 C203.71096,125.6448 202.502267,124.546827 201.113653,124.546827 L201.113653,124.546827 Z M193.76,124.546827 C192.376,124.546827 191.273413,125.6448 191.273413,127.033413 C191.273413,128.422027 192.376,129.63072 193.76,129.63072 C195.148613,129.63072 196.357307,128.422027 196.357307,127.033413 C196.357307,125.6448 195.148613,124.546827 193.76,124.546827 L193.76,124.546827 Z M186.41096,124.546827 C185.022347,124.546827 183.924373,125.6448 183.924373,127.033413 C183.924373,128.422027 185.022347,129.63072 186.41096,129.63072 C187.79496,129.63072 189.003653,128.422027 189.003653,127.033413 C189.003653,125.6448 187.79496,124.546827 186.41096,124.546827 L186.41096,124.546827 Z M179.057307,124.546827 C177.668693,124.546827 176.57072,125.6448 176.57072,127.033413 C176.57072,128.422027 177.668693,129.63072 179.057307,129.63072 C180.44592,129.63072 181.65,128.422027 181.65,127.033413 C181.65,125.6448 180.44592,124.546827 179.057307,124.546827 L179.057307,124.546827 Z M171.703653,124.546827 C170.31504,124.546827 169.217067,125.6448 169.217067,127.033413 C169.217067,128.422027 170.31504,129.63072 171.703653,129.63072 C173.092267,129.63072 174.30096,128.422027 174.30096,127.033413 C174.30096,125.6448 173.092267,124.546827 171.703653,124.546827 L171.703653,124.546827 Z M164.35,124.546827 C162.966,124.546827 161.863413,125.6448 161.863413,127.033413 C161.863413,128.422027 162.966,129.63072 164.35,129.63072 C165.738613,129.63072 166.947307,128.422027 166.947307,127.033413 C166.947307,125.6448 165.738613,124.546827 164.35,124.546827 L164.35,124.546827 Z M157.00096,124.546827 C155.612347,124.546827 154.514373,125.6448 154.514373,127.033413 C154.514373,128.422027 155.612347,129.63072 157.00096,129.63072 C158.38496,129.63072 159.593653,128.422027 159.593653,127.033413 C159.593653,125.6448 158.38496,124.546827 157.00096,124.546827 L157.00096,124.546827 Z M149.647307,124.546827 C148.258693,124.546827 147.16072,125.6448 147.16072,127.033413 C147.16072,128.422027 148.258693,129.63072 149.647307,129.63072 C151.03592,129.63072 152.24,128.422027 152.24,127.033413 C152.24,125.6448 151.03592,124.546827 149.647307,124.546827 L149.647307,124.546827 Z M134.94,124.546827 C133.556,124.546827 132.453413,125.6448 132.453413,127.033413 C132.453413,128.422027 133.556,129.63072 134.94,129.63072 C136.328613,129.63072 137.426587,128.422027 137.426587,127.033413 C137.426587,125.6448 136.328613,124.546827 134.94,124.546827 L134.94,124.546827 Z M68.77096,124.546827 C67.3823467,124.546827 66.1736533,125.6448 66.1736533,127.033413 C66.1736533,128.422027 67.3823467,129.63072 68.77096,129.63072 C70.15496,129.63072 71.2575467,128.422027 71.2575467,127.033413 C71.2575467,125.6448 70.15496,124.546827 68.77096,124.546827 L68.77096,124.546827 Z M61.4173067,124.546827 C60.0286933,124.546827 58.82,125.6448 58.82,127.033413 C58.82,128.422027 60.0286933,129.63072 61.4173067,129.63072 C62.80592,129.63072 63.9038933,128.422027 63.9038933,127.033413 C63.9038933,125.6448 62.80592,124.546827 61.4173067,124.546827 L61.4173067,124.546827 Z M54.0636533,124.546827 C52.67504,124.546827 51.47096,125.6448 51.47096,127.033413 C51.47096,128.422027 52.67504,129.63072 54.0636533,129.63072 C55.4522667,129.63072 56.55024,128.422027 56.55024,127.033413 C56.55024,125.6448 55.4522667,124.546827 54.0636533,124.546827 L54.0636533,124.546827 Z M46.71,124.546827 C45.326,124.546827 44.1173067,125.6448 44.1173067,127.033413 C44.1173067,128.422027 45.326,129.63072 46.71,129.63072 C48.0986133,129.63072 49.1965867,128.422027 49.1965867,127.033413 C49.1965867,125.6448 48.0986133,124.546827 46.71,124.546827 L46.71,124.546827 Z M39.36096,124.546827 C37.9723467,124.546827 36.7636533,125.6448 36.7636533,127.033413 C36.7636533,128.422027 37.9723467,129.63072 39.36096,129.63072 C40.74496,129.63072 41.8475467,128.422027 41.8475467,127.033413 C41.8475467,125.6448 40.74496,124.546827 39.36096,124.546827 L39.36096,124.546827 Z M32.0073067,124.546827 C30.6186933,124.546827 29.41,125.6448 29.41,127.033413 C29.41,128.422027 30.6186933,129.63072 32.0073067,129.63072 C33.39592,129.63072 34.4938933,128.422027 34.4938933,127.033413 C34.4938933,125.6448 33.39592,124.546827 32.0073067,124.546827 L32.0073067,124.546827 Z M24.6536533,124.546827 C23.26504,124.546827 22.06096,125.6448 22.06096,127.033413 C22.06096,128.422027 23.26504,129.63072 24.6536533,129.63072 C26.0422667,129.63072 27.14024,128.422027 27.14024,127.033413 C27.14024,125.6448 26.0422667,124.546827 24.6536533,124.546827 L24.6536533,124.546827 Z M282.10072,117.193173 C280.712107,117.193173 279.503413,118.401867 279.503413,119.79048 C279.503413,121.179093 280.712107,122.277067 282.10072,122.277067 C283.489333,122.277067 284.587307,121.179093 284.587307,119.79048 C284.587307,118.401867 283.489333,117.193173 282.10072,117.193173 L282.10072,117.193173 Z M260.044373,117.193173 C258.65576,117.193173 257.447067,118.401867 257.447067,119.79048 C257.447067,121.179093 258.65576,122.277067 260.044373,122.277067 C261.428373,122.277067 262.53096,121.179093 262.53096,119.79048 C262.53096,118.401867 261.428373,117.193173 260.044373,117.193173 L260.044373,117.193173 Z M252.69072,117.193173 C251.302107,117.193173 250.093413,118.401867 250.093413,119.79048 C250.093413,121.179093 251.302107,122.277067 252.69072,122.277067 C254.079333,122.277067 255.177307,121.179093 255.177307,119.79048 C255.177307,118.401867 254.079333,117.193173 252.69072,117.193173 L252.69072,117.193173 Z M245.337067,117.193173 C243.948453,117.193173 242.744373,118.401867 242.744373,119.79048 C242.744373,121.179093 243.948453,122.277067 245.337067,122.277067 C246.72568,122.277067 247.823653,121.179093 247.823653,119.79048 C247.823653,118.401867 246.72568,117.193173 245.337067,117.193173 L245.337067,117.193173 Z M237.983413,117.193173 C236.599413,117.193173 235.39072,118.401867 235.39072,119.79048 C235.39072,121.179093 236.599413,122.277067 237.983413,122.277067 C239.372027,122.277067 240.47,121.179093 240.47,119.79048 C240.47,118.401867 239.372027,117.193173 237.983413,117.193173 L237.983413,117.193173 Z M230.634373,117.193173 C229.24576,117.193173 228.037067,118.401867 228.037067,119.79048 C228.037067,121.179093 229.24576,122.277067 230.634373,122.277067 C232.018373,122.277067 233.12096,121.179093 233.12096,119.79048 C233.12096,118.401867 232.018373,117.193173 230.634373,117.193173 L230.634373,117.193173 Z M223.28072,117.193173 C221.892107,117.193173 220.683413,118.401867 220.683413,119.79048 C220.683413,121.179093 221.892107,122.277067 223.28072,122.277067 C224.669333,122.277067 225.767307,121.179093 225.767307,119.79048 C225.767307,118.401867 224.669333,117.193173 223.28072,117.193173 L223.28072,117.193173 Z M215.927067,117.193173 C214.538453,117.193173 213.334373,118.401867 213.334373,119.79048 C213.334373,121.179093 214.538453,122.277067 215.927067,122.277067 C217.31568,122.277067 218.413653,121.179093 218.413653,119.79048 C218.413653,118.401867 217.31568,117.193173 215.927067,117.193173 L215.927067,117.193173 Z M208.467307,117.193173 C207.078693,117.193173 205.98072,118.401867 205.98072,119.79048 C205.98072,121.179093 207.078693,122.277067 208.467307,122.277067 C209.85592,122.277067 211.06,121.179093 211.06,119.79048 C211.06,118.401867 209.85592,117.193173 208.467307,117.193173 L208.467307,117.193173 Z M201.113653,117.193173 C199.72504,117.193173 198.627067,118.401867 198.627067,119.79048 C198.627067,121.179093 199.72504,122.277067 201.113653,122.277067 C202.502267,122.277067 203.71096,121.179093 203.71096,119.79048 C203.71096,118.401867 202.502267,117.193173 201.113653,117.193173 L201.113653,117.193173 Z M193.76,117.193173 C192.376,117.193173 191.273413,118.401867 191.273413,119.79048 C191.273413,121.179093 192.376,122.277067 193.76,122.277067 C195.148613,122.277067 196.357307,121.179093 196.357307,119.79048 C196.357307,118.401867 195.148613,117.193173 193.76,117.193173 L193.76,117.193173 Z M186.41096,117.193173 C185.022347,117.193173 183.924373,118.401867 183.924373,119.79048 C183.924373,121.179093 185.022347,122.277067 186.41096,122.277067 C187.79496,122.277067 189.003653,121.179093 189.003653,119.79048 C189.003653,118.401867 187.79496,117.193173 186.41096,117.193173 L186.41096,117.193173 Z M179.057307,117.193173 C177.668693,117.193173 176.57072,118.401867 176.57072,119.79048 C176.57072,121.179093 177.668693,122.277067 179.057307,122.277067 C180.44592,122.277067 181.65,121.179093 181.65,119.79048 C181.65,118.401867 180.44592,117.193173 179.057307,117.193173 L179.057307,117.193173 Z M171.703653,117.193173 C170.31504,117.193173 169.217067,118.401867 169.217067,119.79048 C169.217067,121.179093 170.31504,122.277067 171.703653,122.277067 C173.092267,122.277067 174.30096,121.179093 174.30096,119.79048 C174.30096,118.401867 173.092267,117.193173 171.703653,117.193173 L171.703653,117.193173 Z M164.35,117.193173 C162.966,117.193173 161.863413,118.401867 161.863413,119.79048 C161.863413,121.179093 162.966,122.277067 164.35,122.277067 C165.738613,122.277067 166.947307,121.179093 166.947307,119.79048 C166.947307,118.401867 165.738613,117.193173 164.35,117.193173 L164.35,117.193173 Z M157.00096,117.193173 C155.612347,117.193173 154.514373,118.401867 154.514373,119.79048 C154.514373,121.179093 155.612347,122.277067 157.00096,122.277067 C158.38496,122.277067 159.593653,121.179093 159.593653,119.79048 C159.593653,118.401867 158.38496,117.193173 157.00096,117.193173 L157.00096,117.193173 Z M149.647307,117.193173 C148.258693,117.193173 147.16072,118.401867 147.16072,119.79048 C147.16072,121.179093 148.258693,122.277067 149.647307,122.277067 C151.03592,122.277067 152.24,121.179093 152.24,119.79048 C152.24,118.401867 151.03592,117.193173 149.647307,117.193173 L149.647307,117.193173 Z M142.293653,117.193173 C140.90504,117.193173 139.807067,118.401867 139.807067,119.79048 C139.807067,121.179093 140.90504,122.277067 142.293653,122.277067 C143.682267,122.277067 144.89096,121.179093 144.89096,119.79048 C144.89096,118.401867 143.682267,117.193173 142.293653,117.193173 L142.293653,117.193173 Z M134.94,117.193173 C133.556,117.193173 132.453413,118.401867 132.453413,119.79048 C132.453413,121.179093 133.556,122.277067 134.94,122.277067 C136.328613,122.277067 137.426587,121.179093 137.426587,119.79048 C137.426587,118.401867 136.328613,117.193173 134.94,117.193173 L134.94,117.193173 Z M76.12,117.193173 C74.736,117.193173 73.5273067,118.401867 73.5273067,119.79048 C73.5273067,121.179093 74.736,122.277067 76.12,122.277067 C77.5086133,122.277067 78.6065867,121.179093 78.6065867,119.79048 C78.6065867,118.401867 77.5086133,117.193173 76.12,117.193173 L76.12,117.193173 Z M68.77096,117.193173 C67.3823467,117.193173 66.1736533,118.401867 66.1736533,119.79048 C66.1736533,121.179093 67.3823467,122.277067 68.77096,122.277067 C70.15496,122.277067 71.2575467,121.179093 71.2575467,119.79048 C71.2575467,118.401867 70.15496,117.193173 68.77096,117.193173 L68.77096,117.193173 Z M61.4173067,117.193173 C60.0286933,117.193173 58.82,118.401867 58.82,119.79048 C58.82,121.179093 60.0286933,122.277067 61.4173067,122.277067 C62.80592,122.277067 63.9038933,121.179093 63.9038933,119.79048 C63.9038933,118.401867 62.80592,117.193173 61.4173067,117.193173 L61.4173067,117.193173 Z M54.0636533,117.193173 C52.67504,117.193173 51.47096,118.401867 51.47096,119.79048 C51.47096,121.179093 52.67504,122.277067 54.0636533,122.277067 C55.4522667,122.277067 56.55024,121.179093 56.55024,119.79048 C56.55024,118.401867 55.4522667,117.193173 54.0636533,117.193173 L54.0636533,117.193173 Z M46.71,117.193173 C45.326,117.193173 44.1173067,118.401867 44.1173067,119.79048 C44.1173067,121.179093 45.326,122.277067 46.71,122.277067 C48.0986133,122.277067 49.1965867,121.179093 49.1965867,119.79048 C49.1965867,118.401867 48.0986133,117.193173 46.71,117.193173 L46.71,117.193173 Z M39.36096,117.193173 C37.9723467,117.193173 36.7636533,118.401867 36.7636533,119.79048 C36.7636533,121.179093 37.9723467,122.277067 39.36096,122.277067 C40.74496,122.277067 41.8475467,121.179093 41.8475467,119.79048 C41.8475467,118.401867 40.74496,117.193173 39.36096,117.193173 L39.36096,117.193173 Z M32.0073067,117.193173 C30.6186933,117.193173 29.41,118.401867 29.41,119.79048 C29.41,121.179093 30.6186933,122.277067 32.0073067,122.277067 C33.39592,122.277067 34.4938933,121.179093 34.4938933,119.79048 C34.4938933,118.401867 33.39592,117.193173 32.0073067,117.193173 L32.0073067,117.193173 Z M260.044373,109.95024 C258.65576,109.95024 257.447067,111.048213 257.447067,112.436827 C257.447067,113.82544 258.65576,115.034133 260.044373,115.034133 C261.428373,115.034133 262.53096,113.82544 262.53096,112.436827 C262.53096,111.048213 261.428373,109.95024 260.044373,109.95024 L260.044373,109.95024 Z M252.69072,109.95024 C251.302107,109.95024 250.093413,111.048213 250.093413,112.436827 C250.093413,113.82544 251.302107,115.034133 252.69072,115.034133 C254.079333,115.034133 255.177307,113.82544 255.177307,112.436827 C255.177307,111.048213 254.079333,109.95024 252.69072,109.95024 L252.69072,109.95024 Z M245.337067,109.95024 C243.948453,109.95024 242.744373,111.048213 242.744373,112.436827 C242.744373,113.82544 243.948453,115.034133 245.337067,115.034133 C246.72568,115.034133 247.823653,113.82544 247.823653,112.436827 C247.823653,111.048213 246.72568,109.95024 245.337067,109.95024 L245.337067,109.95024 Z M237.983413,109.95024 C236.599413,109.95024 235.39072,111.048213 235.39072,112.436827 C235.39072,113.82544 236.599413,115.034133 237.983413,115.034133 C239.372027,115.034133 240.47,113.82544 240.47,112.436827 C240.47,111.048213 239.372027,109.95024 237.983413,109.95024 L237.983413,109.95024 Z M230.634373,109.95024 C229.24576,109.95024 228.037067,111.048213 228.037067,112.436827 C228.037067,113.82544 229.24576,115.034133 230.634373,115.034133 C232.018373,115.034133 233.12096,113.82544 233.12096,112.436827 C233.12096,111.048213 232.018373,109.95024 230.634373,109.95024 L230.634373,109.95024 Z M223.28072,109.95024 C221.892107,109.95024 220.683413,111.048213 220.683413,112.436827 C220.683413,113.82544 221.892107,115.034133 223.28072,115.034133 C224.669333,115.034133 225.767307,113.82544 225.767307,112.436827 C225.767307,111.048213 224.669333,109.95024 223.28072,109.95024 L223.28072,109.95024 Z M215.927067,109.95024 C214.538453,109.95024 213.334373,111.048213 213.334373,112.436827 C213.334373,113.82544 214.538453,115.034133 215.927067,115.034133 C217.31568,115.034133 218.413653,113.82544 218.413653,112.436827 C218.413653,111.048213 217.31568,109.95024 215.927067,109.95024 L215.927067,109.95024 Z M208.467307,109.95024 C207.078693,109.95024 205.98072,111.048213 205.98072,112.436827 C205.98072,113.82544 207.078693,115.034133 208.467307,115.034133 C209.85592,115.034133 211.06,113.82544 211.06,112.436827 C211.06,111.048213 209.85592,109.95024 208.467307,109.95024 L208.467307,109.95024 Z M201.113653,109.95024 C199.72504,109.95024 198.627067,111.048213 198.627067,112.436827 C198.627067,113.82544 199.72504,115.034133 201.113653,115.034133 C202.502267,115.034133 203.71096,113.82544 203.71096,112.436827 C203.71096,111.048213 202.502267,109.95024 201.113653,109.95024 L201.113653,109.95024 Z M193.76,109.95024 C192.376,109.95024 191.273413,111.048213 191.273413,112.436827 C191.273413,113.82544 192.376,115.034133 193.76,115.034133 C195.148613,115.034133 196.357307,113.82544 196.357307,112.436827 C196.357307,111.048213 195.148613,109.95024 193.76,109.95024 L193.76,109.95024 Z M186.41096,109.95024 C185.022347,109.95024 183.924373,111.048213 183.924373,112.436827 C183.924373,113.82544 185.022347,115.034133 186.41096,115.034133 C187.79496,115.034133 189.003653,113.82544 189.003653,112.436827 C189.003653,111.048213 187.79496,109.95024 186.41096,109.95024 L186.41096,109.95024 Z M179.057307,109.95024 C177.668693,109.95024 176.57072,111.048213 176.57072,112.436827 C176.57072,113.82544 177.668693,115.034133 179.057307,115.034133 C180.44592,115.034133 181.65,113.82544 181.65,112.436827 C181.65,111.048213 180.44592,109.95024 179.057307,109.95024 L179.057307,109.95024 Z M171.703653,109.95024 C170.31504,109.95024 169.217067,111.048213 169.217067,112.436827 C169.217067,113.82544 170.31504,115.034133 171.703653,115.034133 C173.092267,115.034133 174.30096,113.82544 174.30096,112.436827 C174.30096,111.048213 173.092267,109.95024 171.703653,109.95024 L171.703653,109.95024 Z M164.35,109.95024 C162.966,109.95024 161.863413,111.048213 161.863413,112.436827 C161.863413,113.82544 162.966,115.034133 164.35,115.034133 C165.738613,115.034133 166.947307,113.82544 166.947307,112.436827 C166.947307,111.048213 165.738613,109.95024 164.35,109.95024 L164.35,109.95024 Z M157.00096,109.95024 C155.612347,109.95024 154.514373,111.048213 154.514373,112.436827 C154.514373,113.82544 155.612347,115.034133 157.00096,115.034133 C158.38496,115.034133 159.593653,113.82544 159.593653,112.436827 C159.593653,111.048213 158.38496,109.95024 157.00096,109.95024 L157.00096,109.95024 Z M149.647307,109.95024 C148.258693,109.95024 147.16072,111.048213 147.16072,112.436827 C147.16072,113.82544 148.258693,115.034133 149.647307,115.034133 C151.03592,115.034133 152.24,113.82544 152.24,112.436827 C152.24,111.048213 151.03592,109.95024 149.647307,109.95024 L149.647307,109.95024 Z M134.94,109.95024 C133.556,109.95024 132.453413,111.048213 132.453413,112.436827 C132.453413,113.82544 133.556,115.034133 134.94,115.034133 C136.328613,115.034133 137.426587,113.82544 137.426587,112.436827 C137.426587,111.048213 136.328613,109.95024 134.94,109.95024 L134.94,109.95024 Z M83.4736533,109.95024 C82.08504,109.95024 80.88096,111.048213 80.88096,112.436827 C80.88096,113.82544 82.08504,115.034133 83.4736533,115.034133 C84.8622667,115.034133 85.96024,113.82544 85.96024,112.436827 C85.96024,111.048213 84.8622667,109.95024 83.4736533,109.95024 L83.4736533,109.95024 Z M76.12,109.95024 C74.736,109.95024 73.5273067,111.048213 73.5273067,112.436827 C73.5273067,113.82544 74.736,115.034133 76.12,115.034133 C77.5086133,115.034133 78.6065867,113.82544 78.6065867,112.436827 C78.6065867,111.048213 77.5086133,109.95024 76.12,109.95024 L76.12,109.95024 Z M61.4173067,109.95024 C60.0286933,109.95024 58.82,111.048213 58.82,112.436827 C58.82,113.82544 60.0286933,115.034133 61.4173067,115.034133 C62.80592,115.034133 63.9038933,113.82544 63.9038933,112.436827 C63.9038933,111.048213 62.80592,109.95024 61.4173067,109.95024 L61.4173067,109.95024 Z M54.0636533,109.95024 C52.67504,109.95024 51.47096,111.048213 51.47096,112.436827 C51.47096,113.82544 52.67504,115.034133 54.0636533,115.034133 C55.4522667,115.034133 56.55024,113.82544 56.55024,112.436827 C56.55024,111.048213 55.4522667,109.95024 54.0636533,109.95024 L54.0636533,109.95024 Z M46.71,109.95024 C45.326,109.95024 44.1173067,111.048213 44.1173067,112.436827 C44.1173067,113.82544 45.326,115.034133 46.71,115.034133 C48.0986133,115.034133 49.1965867,113.82544 49.1965867,112.436827 C49.1965867,111.048213 48.0986133,109.95024 46.71,109.95024 L46.71,109.95024 Z M39.36096,109.95024 C37.9723467,109.95024 36.7636533,111.048213 36.7636533,112.436827 C36.7636533,113.82544 37.9723467,115.034133 39.36096,115.034133 C40.74496,115.034133 41.8475467,113.82544 41.8475467,112.436827 C41.8475467,111.048213 40.74496,109.95024 39.36096,109.95024 L39.36096,109.95024 Z M32.0073067,109.95024 C30.6186933,109.95024 29.41,111.048213 29.41,112.436827 C29.41,113.82544 30.6186933,115.034133 32.0073067,115.034133 C33.39592,115.034133 34.4938933,113.82544 34.4938933,112.436827 C34.4938933,111.048213 33.39592,109.95024 32.0073067,109.95024 L32.0073067,109.95024 Z M2.48658667,109.95024 C1.10258667,109.95024 0,111.048213 0,112.436827 C0,113.82544 1.10258667,115.034133 2.48658667,115.034133 C3.8752,115.034133 5.08389333,113.82544 5.08389333,112.436827 C5.08389333,111.048213 3.8752,109.95024 2.48658667,109.95024 L2.48658667,109.95024 Z M282.10072,102.596587 C280.712107,102.596587 279.503413,103.80528 279.503413,105.193893 C279.503413,106.582507 280.712107,107.68048 282.10072,107.68048 C283.489333,107.68048 284.587307,106.582507 284.587307,105.193893 C284.587307,103.80528 283.489333,102.596587 282.10072,102.596587 L282.10072,102.596587 Z M274.747067,102.596587 C273.358453,102.596587 272.154373,103.80528 272.154373,105.193893 C272.154373,106.582507 273.358453,107.68048 274.747067,107.68048 C276.13568,107.68048 277.233653,106.582507 277.233653,105.193893 C277.233653,103.80528 276.13568,102.596587 274.747067,102.596587 L274.747067,102.596587 Z M267.393413,102.596587 C266.009413,102.596587 264.80072,103.80528 264.80072,105.193893 C264.80072,106.582507 266.009413,107.68048 267.393413,107.68048 C268.782027,107.68048 269.88,106.582507 269.88,105.193893 C269.88,103.80528 268.782027,102.596587 267.393413,102.596587 L267.393413,102.596587 Z M260.044373,102.596587 C258.65576,102.596587 257.447067,103.80528 257.447067,105.193893 C257.447067,106.582507 258.65576,107.68048 260.044373,107.68048 C261.428373,107.68048 262.53096,106.582507 262.53096,105.193893 C262.53096,103.80528 261.428373,102.596587 260.044373,102.596587 L260.044373,102.596587 Z M252.69072,102.596587 C251.302107,102.596587 250.093413,103.80528 250.093413,105.193893 C250.093413,106.582507 251.302107,107.68048 252.69072,107.68048 C254.079333,107.68048 255.177307,106.582507 255.177307,105.193893 C255.177307,103.80528 254.079333,102.596587 252.69072,102.596587 L252.69072,102.596587 Z M245.337067,102.596587 C243.948453,102.596587 242.744373,103.80528 242.744373,105.193893 C242.744373,106.582507 243.948453,107.68048 245.337067,107.68048 C246.72568,107.68048 247.823653,106.582507 247.823653,105.193893 C247.823653,103.80528 246.72568,102.596587 245.337067,102.596587 L245.337067,102.596587 Z M237.983413,102.596587 C236.599413,102.596587 235.39072,103.80528 235.39072,105.193893 C235.39072,106.582507 236.599413,107.68048 237.983413,107.68048 C239.372027,107.68048 240.47,106.582507 240.47,105.193893 C240.47,103.80528 239.372027,102.596587 237.983413,102.596587 L237.983413,102.596587 Z M230.634373,102.596587 C229.24576,102.596587 228.037067,103.80528 228.037067,105.193893 C228.037067,106.582507 229.24576,107.68048 230.634373,107.68048 C232.018373,107.68048 233.12096,106.582507 233.12096,105.193893 C233.12096,103.80528 232.018373,102.596587 230.634373,102.596587 L230.634373,102.596587 Z M223.28072,102.596587 C221.892107,102.596587 220.683413,103.80528 220.683413,105.193893 C220.683413,106.582507 221.892107,107.68048 223.28072,107.68048 C224.669333,107.68048 225.767307,106.582507 225.767307,105.193893 C225.767307,103.80528 224.669333,102.596587 223.28072,102.596587 L223.28072,102.596587 Z M215.927067,102.596587 C214.538453,102.596587 213.334373,103.80528 213.334373,105.193893 C213.334373,106.582507 214.538453,107.68048 215.927067,107.68048 C217.31568,107.68048 218.413653,106.582507 218.413653,105.193893 C218.413653,103.80528 217.31568,102.596587 215.927067,102.596587 L215.927067,102.596587 Z M208.467307,102.596587 C207.078693,102.596587 205.98072,103.80528 205.98072,105.193893 C205.98072,106.582507 207.078693,107.68048 208.467307,107.68048 C209.85592,107.68048 211.06,106.582507 211.06,105.193893 C211.06,103.80528 209.85592,102.596587 208.467307,102.596587 L208.467307,102.596587 Z M201.113653,102.596587 C199.72504,102.596587 198.627067,103.80528 198.627067,105.193893 C198.627067,106.582507 199.72504,107.68048 201.113653,107.68048 C202.502267,107.68048 203.71096,106.582507 203.71096,105.193893 C203.71096,103.80528 202.502267,102.596587 201.113653,102.596587 L201.113653,102.596587 Z M193.76,102.596587 C192.376,102.596587 191.273413,103.80528 191.273413,105.193893 C191.273413,106.582507 192.376,107.68048 193.76,107.68048 C195.148613,107.68048 196.357307,106.582507 196.357307,105.193893 C196.357307,103.80528 195.148613,102.596587 193.76,102.596587 L193.76,102.596587 Z M186.41096,102.596587 C185.022347,102.596587 183.924373,103.80528 183.924373,105.193893 C183.924373,106.582507 185.022347,107.68048 186.41096,107.68048 C187.79496,107.68048 189.003653,106.582507 189.003653,105.193893 C189.003653,103.80528 187.79496,102.596587 186.41096,102.596587 L186.41096,102.596587 Z M179.057307,102.596587 C177.668693,102.596587 176.57072,103.80528 176.57072,105.193893 C176.57072,106.582507 177.668693,107.68048 179.057307,107.68048 C180.44592,107.68048 181.65,106.582507 181.65,105.193893 C181.65,103.80528 180.44592,102.596587 179.057307,102.596587 L179.057307,102.596587 Z M171.703653,102.596587 C170.31504,102.596587 169.217067,103.80528 169.217067,105.193893 C169.217067,106.582507 170.31504,107.68048 171.703653,107.68048 C173.092267,107.68048 174.30096,106.582507 174.30096,105.193893 C174.30096,103.80528 173.092267,102.596587 171.703653,102.596587 L171.703653,102.596587 Z M164.35,102.596587 C162.966,102.596587 161.863413,103.80528 161.863413,105.193893 C161.863413,106.582507 162.966,107.68048 164.35,107.68048 C165.738613,107.68048 166.947307,106.582507 166.947307,105.193893 C166.947307,103.80528 165.738613,102.596587 164.35,102.596587 L164.35,102.596587 Z M157.00096,102.596587 C155.612347,102.596587 154.514373,103.80528 154.514373,105.193893 C154.514373,106.582507 155.612347,107.68048 157.00096,107.68048 C158.38496,107.68048 159.593653,106.582507 159.593653,105.193893 C159.593653,103.80528 158.38496,102.596587 157.00096,102.596587 L157.00096,102.596587 Z M149.647307,102.596587 C148.258693,102.596587 147.16072,103.80528 147.16072,105.193893 C147.16072,106.582507 148.258693,107.68048 149.647307,107.68048 C151.03592,107.68048 152.24,106.582507 152.24,105.193893 C152.24,103.80528 151.03592,102.596587 149.647307,102.596587 L149.647307,102.596587 Z M127.59096,102.596587 C127.24496,102.596587 126.922027,102.688853 126.617547,102.813413 C125.713333,103.191707 125.104373,104.146667 125.104373,105.193893 C125.104373,106.582507 126.202347,107.68048 127.59096,107.68048 C128.97496,107.68048 130.077547,106.582507 130.077547,105.193893 C130.077547,103.80528 128.97496,102.596587 127.59096,102.596587 L127.59096,102.596587 Z M98.18096,102.596587 C96.7923467,102.596587 95.6943733,103.80528 95.6943733,105.193893 C95.6943733,106.582507 96.7923467,107.68048 98.18096,107.68048 C99.56496,107.68048 100.667547,106.582507 100.667547,105.193893 C100.667547,103.80528 99.56496,102.596587 98.18096,102.596587 L98.18096,102.596587 Z M90.8273067,102.596587 C89.4386933,102.596587 88.23,103.80528 88.23,105.193893 C88.23,106.582507 89.4386933,107.68048 90.8273067,107.68048 C92.21592,107.68048 93.3138933,106.582507 93.3138933,105.193893 C93.3138933,103.80528 92.21592,102.596587 90.8273067,102.596587 L90.8273067,102.596587 Z M68.77096,102.596587 C67.3823467,102.596587 66.1736533,103.80528 66.1736533,105.193893 C66.1736533,106.582507 67.3823467,107.68048 68.77096,107.68048 C70.15496,107.68048 71.2575467,106.582507 71.2575467,105.193893 C71.2575467,103.80528 70.15496,102.596587 68.77096,102.596587 L68.77096,102.596587 Z M61.4173067,102.596587 C60.0286933,102.596587 58.82,103.80528 58.82,105.193893 C58.82,106.582507 60.0286933,107.68048 61.4173067,107.68048 C62.80592,107.68048 63.9038933,106.582507 63.9038933,105.193893 C63.9038933,103.80528 62.80592,102.596587 61.4173067,102.596587 L61.4173067,102.596587 Z M54.0636533,102.596587 C52.67504,102.596587 51.47096,103.80528 51.47096,105.193893 C51.47096,106.582507 52.67504,107.68048 54.0636533,107.68048 C55.4522667,107.68048 56.55024,106.582507 56.55024,105.193893 C56.55024,103.80528 55.4522667,102.596587 54.0636533,102.596587 L54.0636533,102.596587 Z M46.71,102.596587 C45.326,102.596587 44.1173067,103.80528 44.1173067,105.193893 C44.1173067,106.582507 45.326,107.68048 46.71,107.68048 C48.0986133,107.68048 49.1965867,106.582507 49.1965867,105.193893 C49.1965867,103.80528 48.0986133,102.596587 46.71,102.596587 L46.71,102.596587 Z M39.36096,102.596587 C37.9723467,102.596587 36.7636533,103.80528 36.7636533,105.193893 C36.7636533,106.582507 37.9723467,107.68048 39.36096,107.68048 C40.74496,107.68048 41.8475467,106.582507 41.8475467,105.193893 C41.8475467,103.80528 40.74496,102.596587 39.36096,102.596587 L39.36096,102.596587 Z M32.0073067,102.596587 C30.6186933,102.596587 29.41,103.80528 29.41,105.193893 C29.41,106.582507 30.6186933,107.68048 32.0073067,107.68048 C33.39592,107.68048 34.4938933,106.582507 34.4938933,105.193893 C34.4938933,103.80528 33.39592,102.596587 32.0073067,102.596587 L32.0073067,102.596587 Z M24.6536533,102.596587 C23.26504,102.596587 22.06096,103.80528 22.06096,105.193893 C22.06096,106.582507 23.26504,107.68048 24.6536533,107.68048 C26.0422667,107.68048 27.14024,106.582507 27.14024,105.193893 C27.14024,103.80528 26.0422667,102.596587 24.6536533,102.596587 L24.6536533,102.596587 Z M17.3,102.596587 C15.916,102.596587 14.7073067,103.80528 14.7073067,105.193893 C14.7073067,106.582507 15.916,107.68048 17.3,107.68048 C18.6886133,107.68048 19.7865867,106.582507 19.7865867,105.193893 C19.7865867,103.80528 18.6886133,102.596587 17.3,102.596587 L17.3,102.596587 Z M9.84024,102.596587 C8.45162667,102.596587 7.35365333,103.80528 7.35365333,105.193893 C7.35365333,106.582507 8.45162667,107.68048 9.84024,107.68048 C11.2288533,107.68048 12.4375467,106.582507 12.4375467,105.193893 C12.4375467,103.80528 11.2288533,102.596587 9.84024,102.596587 L9.84024,102.596587 Z M289.454373,95.3536533 C288.06576,95.3536533 286.857067,96.4516267 286.857067,97.84024 C286.857067,99.2288533 288.06576,100.326827 289.454373,100.326827 C290.838373,100.326827 291.94096,99.2288533 291.94096,97.84024 C291.94096,96.4516267 290.838373,95.3536533 289.454373,95.3536533 L289.454373,95.3536533 Z M282.10072,95.3536533 C280.712107,95.3536533 279.503413,96.4516267 279.503413,97.84024 C279.503413,99.2288533 280.712107,100.326827 282.10072,100.326827 C283.489333,100.326827 284.587307,99.2288533 284.587307,97.84024 C284.587307,96.4516267 283.489333,95.3536533 282.10072,95.3536533 L282.10072,95.3536533 Z M274.747067,95.3536533 C273.358453,95.3536533 272.154373,96.4516267 272.154373,97.84024 C272.154373,99.2288533 273.358453,100.326827 274.747067,100.326827 C276.13568,100.326827 277.233653,99.2288533 277.233653,97.84024 C277.233653,96.4516267 276.13568,95.3536533 274.747067,95.3536533 L274.747067,95.3536533 Z M267.393413,95.3536533 C266.009413,95.3536533 264.80072,96.4516267 264.80072,97.84024 C264.80072,99.2288533 266.009413,100.326827 267.393413,100.326827 C268.782027,100.326827 269.88,99.2288533 269.88,97.84024 C269.88,96.4516267 268.782027,95.3536533 267.393413,95.3536533 L267.393413,95.3536533 Z M260.044373,95.3536533 C258.65576,95.3536533 257.447067,96.4516267 257.447067,97.84024 C257.447067,99.2288533 258.65576,100.326827 260.044373,100.326827 C261.428373,100.326827 262.53096,99.2288533 262.53096,97.84024 C262.53096,96.4516267 261.428373,95.3536533 260.044373,95.3536533 L260.044373,95.3536533 Z M252.69072,95.3536533 C251.302107,95.3536533 250.093413,96.4516267 250.093413,97.84024 C250.093413,99.2288533 251.302107,100.326827 252.69072,100.326827 C254.079333,100.326827 255.177307,99.2288533 255.177307,97.84024 C255.177307,96.4516267 254.079333,95.3536533 252.69072,95.3536533 L252.69072,95.3536533 Z M245.337067,95.3536533 C243.948453,95.3536533 242.744373,96.4516267 242.744373,97.84024 C242.744373,99.2288533 243.948453,100.326827 245.337067,100.326827 C246.72568,100.326827 247.823653,99.2288533 247.823653,97.84024 C247.823653,96.4516267 246.72568,95.3536533 245.337067,95.3536533 L245.337067,95.3536533 Z M237.983413,95.3536533 C236.599413,95.3536533 235.39072,96.4516267 235.39072,97.84024 C235.39072,99.2288533 236.599413,100.326827 237.983413,100.326827 C239.372027,100.326827 240.47,99.2288533 240.47,97.84024 C240.47,96.4516267 239.372027,95.3536533 237.983413,95.3536533 L237.983413,95.3536533 Z M230.634373,95.3536533 C229.24576,95.3536533 228.037067,96.4516267 228.037067,97.84024 C228.037067,99.2288533 229.24576,100.326827 230.634373,100.326827 C232.018373,100.326827 233.12096,99.2288533 233.12096,97.84024 C233.12096,96.4516267 232.018373,95.3536533 230.634373,95.3536533 L230.634373,95.3536533 Z M223.28072,95.3536533 C221.892107,95.3536533 220.683413,96.4516267 220.683413,97.84024 C220.683413,99.2288533 221.892107,100.326827 223.28072,100.326827 C224.669333,100.326827 225.767307,99.2288533 225.767307,97.84024 C225.767307,96.4516267 224.669333,95.3536533 223.28072,95.3536533 L223.28072,95.3536533 Z M215.927067,95.3536533 C214.538453,95.3536533 213.334373,96.4516267 213.334373,97.84024 C213.334373,99.2288533 214.538453,100.326827 215.927067,100.326827 C217.31568,100.326827 218.413653,99.2288533 218.413653,97.84024 C218.413653,96.4516267 217.31568,95.3536533 215.927067,95.3536533 L215.927067,95.3536533 Z M208.467307,95.3536533 C207.078693,95.3536533 205.98072,96.4516267 205.98072,97.84024 C205.98072,99.2288533 207.078693,100.326827 208.467307,100.326827 C209.85592,100.326827 211.06,99.2288533 211.06,97.84024 C211.06,96.4516267 209.85592,95.3536533 208.467307,95.3536533 L208.467307,95.3536533 Z M201.113653,95.3536533 C199.72504,95.3536533 198.627067,96.4516267 198.627067,97.84024 C198.627067,99.2288533 199.72504,100.326827 201.113653,100.326827 C202.502267,100.326827 203.71096,99.2288533 203.71096,97.84024 C203.71096,96.4516267 202.502267,95.3536533 201.113653,95.3536533 L201.113653,95.3536533 Z M193.76,95.3536533 C192.376,95.3536533 191.273413,96.4516267 191.273413,97.84024 C191.273413,99.2288533 192.376,100.326827 193.76,100.326827 C195.148613,100.326827 196.357307,99.2288533 196.357307,97.84024 C196.357307,96.4516267 195.148613,95.3536533 193.76,95.3536533 L193.76,95.3536533 Z M186.41096,95.3536533 C185.022347,95.3536533 183.924373,96.4516267 183.924373,97.84024 C183.924373,99.2288533 185.022347,100.326827 186.41096,100.326827 C187.79496,100.326827 189.003653,99.2288533 189.003653,97.84024 C189.003653,96.4516267 187.79496,95.3536533 186.41096,95.3536533 L186.41096,95.3536533 Z M179.057307,95.3536533 C177.668693,95.3536533 176.57072,96.4516267 176.57072,97.84024 C176.57072,99.2288533 177.668693,100.326827 179.057307,100.326827 C180.44592,100.326827 181.65,99.2288533 181.65,97.84024 C181.65,96.4516267 180.44592,95.3536533 179.057307,95.3536533 L179.057307,95.3536533 Z M164.35,95.3536533 C162.966,95.3536533 161.863413,96.4516267 161.863413,97.84024 C161.863413,99.2288533 162.966,100.326827 164.35,100.326827 C165.738613,100.326827 166.947307,99.2288533 166.947307,97.84024 C166.947307,96.4516267 165.738613,95.3536533 164.35,95.3536533 L164.35,95.3536533 Z M157.00096,95.3536533 C155.612347,95.3536533 154.514373,96.4516267 154.514373,97.84024 C154.514373,99.2288533 155.612347,100.326827 157.00096,100.326827 C158.38496,100.326827 159.593653,99.2288533 159.593653,97.84024 C159.593653,96.4516267 158.38496,95.3536533 157.00096,95.3536533 L157.00096,95.3536533 Z M120.237307,95.3536533 C118.848693,95.3536533 117.75072,96.4516267 117.75072,97.84024 C117.75072,99.2288533 118.848693,100.326827 120.237307,100.326827 C121.62592,100.326827 122.723893,99.2288533 122.723893,97.84024 C122.723893,96.4516267 121.62592,95.3536533 120.237307,95.3536533 L120.237307,95.3536533 Z M112.883653,95.3536533 C111.49504,95.3536533 110.397067,96.4516267 110.397067,97.84024 C110.397067,99.2288533 111.49504,100.326827 112.883653,100.326827 C114.272267,100.326827 115.37024,99.2288533 115.37024,97.84024 C115.37024,96.4516267 114.272267,95.3536533 112.883653,95.3536533 L112.883653,95.3536533 Z M105.53,95.3536533 C104.146,95.3536533 103.043413,96.4516267 103.043413,97.84024 C103.043413,99.2288533 104.146,100.326827 105.53,100.326827 C106.918613,100.326827 108.016587,99.2288533 108.016587,97.84024 C108.016587,96.4516267 106.918613,95.3536533 105.53,95.3536533 L105.53,95.3536533 Z M98.18096,95.3536533 C96.7923467,95.3536533 95.6943733,96.4516267 95.6943733,97.84024 C95.6943733,99.2288533 96.7923467,100.326827 98.18096,100.326827 C99.56496,100.326827 100.667547,99.2288533 100.667547,97.84024 C100.667547,96.4516267 99.56496,95.3536533 98.18096,95.3536533 L98.18096,95.3536533 Z M90.8273067,95.3536533 C89.4386933,95.3536533 88.23,96.4516267 88.23,97.84024 C88.23,99.2288533 89.4386933,100.326827 90.8273067,100.326827 C92.21592,100.326827 93.3138933,99.2288533 93.3138933,97.84024 C93.3138933,96.4516267 92.21592,95.3536533 90.8273067,95.3536533 L90.8273067,95.3536533 Z M83.4736533,95.3536533 C82.08504,95.3536533 80.88096,96.4516267 80.88096,97.84024 C80.88096,99.2288533 82.08504,100.326827 83.4736533,100.326827 C84.8622667,100.326827 85.96024,99.2288533 85.96024,97.84024 C85.96024,96.4516267 84.8622667,95.3536533 83.4736533,95.3536533 L83.4736533,95.3536533 Z M76.12,95.3536533 C74.736,95.3536533 73.5273067,96.4516267 73.5273067,97.84024 C73.5273067,99.2288533 74.736,100.326827 76.12,100.326827 C77.5086133,100.326827 78.6065867,99.2288533 78.6065867,97.84024 C78.6065867,96.4516267 77.5086133,95.3536533 76.12,95.3536533 L76.12,95.3536533 Z M68.77096,95.3536533 C67.3823467,95.3536533 66.1736533,96.4516267 66.1736533,97.84024 C66.1736533,99.2288533 67.3823467,100.326827 68.77096,100.326827 C70.15496,100.326827 71.2575467,99.2288533 71.2575467,97.84024 C71.2575467,96.4516267 70.15496,95.3536533 68.77096,95.3536533 L68.77096,95.3536533 Z M61.4173067,95.3536533 C60.0286933,95.3536533 58.82,96.4516267 58.82,97.84024 C58.82,99.2288533 60.0286933,100.326827 61.4173067,100.326827 C62.80592,100.326827 63.9038933,99.2288533 63.9038933,97.84024 C63.9038933,96.4516267 62.80592,95.3536533 61.4173067,95.3536533 L61.4173067,95.3536533 Z M54.0636533,95.3536533 C52.67504,95.3536533 51.47096,96.4516267 51.47096,97.84024 C51.47096,99.2288533 52.67504,100.326827 54.0636533,100.326827 C55.4522667,100.326827 56.55024,99.2288533 56.55024,97.84024 C56.55024,96.4516267 55.4522667,95.3536533 54.0636533,95.3536533 L54.0636533,95.3536533 Z M46.71,95.3536533 C45.326,95.3536533 44.1173067,96.4516267 44.1173067,97.84024 C44.1173067,99.2288533 45.326,100.326827 46.71,100.326827 C48.0986133,100.326827 49.1965867,99.2288533 49.1965867,97.84024 C49.1965867,96.4516267 48.0986133,95.3536533 46.71,95.3536533 L46.71,95.3536533 Z M39.36096,95.3536533 C37.9723467,95.3536533 36.7636533,96.4516267 36.7636533,97.84024 C36.7636533,99.2288533 37.9723467,100.326827 39.36096,100.326827 C40.74496,100.326827 41.8475467,99.2288533 41.8475467,97.84024 C41.8475467,96.4516267 40.74496,95.3536533 39.36096,95.3536533 L39.36096,95.3536533 Z M32.0073067,95.3536533 C30.6186933,95.3536533 29.41,96.4516267 29.41,97.84024 C29.41,99.2288533 30.6186933,100.326827 32.0073067,100.326827 C33.39592,100.326827 34.4938933,99.2288533 34.4938933,97.84024 C34.4938933,96.4516267 33.39592,95.3536533 32.0073067,95.3536533 L32.0073067,95.3536533 Z M24.6536533,95.3536533 C23.26504,95.3536533 22.06096,96.4516267 22.06096,97.84024 C22.06096,99.2288533 23.26504,100.326827 24.6536533,100.326827 C26.0422667,100.326827 27.14024,99.2288533 27.14024,97.84024 C27.14024,96.4516267 26.0422667,95.3536533 24.6536533,95.3536533 L24.6536533,95.3536533 Z M245.337067,88 C243.948453,88 242.744373,89.1025867 242.744373,90.4865867 C242.744373,91.8752 243.948453,93.0838933 245.337067,93.0838933 C246.72568,93.0838933 247.823653,91.8752 247.823653,90.4865867 C247.823653,89.1025867 246.72568,88 245.337067,88 L245.337067,88 Z M237.983413,88 C236.599413,88 235.39072,89.1025867 235.39072,90.4865867 C235.39072,91.8752 236.599413,93.0838933 237.983413,93.0838933 C239.372027,93.0838933 240.47,91.8752 240.47,90.4865867 C240.47,89.1025867 239.372027,88 237.983413,88 L237.983413,88 Z M230.634373,88 C229.24576,88 228.037067,89.1025867 228.037067,90.4865867 C228.037067,91.8752 229.24576,93.0838933 230.634373,93.0838933 C232.018373,93.0838933 233.12096,91.8752 233.12096,90.4865867 C233.12096,89.1025867 232.018373,88 230.634373,88 L230.634373,88 Z M223.28072,88 C221.892107,88 220.683413,89.1025867 220.683413,90.4865867 C220.683413,91.8752 221.892107,93.0838933 223.28072,93.0838933 C224.669333,93.0838933 225.767307,91.8752 225.767307,90.4865867 C225.767307,89.1025867 224.669333,88 223.28072,88 L223.28072,88 Z M215.927067,88 C214.538453,88 213.334373,89.1025867 213.334373,90.4865867 C213.334373,91.8752 214.538453,93.0838933 215.927067,93.0838933 C217.31568,93.0838933 218.413653,91.8752 218.413653,90.4865867 C218.413653,89.1025867 217.31568,88 215.927067,88 L215.927067,88 Z M208.467307,88 C207.078693,88 205.98072,89.1025867 205.98072,90.4865867 C205.98072,91.8752 207.078693,93.0838933 208.467307,93.0838933 C209.85592,93.0838933 211.06,91.8752 211.06,90.4865867 C211.06,89.1025867 209.85592,88 208.467307,88 L208.467307,88 Z M127.59096,88 C126.202347,88 125.104373,89.1025867 125.104373,90.4865867 C125.104373,91.8752 126.202347,93.0838933 127.59096,93.0838933 C128.97496,93.0838933 130.077547,91.8752 130.077547,90.4865867 C130.077547,89.1025867 128.97496,88 127.59096,88 L127.59096,88 Z M120.237307,88 C118.848693,88 117.75072,89.1025867 117.75072,90.4865867 C117.75072,91.8752 118.848693,93.0838933 120.237307,93.0838933 C121.62592,93.0838933 122.723893,91.8752 122.723893,90.4865867 C122.723893,89.1025867 121.62592,88 120.237307,88 L120.237307,88 Z M112.883653,88 C111.49504,88 110.397067,89.1025867 110.397067,90.4865867 C110.397067,91.8752 111.49504,93.0838933 112.883653,93.0838933 C114.272267,93.0838933 115.37024,91.8752 115.37024,90.4865867 C115.37024,89.1025867 114.272267,88 112.883653,88 L112.883653,88 Z M105.53,88 C104.146,88 103.043413,89.1025867 103.043413,90.4865867 C103.043413,91.8752 104.146,93.0838933 105.53,93.0838933 C106.918613,93.0838933 108.016587,91.8752 108.016587,90.4865867 C108.016587,89.1025867 106.918613,88 105.53,88 L105.53,88 Z M98.18096,88 C96.7923467,88 95.6943733,89.1025867 95.6943733,90.4865867 C95.6943733,91.8752 96.7923467,93.0838933 98.18096,93.0838933 C99.56496,93.0838933 100.667547,91.8752 100.667547,90.4865867 C100.667547,89.1025867 99.56496,88 98.18096,88 L98.18096,88 Z M90.8273067,88 C89.4386933,88 88.23,89.1025867 88.23,90.4865867 C88.23,91.8752 89.4386933,93.0838933 90.8273067,93.0838933 C92.21592,93.0838933 93.3138933,91.8752 93.3138933,90.4865867 C93.3138933,89.1025867 92.21592,88 90.8273067,88 L90.8273067,88 Z" id="Page-1" sketch:type="MSShapeGroup"></path>
        </g>
    </g>
</svg>