<?xml version="1.0" encoding="UTF-8" standalone="no"?>
<svg width="150px" height="60px" viewBox="0 0 150 60" version="1.1" xmlns="http://www.w3.org/2000/svg" xmlns:xlink="http://www.w3.org/1999/xlink" xmlns:sketch="http://www.bohemiancoding.com/sketch/ns">
    <!-- Generator: Sketch 3.3.3 (12081) - http://www.bohemiancoding.com/sketch -->
    <title>logo4</title>
    <desc>Created with Sketch.</desc>
    <defs></defs>
    <g id="Page-1" stroke="none" stroke-width="1" fill="none" fill-rule="evenodd" sketch:type="MSPage">
        <g id="logo4" sketch:type="MSArtboardGroup" fill="#FFFFFF">
            <path d="M114.036815,47.1202894 C113.940164,47.25254 113.661358,47.4074514 113.442022,47.4074514 C113.319428,47.4074514 113.326827,47.3469914 113.274756,47.3206156 C113.248812,47.3091922 113.237667,47.2790086 113.237667,47.2487322 C113.237667,47.1845572 113.293392,47.1732268 113.326827,47.0673521 C112.627984,47.1051512 111.910597,47.7022289 111.910597,47.8269568 C111.910597,47.9705378 112.535079,47.925216 113.174452,48.2275162 C113.404933,48.3371058 113.520128,48.5676156 113.520128,48.7074816 C113.520128,49.3876803 112.360414,49.8147084 111.743331,49.8147084 C111.24729,49.8147084 111.066504,49.597108 111.040834,49.4121987 C110.794823,49.614568 110.494001,49.8071857 110.185871,49.8071857 C109.88852,49.7995702 109.561389,49.5652527 109.561389,49.1949698 C109.561389,48.7150043 109.966535,48.0764125 110.278776,47.6077775 C110.315956,47.5511253 110.464677,47.3281382 110.475822,47.25254 L110.468331,47.2450173 C110.275122,47.2600626 109.267783,48.3371058 109.081882,48.5449546 C108.803076,48.8585853 108.550305,49.1873542 108.305024,49.5199309 C108.252954,49.5880065 108.160049,49.6824579 108.070798,49.6824579 C108.007674,49.6824579 107.773447,49.5880065 107.728867,49.5502073 C107.702832,49.5350691 107.702832,49.5124082 107.702832,49.4897473 C107.702832,49.4891901 107.702923,49.4886328 107.702923,49.4880756 C107.239677,49.7985486 106.657308,50.230406 106.249421,50.7292246 C105.83313,51.2393737 105.591504,51.5870886 105.450274,51.8327365 C105.387058,51.946041 105.260719,51.9951706 105.126888,51.9951706 C104.866626,51.9951706 104.729141,51.8477819 104.729141,51.5908035 C104.729141,50.8576674 105.836876,50.1283391 105.944671,49.9922808 C106.011541,49.8903067 106.011541,49.9129676 106.691748,48.801933 C106.126736,49.4028186 105.580359,49.7353952 105.349878,49.7353952 C105.12972,49.7353952 104.919976,49.6821793 104.828806,49.4867754 C104.539038,49.710041 104.188611,49.8298467 103.933648,49.8298467 C103.599117,49.8298467 103.257186,49.5124082 103.257186,49.1798315 C103.257186,48.801933 104.074878,47.5926393 104.074878,47.5321793 C104.074878,47.4452505 103.922503,47.3697451 103.922503,47.2828164 C103.922503,47.2223564 104.49866,46.5798639 104.818301,46.5798639 C104.940987,46.5798639 105.093453,46.7650518 105.093453,46.8821641 C105.093453,46.9615702 104.316504,48.3257754 104.208709,48.5147711 C104.119549,48.6658747 103.929994,48.9379914 103.929994,49.1193715 C103.929994,49.2251533 104.026553,49.2478143 104.119549,49.2478143 C104.374513,49.2478143 104.641352,49.0025378 104.845798,48.7900454 C105.17841,47.6133499 106.713398,46.640324 107.450061,46.640324 C107.628471,46.640324 107.740012,46.7121145 107.777192,46.7877127 C107.948203,46.5950022 108.145158,46.6025248 108.342205,46.6025248 C108.442509,46.6025248 108.442509,46.71973 108.47229,46.7953283 C108.476035,46.802851 108.476035,46.8066587 108.476035,46.8141814 C108.476035,46.863311 108.397929,46.9162484 108.386784,46.9351015 C107.955603,47.5624557 107.3757,48.4693564 106.706638,49.6673197 C106.949726,49.4488834 107.516657,48.9352052 108.179598,48.5797819 C108.417661,48.1658488 108.658648,47.7563737 108.899726,47.3469914 C109.007521,47.1656112 109.096772,46.9767084 109.226857,46.8103737 C109.353197,46.6479395 109.594823,46.5950022 109.79187,46.5950022 C109.87363,46.5950022 109.881029,46.6781231 109.881029,46.7423909 C109.881029,46.9199633 109.509318,47.4377279 109.401523,47.6153002 C109.758435,47.2147408 110.330847,46.6025248 110.903258,46.6025248 C111.092814,46.6025248 111.25268,46.7348683 111.25268,46.9427171 C111.25268,47.1732268 110.802954,47.7853499 110.657978,48.0121447 C110.535292,48.2048553 110.119001,48.8322095 110.119001,49.0929028 C110.119001,49.2138229 110.234196,49.2592376 110.341991,49.2592376 C110.695158,49.2592376 111.297259,48.4844946 111.405055,48.4844946 C111.509196,48.4844946 111.501705,48.7566112 111.501705,48.824594 C111.501705,48.8396393 111.500974,48.8544989 111.499695,48.8693585 C111.514586,48.8809676 111.523995,48.8965702 111.523995,48.9190454 C111.523995,48.9379914 111.520341,48.9606523 111.520341,48.9795054 C111.520341,49.1193715 111.654172,49.210108 111.721041,49.210108 C112.345524,49.210108 112.85472,48.9719827 112.85472,48.801933 C112.85472,48.6621598 112.345524,48.6054147 111.858618,48.4580259 C111.609501,48.3824276 111.33444,48.2691231 111.33444,47.9327387 C111.33444,47.0220302 113.022077,46.4476134 113.586998,46.4476134 C114.133465,46.4476134 114.125974,46.7045918 114.125974,46.7725745 L114.125974,46.7990432 C114.125974,46.9199633 114.081395,47.0598294 114.036815,47.1202894 L114.036815,47.1202894 Z M107.565256,47.0673521 C106.037576,47.4074514 105.372168,48.7944104 105.372168,49.108041 C105.372168,49.1496479 105.383313,49.1723089 105.405603,49.1723089 C105.494854,49.1723089 106.346072,48.6130302 107.565256,47.0673521 L107.565256,47.0673521 Z M105.268118,46.1754968 C105.123143,46.1754968 105.048782,46.0999914 105.048782,45.9526026 C105.048782,45.6503024 105.346133,45.3101102 105.650974,45.3101102 C105.784805,45.3101102 105.870311,45.3857084 105.870311,45.5255745 C105.870311,45.8052138 105.550579,46.1754968 105.268118,46.1754968 L105.268118,46.1754968 Z M102.97838,47.4074514 C102.855694,47.4074514 102.863094,47.3469914 102.811114,47.3206156 C102.785079,47.3091922 102.773934,47.2790086 102.773934,47.2487322 C102.773934,47.1845572 102.829659,47.1732268 102.863094,47.0673521 C102.164342,47.1051512 101.446955,47.7022289 101.446955,47.8269568 C101.446955,47.9705378 102.071346,47.925216 102.710719,48.2275162 C102.9412,48.3371058 103.056395,48.5676156 103.056395,48.7074816 C103.056395,49.3876803 101.896681,49.8147084 101.279598,49.8147084 C100.740621,49.8147084 100.573356,49.55773 100.573356,49.3650194 C100.573356,49.3062311 100.580847,49.2484644 100.593544,49.1938553 C100.236541,49.4827819 99.7062424,49.8222311 99.1236906,49.8222311 C98.6813642,49.8222311 98.1014616,49.6824579 98.1014616,49.1268942 C98.1014616,48.7074816 98.462028,48.4693564 98.8114495,48.3371058 C98.6070037,48.2426544 98.5884592,48.0952657 98.5884592,47.8949395 C98.5884592,47.150473 99.8225335,46.6176631 100.454415,46.6176631 C100.584501,46.6176631 100.829872,46.6857387 100.829872,46.8481728 C100.829872,47.1845572 100.510231,47.475527 100.179354,47.475527 C100.060414,47.475527 100.045524,47.415067 100.045524,47.3054773 C100.045524,47.2676782 100.053015,47.2374017 100.060414,47.2072181 C99.9526188,47.2450173 99.8522229,47.2978618 99.7556638,47.3546069 C99.6329781,47.4225896 99.1236906,47.762689 99.1236906,47.9025551 C99.1236906,47.9327387 99.1831608,47.9327387 99.1980512,47.9327387 C99.3987515,47.9327387 99.5660171,47.8081037 99.7556638,47.8081037 C99.7779537,47.8081037 99.8076431,47.8081037 99.829933,47.8156263 C99.8931486,47.8496177 99.989799,48.0045292 99.989799,48.0649892 C99.989799,48.129257 99.908039,48.1935248 99.8597138,48.2351317 C99.7519184,48.3257754 99.6254872,48.3332981 99.5102923,48.3975659 C99.3579172,48.4844946 98.725944,48.8397322 98.725944,49.0097819 C98.725944,49.2742829 99.0233861,49.3045594 99.220341,49.3045594 C99.7630633,49.3045594 100.27975,48.7830799 100.621681,48.5222937 C100.643971,48.5071555 100.677497,48.4844946 100.707186,48.4844946 C100.803837,48.4844946 100.803837,48.7150043 100.803837,48.7830799 C100.803837,48.8075983 100.803471,48.8339741 100.802192,48.8605356 C100.82704,48.8474406 100.852619,48.8397322 100.878197,48.8397322 C100.971102,48.8397322 101.060353,48.8472549 101.060353,48.9190454 C101.060353,48.9379914 101.056608,48.9606523 101.056608,48.9795054 C101.056608,49.1193715 101.190438,49.210108 101.257308,49.210108 C101.88179,49.210108 102.391078,48.9719827 102.391078,48.801933 C102.391078,48.6621598 101.88179,48.6054147 101.394884,48.4580259 C101.145859,48.3824276 100.870798,48.2691231 100.870798,47.9327387 C100.870798,47.0220302 102.558343,46.4476134 103.123356,46.4476134 C103.669732,46.4476134 103.662333,46.7045918 103.662333,46.7725745 L103.662333,46.7990432 C103.662333,46.9199633 103.617753,47.0598294 103.573082,47.1202894 C103.476431,47.25254 103.197716,47.4074514 102.97838,47.4074514 L102.97838,47.4074514 Z M94.0535627,49.6748423 C93.2989951,49.6748423 93.3845006,49.5275464 93.2544153,49.4368099 C93.2023447,49.4028186 93.1837089,49.3120821 93.1837089,49.2176307 C93.1837089,49.1193715 93.2023447,49.0173045 93.2134896,48.9719827 C93.3845006,48.3447214 95.2764921,45.6275486 95.7039281,45.0380864 C95.726218,45.0078099 95.8192144,44.9776263 96.1239647,44.9549654 C96.3284105,44.9549654 96.3990256,44.9776263 96.3990256,45.0645551 C96.3990256,45.1060691 96.3730816,45.1551987 96.3136114,45.2383197 C95.9047199,45.8165443 93.9159866,48.9341836 93.9159866,48.9909287 C93.9159866,49.0249201 93.9718027,49.0400583 94.1279233,49.0400583 C95.9715895,49.0400583 98.034592,47.2072181 98.034592,46.1528359 C98.034592,45.4424536 97.3878197,44.8377603 96.2206151,44.8377603 C95.3582521,44.8377603 94.6259744,45.2346048 94.4029842,45.4121771 C94.3025883,45.4915832 94.261754,45.5444276 94.261754,45.578419 C94.261754,45.597365 94.2802984,45.6086955 94.3063337,45.6086955 C94.3769488,45.6086955 94.436419,45.578419 94.4661998,45.578419 C94.4884896,45.578419 94.4996346,45.5860346 94.4996346,45.5935572 C94.4996346,45.6048877 94.4773447,45.6238337 94.4326736,45.6503024 C94.3248782,45.7107624 94.3360231,45.7447538 94.265408,45.7900756 C94.0201279,45.9412721 93.9159866,45.9676479 93.8565164,45.9714557 C93.8193362,45.9714557 93.8007917,45.9601253 93.7785018,45.9601253 L93.7636114,45.9601253 C93.6744519,45.9601253 93.4736602,45.8883348 93.4736602,45.6503024 C93.4736602,45.0456091 94.60743,44.2558207 96.228106,44.2558207 C97.8599269,44.2558207 98.7631242,44.985149 98.7631242,45.9752635 C98.7631242,47.9327387 96.1016748,49.6748423 94.0535627,49.6748423 L94.0535627,49.6748423 Z M90.2100183,47.475527 C90.091078,47.475527 90.0762789,47.415067 90.0762789,47.3054773 C90.0762789,47.2676782 90.0836784,47.2374017 90.091078,47.2072181 C89.9832826,47.2450173 89.8829781,47.2978618 89.7863276,47.3546069 C89.6636419,47.4225896 89.1543544,47.762689 89.1543544,47.9025551 C89.1543544,47.9327387 89.2138246,47.9327387 89.228715,47.9327387 C89.4294153,47.9327387 89.5966809,47.8081037 89.7863276,47.8081037 C89.8086175,47.8081037 89.8383069,47.8081037 89.8605968,47.8156263 C89.9238124,47.8496177 90.0204629,48.0045292 90.0204629,48.0649892 C90.0204629,48.129257 89.9387028,48.1935248 89.8903776,48.2351317 C89.7825822,48.3257754 89.6562424,48.3332981 89.5409562,48.3975659 C89.388581,48.4844946 88.7566991,48.8397322 88.7566991,49.0097819 C88.7566991,49.2742829 89.0540499,49.3045594 89.2510049,49.3045594 C89.7937272,49.3045594 90.3104141,48.7830799 90.6523447,48.5222937 C90.6747259,48.5071555 90.7081608,48.4844946 90.7378502,48.4844946 C90.8345006,48.4844946 90.8345006,48.7150043 90.8345006,48.7830799 C90.8345006,48.8472549 90.8345006,48.9228531 90.8122107,48.987121 C90.7899208,49.047581 90.7155603,49.1193715 90.6598356,49.1646933 C90.3030146,49.4594708 89.7565469,49.8222311 89.1543544,49.8222311 C88.712028,49.8222311 88.1322168,49.6824579 88.1322168,49.1268942 C88.1322168,48.7074816 88.4927832,48.4693564 88.8421133,48.3371058 C88.6376675,48.2426544 88.619123,48.0952657 88.619123,47.8949395 C88.619123,47.150473 89.8531973,46.6176631 90.4850792,46.6176631 C90.6152558,46.6176631 90.8605359,46.6857387 90.8605359,46.8481728 C90.8605359,47.1845572 90.5408952,47.475527 90.2100183,47.475527 L90.2100183,47.475527 Z M87.9053898,48.1330648 C87.7456151,48.1330648 87.6601096,47.9894838 87.6601096,47.842095 C87.6601096,47.6229158 87.8050853,47.4074514 87.9351705,47.25254 L87.927771,47.2450173 C87.7344702,47.2600626 86.7271315,48.3371058 86.5412302,48.5449546 C86.2624239,48.8548704 86.0022533,49.1836393 85.7569732,49.5199309 C85.708648,49.5880065 85.6156516,49.6824579 85.5302375,49.6824579 C85.4856577,49.6824579 85.3527406,49.6355572 85.2649513,49.5946004 C85.0849878,49.7170994 84.8859318,49.8071857 84.6975639,49.8071857 C84.4745737,49.8071857 84.1548417,49.6748423 84.1548417,49.3196976 C84.1548417,49.1646933 84.1771315,48.9077149 84.3147077,48.6545443 C83.9503959,49.1193715 83.3408039,49.8298467 82.8686967,49.8298467 C82.6306334,49.8298467 82.4704019,49.6564536 82.4207065,49.4626285 C82.1851096,49.6456803 81.9019184,49.8185162 81.6346224,49.8185162 C81.5974421,49.8185162 81.5640073,49.8147084 81.5305725,49.8071857 C81.2372412,49.7515551 81.0529842,49.6325853 80.9846529,49.3558251 C80.6745128,49.6629546 80.2404994,49.8298467 79.9396772,49.8298467 C79.6911084,49.8298467 79.4387028,49.6545961 79.3251523,49.4282657 C79.0829781,49.6246911 78.7899208,49.8071857 78.4899208,49.8071857 C78.19257,49.7995702 77.8655298,49.5652527 77.8655298,49.1949698 C77.8655298,48.7150043 78.270676,48.0764125 78.5829172,47.6077775 C78.6200974,47.5511253 78.7687272,47.3281382 78.7798721,47.25254 L78.7724726,47.2450173 C78.5791717,47.2600626 77.5718331,48.3371058 77.3859318,48.5449546 C77.1072168,48.8585853 76.8544458,49.1873542 76.6090743,49.5199309 C76.557095,49.5880065 76.4640987,49.6824579 76.3749391,49.6824579 C76.3117235,49.6824579 76.0775883,49.5880065 76.0329172,49.5502073 C76.0068819,49.5350691 76.0068819,49.5124082 76.0068819,49.4897473 C76.0068819,49.3650194 76.1482034,49.1646933 76.2299635,49.0249201 C76.5496041,48.4580259 76.8767357,47.9025551 77.2038672,47.3469914 C77.3116626,47.1656112 77.4008222,46.9767084 77.5309074,46.8103737 C77.6573386,46.6479395 77.8989647,46.5950022 78.0959196,46.5950022 C78.1776797,46.5950022 78.1851705,46.6781231 78.1851705,46.7423909 C78.1851705,46.9199633 77.8134592,47.4377279 77.7056638,47.6153002 C78.0624848,47.2147408 78.6348965,46.6025248 79.2073995,46.6025248 C79.3969549,46.6025248 79.556821,46.7348683 79.556821,46.9427171 C79.556821,47.1732268 79.1070037,47.7853499 78.962028,48.0121447 C78.8393423,48.2048553 78.4230512,48.8322095 78.4230512,49.0929028 C78.4230512,49.2138229 78.538246,49.2592376 78.6460414,49.2592376 C78.8621803,49.2592376 79.1713155,48.9692894 79.4036236,48.7441663 C79.6373934,48.2443261 80.0809074,47.5767581 80.0809074,47.5321793 C80.0809074,47.4452505 79.9285323,47.3697451 79.9285323,47.2828164 C79.9285323,47.2223564 80.5045981,46.5798639 80.8243301,46.5798639 C80.9470158,46.5798639 81.099391,46.7650518 81.099391,46.8821641 C81.099391,46.9615702 80.3225335,48.3257754 80.2147381,48.5147711 C80.1254872,48.6658747 79.9359318,48.9379914 79.9359318,49.1193715 C79.9359318,49.2251533 80.0325822,49.2478143 80.1254872,49.2478143 C80.4994823,49.2478143 80.8988733,48.7204838 81.0892509,48.5426328 C81.3815773,47.7829352 82.0686358,46.649797 82.3297199,46.2397646 C82.3260658,46.2359568 81.7684531,46.3078402 81.6866931,46.3078402 L81.6532582,46.3078402 C81.5604446,46.3078402 81.3883374,46.2775637 81.3519793,46.166581 C81.3258526,46.172432 81.2998173,46.1754968 81.274056,46.1754968 C81.1290804,46.1754968 81.0548112,46.0999914 81.0548112,45.9526026 C81.0548112,45.6503024 81.352162,45.3101102 81.6569123,45.3101102 C81.790743,45.3101102 81.8762485,45.3857084 81.8762485,45.5255745 C81.8762485,45.5688531 81.8685749,45.6143607 81.8545067,45.6603326 C81.8826431,45.6509525 81.9081303,45.6445443 81.9283191,45.6426868 C82.0880938,45.6313564 82.2479598,45.6275486 82.4078258,45.6200259 C82.7572473,45.6048877 82.3929354,45.6200259 82.7423569,45.6048877 C82.9022229,45.3705702 83.0619976,45.1173996 83.251553,44.9058359 C83.2962241,44.8453758 83.3036236,44.8302376 83.3817296,44.8302376 C83.4411998,44.8302376 83.4969245,44.8075767 83.5563946,44.8075767 C83.6492996,44.8075767 83.6492996,44.8453758 83.7087698,44.8453758 C83.7534409,44.8453758 83.7942753,44.9058359 83.7942753,44.9473499 C83.7942753,45.0078099 83.4746346,45.4952981 83.4189099,45.5897495 C83.4672351,45.5860346 83.6976248,45.5670886 83.7868758,45.5670886 C83.8760353,45.5670886 83.9615408,45.5708963 83.9913216,45.5822268 C84.0804811,45.6200259 84.1065164,45.7220929 84.1882765,45.7825529 C84.2254568,45.8127365 84.2514921,45.8353974 84.2514921,45.8921425 C84.2514921,46.0432462 84.0656821,46.1037063 83.9541413,46.1150367 C83.6121194,46.149121 83.3445493,46.1868272 83.0025274,46.2057732 C82.7349574,46.6252786 81.6383678,48.5298164 81.5862972,48.9077149 C81.5788977,48.96446 81.5714982,49.0135896 81.5714982,49.0551037 C81.5714982,49.2024924 81.6346224,49.2402916 81.7535627,49.2402916 C81.97162,49.2402916 82.2975639,48.9584233 82.5396468,48.7388726 C82.7070037,48.2985637 82.9836175,47.8448812 83.0991778,47.638054 C83.4597442,46.9955616 83.5973203,46.71973 83.7980207,46.71973 C83.928106,46.71973 84.0507917,46.8897797 84.0507917,46.965378 C84.0507917,47.0976285 83.065743,48.7150043 83.065743,49.0437732 C83.065743,49.0815724 83.0768879,49.1005184 83.1066687,49.1005184 C83.3705847,49.1005184 84.7013094,47.5397948 84.8276492,47.2903391 C84.9726248,46.9993693 85.1287454,46.7915205 85.191961,46.7499136 C85.2476857,46.7121145 85.4372412,46.640324 85.6045067,46.6366091 C85.6231425,46.6366091 85.6454324,46.6366091 85.6639769,46.640324 C85.7011571,46.6479395 85.7494823,46.7612441 85.7494823,46.7990432 C85.7494823,46.8066587 85.7458283,46.8103737 85.7458283,46.8103737 C85.4260962,47.4377279 85.2514312,47.6947063 85.1621803,47.8798942 C85.0506395,48.1141188 84.7235993,48.7754644 84.7235993,49.0815724 C84.7235993,49.1798315 84.7570341,49.2402916 84.8425396,49.2402916 C85.0953106,49.2036069 85.4575213,48.7955248 85.6219549,48.6093153 C85.8655907,48.1852592 86.1123325,47.7661253 86.3590743,47.3469914 C86.4668697,47.1656112 86.5561206,46.9767084 86.6862058,46.8103737 C86.812637,46.6479395 87.0541717,46.5950022 87.251218,46.5950022 C87.3255786,46.5950022 87.3404689,46.6781231 87.3404689,46.7423909 C87.3404689,46.9199633 86.9687576,47.4377279 86.8609622,47.6153002 C87.2102923,47.2147408 87.7901949,46.6025248 88.3552071,46.6025248 C88.5522533,46.6025248 88.7046285,46.7348683 88.7046285,46.9427171 C88.7046285,47.1580886 88.2623021,47.8156263 88.1173264,48.0121447 C88.0652558,48.0801274 88.0020402,48.1330648 87.9053898,48.1330648 L87.9053898,48.1330648 Z M76.1593484,48.1330648 C75.9994823,48.1330648 75.9139769,47.9894838 75.9139769,47.842095 C75.9139769,47.6229158 76.0589525,47.4074514 76.1890378,47.25254 L76.1816382,47.2450173 C75.9883374,47.2600626 74.9809988,48.3371058 74.7950974,48.5449546 C74.5163825,48.8548704 74.2561206,49.1836393 74.0108404,49.5199309 C73.9625152,49.5880065 73.8696102,49.6824579 73.7841048,49.6824579 C73.739525,49.6824579 73.6066078,49.6355572 73.5188185,49.5946004 C73.3389464,49.7170994 73.139799,49.8071857 72.9514312,49.8071857 C72.7284409,49.8071857 72.4087089,49.6748423 72.4087089,49.3196976 C72.4087089,49.1646933 72.4310901,48.9077149 72.5685749,48.6545443 C72.2042631,49.1193715 71.5946711,49.8298467 71.1226553,49.8298467 C70.832704,49.8298467 70.6579476,49.5728683 70.6579476,49.334743 C70.6579476,48.7906026 71.1821255,47.9440691 71.3530451,47.638054 C71.7136114,46.9955616 71.8511876,46.71973 72.0518879,46.71973 C72.1819732,46.71973 72.304659,46.8897797 72.304659,46.965378 C72.304659,47.0976285 71.3196102,48.7150043 71.3196102,49.0437732 C71.3196102,49.0815724 71.3307552,49.1005184 71.3605359,49.1005184 C71.6244519,49.1005184 72.9551766,47.5397948 73.0815164,47.2903391 C73.2264921,46.9993693 73.3826127,46.7915205 73.4458283,46.7499136 C73.501553,46.7121145 73.6911998,46.640324 73.8584653,46.6366091 C73.8770097,46.6366091 73.8992996,46.6366091 73.9179354,46.640324 C73.9551157,46.6479395 74.0033496,46.7612441 74.0033496,46.7990432 C74.0033496,46.8066587 73.9996955,46.8103737 73.9996955,46.8103737 C73.6799635,47.4377279 73.5052984,47.6947063 73.4160475,47.8798942 C73.3045981,48.1141188 72.9774665,48.7754644 72.9774665,49.0815724 C72.9774665,49.1798315 73.0109013,49.2402916 73.0964068,49.2402916 C73.3491778,49.2036069 73.7114799,48.7955248 73.8758222,48.6093153 C74.119458,48.1852592 74.3661998,47.7661253 74.6130329,47.3469914 C74.7208283,47.1656112 74.8099878,46.9767084 74.9400731,46.8103737 C75.0665043,46.6479395 75.3081303,46.5950022 75.5050853,46.5950022 C75.5794458,46.5950022 75.5943362,46.6781231 75.5943362,46.7423909 C75.5943362,46.9199633 75.2226248,47.4377279 75.1148295,47.6153002 C75.4642509,47.2147408 76.0440621,46.6025248 76.6090743,46.6025248 C76.8061206,46.6025248 76.9584957,46.7348683 76.9584957,46.9427171 C76.9584957,47.1580886 76.5161693,47.8156263 76.3711937,48.0121447 C76.319123,48.0801274 76.2559988,48.1330648 76.1593484,48.1330648 L76.1593484,48.1330648 Z M71.7136114,44.9133585 C71.4162607,45.2950648 70.9590438,45.9071879 70.3717418,46.802851 C70.5650426,46.8103737 70.7471985,46.8255119 70.9218636,46.8481728 C71.0891291,46.8708337 71.1560901,46.9502397 71.1560901,47.0446911 C71.1560901,47.1051512 71.0111145,47.2450173 70.9442448,47.3054773 C70.8661389,47.392406 70.8587393,47.475527 70.7471985,47.475527 C70.6616931,47.475527 70.6765834,47.4679114 70.6394032,47.4603888 C70.5427527,47.456581 70.3903776,47.4490583 70.2044762,47.4490583 C70.1301157,47.4490583 70.0483557,47.4528661 69.9628502,47.4528661 C69.4833435,48.212378 68.6656516,49.5047927 68.6209805,49.5880065 C68.5615104,49.6975961 68.5131851,49.7693866 68.3682095,49.7693866 C68.3273752,49.7693866 68.2790499,49.7617711 68.2195798,49.7504406 C68.015134,49.7126415 67.9184836,49.6786501 67.9184836,49.5728683 C67.9184836,49.5388769 67.9333739,49.4934622 67.9519184,49.4368099 C68.029933,49.210108 68.7436663,48.1519179 69.2008831,47.4830497 C68.6693057,47.5095184 68.1637637,47.5473175 68.003989,47.5624557 C67.9668088,47.5699784 67.8887028,47.6077775 67.8292326,47.6077775 C67.762363,47.6077775 67.7251827,47.5435097 67.7251827,47.475527 C67.7251827,47.4528661 67.7325822,47.4263974 67.7400731,47.4074514 C67.8292326,47.1996026 67.8739038,47.1996026 67.9073386,47.1278121 C67.9407734,47.0598294 68.0634592,46.9162484 68.1712546,46.8897797 C68.2418697,46.8746415 68.8960414,46.802851 69.6729903,46.7953283 C69.9331608,46.394676 70.4423569,45.6200259 70.8846833,45.0947387 C70.5576431,45.1551987 70.0372107,45.2232743 69.1785932,45.2232743 C68.1191839,45.2232743 67.8069428,44.9549654 67.8069428,44.5997279 C67.8069428,44.372933 68.0523143,44.1575616 68.4388246,44.1575616 C68.6358709,44.1575616 68.6990865,44.1953607 68.6990865,44.2218294 C68.6990865,44.2406825 68.6730512,44.2558207 68.6358709,44.2558207 C68.4834957,44.2558207 68.3868453,44.372933 68.3868453,44.4372009 C68.3868453,44.4976609 68.6209805,44.6072505 69.5354141,44.6072505 C70.3977771,44.6072505 71.0445493,44.5429827 71.524056,44.4674773 C71.8734775,44.1726998 72.200609,43.9723737 72.650335,43.9723737 C72.8064555,43.9723737 72.9105968,44.0328337 72.970067,44.1197624 C73.0035018,44.168892 73.0331912,44.2142138 73.0369367,44.2633434 C73.0369367,44.4447235 72.5648295,44.8528985 71.7136114,44.9133585 L71.7136114,44.9133585 Z M72.5500305,44.1953607 C72.4979598,44.2128832 72.4496346,44.2391132 72.4050548,44.2653432 C72.4979598,44.2215907 72.5500305,44.2040682 72.5500305,44.1953607 L72.5500305,44.1953607 Z M64.5284105,47.475527 C64.4094702,47.475527 64.3946711,47.415067 64.3946711,47.3054773 C64.3946711,47.2676782 64.4020706,47.2374017 64.4094702,47.2072181 C64.3016748,47.2450173 64.2013703,47.2978618 64.1047199,47.3546069 C63.9820341,47.4225896 63.4727467,47.762689 63.4727467,47.9025551 C63.4727467,47.9327387 63.5322168,47.9327387 63.5471072,47.9327387 C63.7478076,47.9327387 63.9151644,47.8081037 64.1047199,47.8081037 C64.1270097,47.8081037 64.1566991,47.8081037 64.1790804,47.8156263 C64.2422046,47.8496177 64.3388551,48.0045292 64.3388551,48.0649892 C64.3388551,48.129257 64.257095,48.1935248 64.2087698,48.2351317 C64.1009744,48.3257754 63.9746346,48.3332981 63.8593484,48.3975659 C63.7069732,48.4844946 63.0750914,48.8397322 63.0750914,49.0097819 C63.0750914,49.2742829 63.3724421,49.3045594 63.5693971,49.3045594 C64.1121194,49.3045594 64.6288063,48.7830799 64.9708283,48.5222937 C64.9931181,48.5071555 65.026553,48.4844946 65.0562424,48.4844946 C65.1528928,48.4844946 65.1528928,48.7150043 65.1528928,48.7830799 C65.1528928,48.8472549 65.1528928,48.9228531 65.1306029,48.987121 C65.108313,49.047581 65.0339525,49.1193715 64.9782278,49.1646933 C64.6214068,49.4594708 64.0749391,49.8222311 63.4727467,49.8222311 C63.1091657,49.8222311 62.6528624,49.727594 62.5019488,49.3853585 C62.2711023,49.5992441 61.9600487,49.8071857 61.6736602,49.8071857 C61.4506699,49.8071857 61.1310292,49.6748423 61.1310292,49.3196976 C61.1310292,49.1646933 61.1533191,48.9077149 61.2908039,48.6545443 C60.9265834,49.1193715 60.3169915,49.8298467 59.8448843,49.8298467 C59.554933,49.8298467 59.380268,49.5728683 59.380268,49.334743 C59.380268,48.7906026 59.9043544,47.9440691 60.0753654,47.638054 C60.4359318,46.9955616 60.5734166,46.71973 60.7741169,46.71973 C60.9042935,46.71973 61.0268879,46.8897797 61.0268879,46.965378 C61.0268879,47.0976285 60.0418392,48.7150043 60.0418392,49.0437732 C60.0418392,49.0815724 60.0530755,49.1005184 60.0827649,49.1005184 C60.3466809,49.1005184 61.6774056,47.5397948 61.8038368,47.2903391 C61.9487211,46.9993693 62.1048417,46.7915205 62.1680572,46.7499136 C62.2238733,46.7121145 62.4134287,46.640324 62.5806943,46.6366091 C62.5992387,46.6366091 62.6215286,46.6366091 62.6401644,46.640324 C62.6773447,46.6479395 62.7256699,46.7612441 62.7256699,46.7990432 C62.7256699,46.8066587 62.7219245,46.8103737 62.7219245,46.8103737 C62.4022838,47.4377279 62.2275274,47.6947063 62.1383678,47.8798942 C62.026827,48.1141188 61.6996955,48.7754644 61.6996955,49.0815724 C61.6996955,49.1798315 61.7331303,49.2402916 61.8186358,49.2402916 C62.130877,49.1949698 62.6103837,48.5827538 62.6773447,48.5222937 C62.7070341,48.4996328 62.7330694,48.4883024 62.7591048,48.4883024 C62.7812119,48.4883024 62.8010353,48.497311 62.8151949,48.5120778 C62.9219854,48.4396371 63.0417479,48.3820562 63.1605055,48.3371058 C62.956151,48.2426544 62.9375152,48.0952657 62.9375152,47.8949395 C62.9375152,47.150473 64.1715895,46.6176631 64.8034714,46.6176631 C64.933648,46.6176631 65.1789281,46.6857387 65.1789281,46.8481728 C65.1789281,47.1845572 64.8592875,47.475527 64.5284105,47.475527 L64.5284105,47.475527 Z M59.0568819,48.374905 C58.5475944,49.2969438 58.1796285,49.9129676 57.7075213,50.8501447 C57.8004263,50.7595011 58.1349574,50.3777948 58.2502436,50.3777948 C58.4175091,50.3777948 58.4769793,50.4647235 58.5773752,50.5818359 C58.599665,50.6044968 58.6144641,50.6121123 58.6144641,50.6499114 C58.6144641,50.7934924 58.3914738,50.9445961 58.265134,51.069324 C58.094123,51.2393737 57.3767357,51.9725097 57.1834348,51.9725097 C57.0012789,51.9725097 56.8266139,51.7949374 56.8266139,51.6097495 C56.8266139,51.1449222 57.8153167,49.4821317 58.1126675,48.9719827 C57.8302071,49.2969438 57.2131242,49.8147084 56.7707978,49.8147084 C56.5374848,49.8147084 56.3788977,49.693324 56.2991474,49.5137084 C56.0167783,49.7196069 55.6845311,49.8298467 55.4400731,49.8298467 C55.1915956,49.8298467 54.9390987,49.6545961 54.8256395,49.4282657 C54.5833739,49.6246911 54.2903167,49.8071857 53.990408,49.8071857 C53.6930572,49.7995702 53.3659257,49.5652527 53.3659257,49.1949698 C53.3659257,48.7150043 53.7710719,48.0764125 54.083313,47.6077775 C54.1204933,47.5511253 54.2692144,47.3281382 54.2803593,47.25254 L54.2728685,47.2450173 C54.079659,47.2600626 53.0723203,48.3371058 52.886419,48.5449546 C52.6076127,48.8585853 52.3548417,49.1873542 52.1095615,49.5199309 C52.0574909,49.5880065 51.9645859,49.6824579 51.875335,49.6824579 C51.8122107,49.6824579 51.5779842,49.5880065 51.5334044,49.5502073 C51.5073691,49.5350691 51.5073691,49.5124082 51.5073691,49.4897473 C51.5073691,49.3650194 51.6485993,49.1646933 51.7303593,49.0249201 C52.0500914,48.4580259 52.3771315,47.9025551 52.7042631,47.3469914 C52.8120585,47.1656112 52.9013094,46.9767084 53.0313946,46.8103737 C53.1577345,46.6479395 53.3993605,46.5950022 53.5964068,46.5950022 C53.6781669,46.5950022 53.6855664,46.6781231 53.6855664,46.7423909 C53.6855664,46.9199633 53.3138551,47.4377279 53.2060597,47.6153002 C53.562972,47.2147408 54.1353837,46.6025248 54.7077954,46.6025248 C54.8973508,46.6025248 55.0572168,46.7348683 55.0572168,46.9427171 C55.0572168,47.1732268 54.6074909,47.7853499 54.4625152,48.0121447 C54.3398295,48.2048553 53.9235384,48.8322095 53.9235384,49.0929028 C53.9235384,49.2138229 54.0387333,49.2592376 54.1465286,49.2592376 C54.3625761,49.2592376 54.6718027,48.9692894 54.9040195,48.7441663 C55.1377893,48.2443261 55.5813033,47.5767581 55.5813033,47.5321793 C55.5813033,47.4452505 55.4289281,47.3697451 55.4289281,47.2828164 C55.4289281,47.2223564 56.0050853,46.5798639 56.3247259,46.5798639 C56.4474117,46.5798639 56.5997868,46.7650518 56.5997868,46.8821641 C56.5997868,46.9615702 55.8229294,48.3257754 55.715134,48.5147711 C55.6259744,48.6658747 55.4363276,48.9379914 55.4363276,49.1193715 C55.4363276,49.2251533 55.5329781,49.2478143 55.6259744,49.2478143 C55.8551766,49.2478143 56.0938794,49.0496242 56.2882765,48.8552419 C56.5025883,48.0526371 57.3772838,47.2724147 58.012363,46.9199633 C58.2464982,46.7915205 58.543849,46.6554622 58.8189099,46.6554622 C58.9936663,46.6554622 59.209257,46.6970691 59.2761267,46.8897797 C59.2984166,46.8406501 59.3207978,46.7877127 59.3542326,46.7575292 C59.4137028,46.6781231 59.7036541,46.5798639 59.7928136,46.5798639 C59.8709196,46.5798639 59.9228989,46.6781231 59.9228989,46.7423909 C59.9228989,46.7801901 59.9228989,46.8103737 59.9080999,46.8406501 C59.6515834,47.3621296 59.3393423,47.8647559 59.0568819,48.374905 L59.0568819,48.374905 Z M58.8970158,47.1429503 C58.5290499,47.1429503 57.9082217,47.6002549 57.6554507,47.8572333 C57.4436054,48.0726048 56.9083739,48.7679417 56.9083739,49.0627192 C56.9083739,49.108041 56.9306638,49.1420324 56.978989,49.1420324 C57.242905,49.1420324 58.1126675,48.374905 58.3171133,48.1595335 C58.599665,47.8647559 58.8486906,47.5321793 59.0791717,47.1920799 C59.0271011,47.150473 58.9638855,47.1429503 58.8970158,47.1429503 L58.8970158,47.1429503 Z M56.7745432,46.1754968 C56.6295676,46.1754968 56.5552071,46.0999914 56.5552071,45.9526026 C56.5552071,45.6503024 56.8525579,45.3101102 57.1573995,45.3101102 C57.2912302,45.3101102 57.3767357,45.3857084 57.3767357,45.5255745 C57.3767357,45.8052138 57.0570037,46.1754968 56.7745432,46.1754968 L56.7745432,46.1754968 Z M50.4219245,48.8094557 C50.4219245,48.8094557 50.4219245,48.8132635 50.4256699,48.8132635 C50.4628502,48.8132635 50.8196711,48.6318834 51.1616931,48.3371058 C51.4664434,48.0764125 51.7861754,47.7853499 51.931151,47.6153002 C51.9496955,47.5926393 51.9645859,47.5851166 51.9794762,47.5851166 C52.0463459,47.5851166 52.0797808,47.7703045 52.0797808,47.9478769 C52.0797808,48.0499438 52.0686358,48.1519179 52.0463459,48.212378 C51.8158648,48.8170713 50.4851401,49.7277797 49.8383678,49.7277797 C49.645067,49.7277797 49.4852923,49.5652527 49.4852923,49.3045594 C49.4852923,48.824594 50.1432095,47.7248898 50.7824909,46.8331274 C49.8829476,47.8949395 48.344123,49.6899806 47.3851096,49.6899806 C46.976218,49.6899806 46.8312424,49.3498812 46.8312424,49.1005184 C46.8312424,48.5902765 47.1880633,47.8874168 47.6526797,47.1580886 C48.102497,46.4476134 48.5336784,45.843013 48.9686054,45.3252484 C48.7194884,45.5482354 48.4147381,45.8052138 48.2065469,45.8052138 C47.9575213,45.8052138 47.8274361,45.597365 47.8274361,45.3705702 C47.8274361,45.1627214 48.1247868,44.9473499 48.1916565,44.9473499 C48.2325822,44.9473499 48.262363,44.9473499 48.262363,44.9624881 C48.262363,44.985149 48.1508222,45.0909309 48.1508222,45.1325378 C48.1508222,45.1513909 48.1619671,45.1627214 48.1991474,45.1627214 C48.3998477,45.1627214 49.2287759,44.637527 49.6637028,44.2822894 C49.7305725,44.2255443 49.8086784,44.2028834 49.8829476,44.2028834 C49.9610536,44.2028834 50.0390682,44.2255443 50.1097747,44.2633434 C50.1209196,44.2255443 50.3401644,44.3464644 50.3401644,44.4674773 C50.3401644,44.4938531 50.3290195,44.5241296 50.310475,44.5505983 C49.7975335,45.2232743 48.6116931,46.8179892 48.2065469,47.4452505 C47.9686663,47.8156263 47.5597747,48.5298164 47.5597747,48.824594 C47.5597747,48.9077149 47.5895554,48.9568445 47.66757,48.9568445 C47.8125457,48.9568445 48.5708587,48.3371058 49.4332217,47.4830497 C50.3922351,46.5345421 51.4701888,45.3063952 52.2062119,44.4523391 C52.2917174,44.3540799 52.3362972,44.3389417 52.3957674,44.3427495 L52.4292022,44.3427495 C52.5073082,44.3427495 52.4701279,44.3162808 52.7376979,44.3162808 C52.9942144,44.3162808 53.1094093,44.3616026 53.1094093,44.456054 C53.1094093,44.4938531 53.0871194,44.5467905 53.0276492,44.6299114 C52.8826736,44.8302376 50.4219245,48.3069222 50.4219245,48.8094557 L50.4219245,48.8094557 Z" id="Shape" sketch:type="MSShapeGroup"></path>
            <path d="M143.877132,29.3370497 C143.316596,29.3370497 142.875,29.472365 142.551614,29.7421598 C142.228959,30.0127905 142.0669,30.370257 142.0669,30.8153952 C142.0669,31.2613693 142.264677,31.6150281 142.659409,31.8780432 C143.054141,32.1411512 143.966291,32.4509741 145.39595,32.8084406 C146.824787,33.166743 147.933983,33.7033607 148.724269,34.4182937 C149.513733,35.1340626 149.909287,36.1786004 149.909287,37.5503283 C149.909287,38.923635 149.403015,40.0361555 148.390469,40.8902117 C147.377923,41.7442678 146.044915,42.1720389 144.393819,42.1720389 C142.009622,42.1720389 139.861845,41.2741469 137.95204,39.4783629 L139.955572,36.9812052 C141.578441,38.4263024 143.079446,39.148851 144.458496,39.148851 C145.075487,39.148851 145.560201,39.0143715 145.912637,38.7437408 C146.264251,38.474689 146.440469,38.1088639 146.440469,37.6493305 C146.440469,37.189054 146.253837,36.8240648 145.880664,36.5534341 C145.506669,36.2843823 144.766991,36.0100367 143.661541,35.7326263 C141.908496,35.309406 140.626918,34.7576501 139.815804,34.0789374 C139.003959,33.4002246 138.598812,32.3346048 138.598812,30.881149 C138.598812,29.4285292 139.111754,28.3076501 140.13919,27.5194406 C141.165895,26.7311382 142.447564,26.3366156 143.984196,26.3366156 C144.989251,26.3366156 145.995128,26.511959 147.001005,26.8626458 C148.006151,27.2124968 148.881851,27.7090864 149.629019,28.351486 L147.927314,30.8487365 C146.61961,29.840419 145.269519,29.3370497 143.877132,29.3370497 L143.877132,29.3370497 Z M132.393453,41.9966955 L129.05472,37.1127127 L126.727801,37.1127127 L126.727801,41.9966955 L123.366778,41.9966955 L123.366778,26.6873024 L129.076279,26.6873024 C131.416626,26.6873024 133.086358,27.0886048 134.084744,27.8920454 C135.08313,28.6946501 135.582004,29.9870648 135.582004,31.7677106 C135.582004,34.2210324 134.626736,35.8059957 132.716839,36.5209287 L136.530603,41.9966955 L132.393453,41.9966955 L132.393453,41.9966955 Z M131.510262,30.0823521 C131.079811,29.7755011 130.325244,29.6219827 129.248752,29.6219827 L126.727801,29.6219827 L126.727801,34.1560216 L129.184074,34.1560216 C130.332643,34.1560216 131.11553,33.9656328 131.531821,33.5861555 C131.948112,33.2067711 132.157034,32.6043996 132.157034,31.779041 C132.157034,30.9545184 131.941443,30.3883672 131.510262,30.0823521 L131.510262,30.0823521 Z M112.616839,42.150121 C110.391048,42.150121 108.516139,41.394324 106.994306,39.883473 C105.471833,38.371879 104.710505,36.4914881 104.710505,34.2436933 C104.710505,31.9945054 105.471833,30.1147646 106.994306,28.6031706 C108.516139,27.0924125 110.391048,26.3366156 112.616839,26.3366156 C114.843453,26.3366156 116.717631,27.0924125 118.240104,28.6031706 C119.762667,30.1147646 120.523904,31.9945054 120.523904,34.2436933 C120.523904,36.4914881 119.762667,38.371879 118.240104,39.883473 C116.717631,41.394324 114.843453,42.150121 112.616839,42.150121 L112.616839,42.150121 Z M115.80539,30.7609719 C114.943758,29.7965832 113.88444,29.3151317 112.627984,29.3151317 C111.370889,29.3151317 110.312211,29.7965832 109.449848,30.7609719 C108.588216,31.7246177 108.157765,32.8893326 108.157765,34.2542808 C108.157765,35.6193218 108.588216,36.7802289 109.449848,37.7370022 C110.312211,38.6931253 111.370889,39.1715119 112.627984,39.1715119 C113.88444,39.1715119 114.943758,38.6931253 115.80539,37.7370022 C116.667022,36.7802289 117.098203,35.6193218 117.098203,34.2542808 C117.098203,32.8893326 116.667022,31.7246177 115.80539,30.7609719 L115.80539,30.7609719 Z M103.246041,21.3527948 L96.9336175,21.3527948 L95.5337393,24.6601728 L91.9571255,24.6601728 L98.463581,9.3507797 L101.716809,9.3507797 L108.222442,24.6601728 L104.64665,24.6601728 L103.246041,21.3527948 L103.246041,21.3527948 Z M100.100609,13.9067365 L98.2048721,18.3522678 L101.974787,18.3522678 L100.100609,13.9067365 L100.100609,13.9067365 Z M87.2817296,24.6601728 L83.9429963,19.7761901 L81.616078,19.7761901 L81.616078,24.6601728 L78.2550548,24.6601728 L78.2550548,9.3507797 L83.9645554,9.3507797 C86.3048112,9.3507797 87.9745432,9.75282505 88.9730207,10.5555227 C89.9714068,11.3581274 90.4702801,12.6505421 90.4702801,14.4320238 C90.4702801,16.8853456 89.5149208,18.470216 87.6051157,19.1852419 L91.4188794,24.6601728 L87.2817296,24.6601728 L87.2817296,24.6601728 Z M86.3985384,12.7458294 C85.9680877,12.4389784 85.2135201,12.2862959 84.137028,12.2862959 L81.616078,12.2862959 L81.616078,16.8195918 L84.0723508,16.8195918 C85.2209196,16.8195918 86.003715,16.6298531 86.4200974,16.2496328 C86.8363886,15.8702484 87.0453106,15.2686199 87.0453106,14.4433542 C87.0453106,13.6179957 86.8297199,13.0526803 86.3985384,12.7458294 L86.3985384,12.7458294 Z M82.7148599,28.6908423 C84.1510962,30.0270929 84.8693057,31.8856587 84.8693057,34.2648683 C84.8693057,36.6456566 84.1690012,38.5291123 82.769123,39.9159784 C81.368514,41.3029374 79.2318819,41.9966955 76.3593179,41.9966955 L71.2103532,41.9966955 L71.2103532,26.6873024 L76.5317905,26.6873024 C79.2178136,26.6873024 81.2785323,27.3554276 82.7148599,28.6908423 L82.7148599,28.6908423 Z M76.4455542,29.6650756 L74.5713764,29.6650756 L74.5713764,38.9742505 L76.7042631,38.9742505 C78.2408952,38.9742505 79.4222594,38.5797279 80.248173,37.7914255 C81.0740865,37.0023801 81.4867235,35.8566112 81.4867235,34.35254 C81.4867235,32.8485616 81.0740865,31.6922052 80.248173,30.881149 C79.4222594,30.0709287 78.154659,29.6650756 76.4455542,29.6650756 L76.4455542,29.6650756 Z M71.5337393,21.3527948 L65.2213155,21.3527948 L63.8214373,24.6601728 L60.2448234,24.6601728 L66.7512789,9.3507797 L70.0045067,9.3507797 L76.5102314,24.6601728 L72.9343484,24.6601728 L71.5337393,21.3527948 L71.5337393,21.3527948 Z M68.3883069,13.9067365 L66.49257,18.3522678 L70.2624848,18.3522678 L68.3883069,13.9067365 L68.3883069,13.9067365 Z M53.6952497,12.263635 C52.431486,12.263635 51.3505177,12.6837905 50.4531669,13.5228013 C49.5551766,14.3632052 49.106821,15.4938359 49.106821,16.917851 C49.106821,18.3417732 49.5298721,19.4844773 50.3780755,20.346149 C51.2249086,21.2077279 52.2522533,21.6385637 53.4588307,21.6385637 C55.1100183,21.6385637 56.4600183,20.9734104 57.5090134,19.6446825 L59.6634592,21.900743 C57.9536236,23.857568 55.9396772,24.8355162 53.6201583,24.8355162 C51.3007308,24.8355162 49.3901035,24.0910497 47.8890987,22.6013737 C46.3881851,21.1125335 45.6380024,19.2320497 45.6380024,16.9616868 C45.6380024,14.6912311 46.4029842,12.7971879 47.9322168,11.2780713 C49.4621803,9.75960475 51.332704,9.00009287 53.5443362,9.00009287 C56.0147686,9.00009287 58.0829781,9.95686609 59.7489647,11.8691123 L57.6591961,14.2785983 C56.5968636,12.9354752 55.275,12.263635 53.6952497,12.263635 L53.6952497,12.263635 Z M49.9037759,41.9966955 L46.5427527,41.9966955 L46.5427527,26.6873024 L49.9037759,26.6873024 L49.9037759,41.9966955 L49.9037759,41.9966955 Z M64.1440926,36.5428467 L64.1440926,26.6873024 L67.5051157,26.6873024 L67.5051157,41.9966955 L64.1440926,41.9966955 L56.9700365,32.4033305 L56.9700365,41.9966955 L53.6090134,41.9966955 L53.6090134,26.6873024 L56.7544458,26.6873024 L64.1440926,36.5428467 L64.1440926,36.5428467 Z M94.8222899,26.3366156 C97.0488124,26.3366156 98.9229903,27.0924125 100.445554,28.6031706 C101.968027,30.1147646 102.729354,31.9945054 102.729354,34.2436933 C102.729354,36.4914881 101.968027,38.371879 100.445554,39.883473 C98.9229903,41.394324 97.0488124,42.150121 94.8222899,42.150121 C92.5964068,42.150121 90.7214982,41.394324 89.1997564,39.883473 C87.6771924,38.371879 86.9159562,36.4914881 86.9159562,34.2436933 C86.9159562,31.9945054 87.6771924,30.1147646 89.1997564,28.6031706 C90.7214982,27.0924125 92.5964068,26.3366156 94.8222899,26.3366156 L94.8222899,26.3366156 Z M91.6552984,37.7370022 C92.5176614,38.6931253 93.5762485,39.1715119 94.8334348,39.1715119 C96.089799,39.1715119 97.1492083,38.6931253 98.0108404,37.7370022 C98.8724726,36.7802289 99.3036541,35.6193218 99.3036541,34.2542808 C99.3036541,32.8893326 98.8724726,31.7246177 98.0108404,30.7609719 C97.1492083,29.7965832 96.089799,29.3151317 94.8334348,29.3151317 C93.5762485,29.3151317 92.5176614,29.7965832 91.6552984,30.7609719 C90.7936663,31.7246177 90.3632156,32.8893326 90.3632156,34.2542808 C90.3632156,35.6193218 90.7936663,36.7802289 91.6552984,37.7370022 L91.6552984,37.7370022 Z" id="Shape" sketch:type="MSShapeGroup"></path>
            <path d="M31.8611145,20.7723413 C29.2344702,20.7723413 27.1051462,18.6075745 27.1051462,15.9372095 C27.1051462,13.2668445 29.2344702,11.1020778 31.8611145,11.1020778 C34.4877588,11.1020778 36.6170828,13.2668445 36.6170828,15.9372095 C36.6170828,18.6075745 34.4877588,20.7723413 31.8611145,20.7723413 L31.8611145,20.7723413 Z M31.8611145,24.2536695 C34.6932095,24.2536695 36.9975639,26.5963801 36.9975639,29.4756156 C36.9975639,32.3547581 34.6932095,34.6975616 31.8611145,34.6975616 C29.0291108,34.6975616 26.724665,32.3547581 26.724665,29.4756156 C26.724665,26.5963801 29.0291108,24.2536695 31.8611145,24.2536695 L31.8611145,24.2536695 Z M31.8611145,33.923933 C34.2740865,33.923933 36.2366017,31.9286587 36.2366017,29.4756156 C36.2366017,27.0224795 34.2740865,25.0272981 31.8611145,25.0272981 C29.4482339,25.0272981 27.4856273,27.0224795 27.4856273,29.4756156 C27.4856273,31.9286587 29.4482339,33.923933 31.8611145,33.923933 L31.8611145,33.923933 Z M18.544458,21.1591555 C15.712363,21.1591555 13.4080085,18.8164449 13.4080085,15.9372095 C13.4080085,13.058067 15.712363,10.7152635 18.544458,10.7152635 C21.3764616,10.7152635 23.6809074,13.058067 23.6809074,15.9372095 C23.6809074,18.8164449 21.3764616,21.1591555 18.544458,21.1591555 L18.544458,21.1591555 Z M18.544458,11.488892 C16.131486,11.488892 14.1689708,13.4841663 14.1689708,15.9372095 C14.1689708,18.3903456 16.131486,20.385527 18.544458,20.385527 C20.9573386,20.385527 22.9199452,18.3903456 22.9199452,15.9372095 C22.9199452,13.4841663 20.9573386,11.488892 18.544458,11.488892 L18.544458,11.488892 Z M5.22771011,48.2358747 C2.39570646,48.2358747 0.0912606577,45.8931641 0.0912606577,43.0139287 C0.0912606577,40.1347862 2.39570646,37.7919827 5.22771011,37.7919827 C8.05980512,37.7919827 10.3641596,40.1347862 10.3641596,43.0139287 C10.3641596,45.8931641 8.05980512,48.2358747 5.22771011,48.2358747 L5.22771011,48.2358747 Z M5.22771011,38.5656112 C2.81482948,38.5656112 0.852222899,40.5608855 0.852222899,43.0139287 C0.852222899,45.4670648 2.81482948,47.4622462 5.22771011,47.4622462 C7.6406821,47.4622462 9.60319732,45.4670648 9.60319732,43.0139287 C9.60319732,40.5608855 7.6406821,38.5656112 5.22771011,38.5656112 L5.22771011,38.5656112 Z M5.22771011,24.6404838 C7.85435445,24.6404838 9.98367844,26.8052505 9.98367844,29.4756156 C9.98367844,32.1459806 7.85435445,34.3107473 5.22771011,34.3107473 C2.60106577,34.3107473 0.471741778,32.1459806 0.471741778,29.4756156 C0.471741778,26.8052505 2.60106577,24.6404838 5.22771011,24.6404838 L5.22771011,24.6404838 Z M5.22771011,21.1591555 C2.39570646,21.1591555 0.0912606577,18.8164449 0.0912606577,15.9372095 C0.0912606577,13.058067 2.39570646,10.7152635 5.22771011,10.7152635 C8.05980512,10.7152635 10.3641596,13.058067 10.3641596,15.9372095 C10.3641596,18.8164449 8.05980512,21.1591555 5.22771011,21.1591555 L5.22771011,21.1591555 Z M5.22771011,11.488892 C2.81482948,11.488892 0.852222899,13.4841663 0.852222899,15.9372095 C0.852222899,18.3903456 2.81482948,20.385527 5.22771011,20.385527 C7.6406821,20.385527 9.60319732,18.3903456 9.60319732,15.9372095 C9.60319732,13.4841663 7.6406821,11.488892 5.22771011,11.488892 L5.22771011,11.488892 Z M18.544458,24.6404838 C21.1711023,24.6404838 23.3004263,26.8052505 23.3004263,29.4756156 C23.3004263,32.1459806 21.1711023,34.3107473 18.544458,34.3107473 C15.9178136,34.3107473 13.7884896,32.1459806 13.7884896,29.4756156 C13.7884896,26.8052505 15.9178136,24.6404838 18.544458,24.6404838 L18.544458,24.6404838 Z M18.544458,38.178797 C21.1711023,38.178797 23.3004263,40.3435637 23.3004263,43.0139287 C23.3004263,45.6842937 21.1711023,47.8490605 18.544458,47.8490605 C15.9178136,47.8490605 13.7884896,45.6842937 13.7884896,43.0139287 C13.7884896,40.3435637 15.9178136,38.178797 18.544458,38.178797 L18.544458,38.178797 Z M31.8611145,38.178797 C34.4877588,38.178797 36.6170828,40.3435637 36.6170828,43.0139287 C36.6170828,45.6842937 34.4877588,47.8490605 31.8611145,47.8490605 C29.2344702,47.8490605 27.1051462,45.6842937 27.1051462,43.0139287 C27.1051462,40.3435637 29.2344702,38.178797 31.8611145,38.178797 L31.8611145,38.178797 Z" id="Shape" sketch:type="MSShapeGroup"></path>
            <rect id="Rectangle-path" sketch:type="MSShapeGroup" x="40.4689403" y="9.22939525" width="1.82704019" height="40.5853132"></rect>
        </g>
    </g>
</svg>