<?xml version="1.0" encoding="iso-8859-1"?>
<!-- Generator: Adobe Illustrator 19.0.0, SVG Export Plug-In . SVG Version: 6.00 Build 0)  -->
<svg xmlns="http://www.w3.org/2000/svg" xmlns:xlink="http://www.w3.org/1999/xlink" version="1.1" id="Capa_1" x="0px" y="0px" viewBox="0 0 470 470" style="enable-background:new 0 0 470 470;" xml:space="preserve" width="512px" height="512px">
<g>
	<path d="M157.046,152.966l21.701-16.537l21.703,16.537c2.685,2.045,6.405,2.045,9.09,0l21.708-16.537l21.707,16.537   c1.357,1.034,2.955,1.535,4.539,1.534c2.261,0,4.496-1.018,5.972-2.955c2.511-3.295,1.874-8.001-1.421-10.511l-26.252-20   c-2.684-2.044-6.405-2.046-9.09,0l-21.707,16.537l-21.704-16.537c-2.685-2.045-6.406-2.045-9.091,0l-26.248,20   c-3.294,2.511-3.93,7.217-1.419,10.512S153.752,155.476,157.046,152.966z" fill="#FFFFFF"/>
	<path d="M462.5,67.5h-61.572c-4.143,0-7.5,3.357-7.5,7.5s3.357,7.5,7.5,7.5H455V405c0,12.406-10.094,22.5-22.5,22.5h-395   C25.093,427.5,15,417.406,15,405V42.5h296V119c0,4.143,3.357,7.5,7.5,7.5H395V405c0,4.143,3.357,7.5,7.5,7.5h30   c4.143,0,7.5-3.357,7.5-7.5s-3.357-7.5-7.5-7.5H410V119c0-0.251-0.013-0.501-0.038-0.749c-0.018-0.184-0.05-0.364-0.081-0.544   c-0.011-0.061-0.016-0.123-0.028-0.183c-0.043-0.218-0.099-0.431-0.161-0.642c-0.006-0.022-0.01-0.045-0.017-0.067   c-0.066-0.216-0.143-0.426-0.227-0.633c-0.007-0.018-0.013-0.037-0.02-0.056c-0.081-0.195-0.173-0.385-0.27-0.572   c-0.016-0.03-0.028-0.063-0.045-0.093c-0.091-0.169-0.192-0.332-0.295-0.493c-0.029-0.045-0.054-0.093-0.084-0.138   c-0.099-0.148-0.208-0.289-0.317-0.429c-0.042-0.053-0.078-0.11-0.121-0.162c-0.12-0.146-0.25-0.284-0.381-0.421   c-0.038-0.04-0.071-0.083-0.11-0.122l-84-84c-0.039-0.039-0.082-0.072-0.122-0.11c-0.137-0.131-0.275-0.261-0.421-0.381   c-0.052-0.043-0.109-0.08-0.162-0.122c-0.14-0.109-0.281-0.218-0.428-0.317c-0.045-0.03-0.093-0.055-0.139-0.084   c-0.161-0.104-0.324-0.204-0.493-0.295c-0.03-0.017-0.062-0.029-0.093-0.045c-0.187-0.097-0.376-0.189-0.572-0.27   c-0.018-0.008-0.037-0.013-0.056-0.021c-0.207-0.084-0.417-0.161-0.633-0.227c-0.022-0.006-0.045-0.01-0.067-0.017   c-0.211-0.062-0.424-0.118-0.642-0.161c-0.06-0.012-0.122-0.018-0.183-0.028c-0.18-0.031-0.36-0.063-0.544-0.082   c-0.248-0.025-0.497-0.038-0.749-0.038H7.5C3.358,27.5,0,30.857,0,35v370c0,20.678,16.822,37.5,37.5,37.5h395   c20.678,0,37.5-16.822,37.5-37.5V75C470,70.857,466.643,67.5,462.5,67.5z M326,53.106l58.394,58.394H326V53.106z" fill="#FFFFFF"/>
	<path d="M175,364.5H67.5c-4.142,0-7.5,3.357-7.5,7.5s3.358,7.5,7.5,7.5H175c4.142,0,7.5-3.357,7.5-7.5S179.142,364.5,175,364.5z" fill="#FFFFFF"/>
	<path d="M342.5,364.5H235c-4.142,0-7.5,3.357-7.5,7.5s3.358,7.5,7.5,7.5h107.5c4.143,0,7.5-3.357,7.5-7.5   S346.643,364.5,342.5,364.5z" fill="#FFFFFF"/>
	<path d="M342.5,319.5H235c-4.142,0-7.5,3.357-7.5,7.5s3.358,7.5,7.5,7.5h107.5c4.143,0,7.5-3.357,7.5-7.5   S346.643,319.5,342.5,319.5z" fill="#FFFFFF"/>
	<path d="M342.5,274.5H235c-4.142,0-7.5,3.357-7.5,7.5s3.358,7.5,7.5,7.5h107.5c4.143,0,7.5-3.357,7.5-7.5   S346.643,274.5,342.5,274.5z" fill="#FFFFFF"/>
	<path d="M175,264.5c4.142,0,7.5-3.357,7.5-7.5v-20c0-4.143-3.358-7.5-7.5-7.5H67.5c-4.142,0-7.5,3.357-7.5,7.5v90   c0,4.143,3.358,7.5,7.5,7.5H175c4.142,0,7.5-3.357,7.5-7.5v-40c0-4.143-3.358-7.5-7.5-7.5s-7.5,3.357-7.5,7.5v32.5H75v-75h92.5V257   C167.5,261.143,170.858,264.5,175,264.5z" fill="#FFFFFF"/>
	<path d="M342.5,229.5H235c-4.142,0-7.5,3.357-7.5,7.5s3.358,7.5,7.5,7.5h107.5c4.143,0,7.5-3.357,7.5-7.5   S346.643,229.5,342.5,229.5z" fill="#FFFFFF"/>
	<path d="M342.5,184.5h-275c-4.142,0-7.5,3.357-7.5,7.5s3.358,7.5,7.5,7.5h275c4.143,0,7.5-3.357,7.5-7.5S346.643,184.5,342.5,184.5   z" fill="#FFFFFF"/>
</g>
<g>
</g>
<g>
</g>
<g>
</g>
<g>
</g>
<g>
</g>
<g>
</g>
<g>
</g>
<g>
</g>
<g>
</g>
<g>
</g>
<g>
</g>
<g>
</g>
<g>
</g>
<g>
</g>
<g>
</g>
</svg>
