<svg xmlns:dc="http://purl.org/dc/elements/1.1/" xmlns:cc="http://creativecommons.org/ns#" xmlns:rdf="http://www.w3.org/1999/02/22-rdf-syntax-ns#" xmlns:svg="http://www.w3.org/2000/svg" xmlns="http://www.w3.org/2000/svg" xmlns:sodipodi="http://sodipodi.sourceforge.net/DTD/sodipodi-0.dtd" xmlns:inkscape="http://www.inkscape.org/namespaces/inkscape" version="1.1" x="0px" y="0px" viewBox="0 0 100 100"><g transform="translate(0,-952.36218)"><path style="text-indent:0;text-transform:none;direction:ltr;block-progression:tb;baseline-shift:baseline;color:#000000;enable-background:accumulate;" d="m 74.226857,957.3622 c -6.53031,10e-5 -12.3853,3.0051 -16.19251,7.7316 a 2.1370193,2.1370193 0 1 0 3.32603,2.6842 c 3.0301,-3.7617 7.64897,-6.1561 12.86648,-6.1562 9.149394,0 16.513404,7.3642 16.513454,16.5135 0,9.1494 -7.36396,16.5134 -16.513454,16.5134 -4.85082,0 -9.20088,-2.0816 -12.22462,-5.3974 a 2.1372417,2.1372417 0 1 0 -3.15097,2.8883 c 1.48289,1.6262 3.25772,2.9965 5.19327,4.0846 -2.22395,1.6257 -5.3391,1.4588 -7.35228,-0.5543 -2.22756,-2.2277 -2.22751,-5.7959 0,-8.0233 2.22755,-2.2276 5.79579,-2.2276 8.02332,0 0.58271,0.5826 0.97951,1.2686 1.25456,1.9839 a 2.1428674,2.1428674 0 1 0 3.99707,-1.5462 c -0.4837,-1.2582 -1.23794,-2.4342 -2.24653,-3.4429 -1.92776,-1.9277 -4.48856,-2.8883 -7.03134,-2.8883 -2.54279,0 -5.07442,0.9608 -7.00217,2.8883 -3.85553,3.8555 -3.85545,10.1779 0,14.0336 3.85556,3.8556 10.178,3.8555 14.03351,0 0.204,-0.204 0.40024,-0.4233 0.58352,-0.6419 1.88587,0.5592 3.86182,0.8753 5.92266,0.8753 1.19552,0 2.38937,-0.097 3.53027,-0.2918 l -0.0291,6.0395 -37.54914,37.5198 -30.0218,-29.9926 37.57831,-37.5783 19.16844,0 10.85336,10.8534 0,3.9678 a 2.1302041,2.1302041 0 1 0 4.259664,0 l 0,-4.843 a 2.1302041,2.1302041 0 0 0 -0.61269,-1.5172 L 69.296247,970.9872 a 2.1302041,2.1302041 0 0 0 -1.48796,-0.6418 l -20.97734,0 a 2.1302041,2.1302041 0 0 0 -1.48796,0.6418 l -39.7081396,39.679 a 2.1302041,2.1302041 0 0 0 0,3.0342 l 33.0268996,33.0269 a 2.1302041,2.1302041 0 0 0 3.03428,0 l 39.678964,-39.7081 a 2.1302041,2.1302041 0 0 0 0.61269,-1.488 l 0.0291,-8.1399 c 7.60731,-3.0876 12.98318,-10.5557 12.98319,-19.256 -8e-5,-11.4516 -9.32142,-20.7731 -20.773114,-20.7731 z m -27.92115,37.1407 a 2.1302041,2.1302041 0 0 0 -0.26258,0.029 2.1302041,2.1302041 0 0 0 -1.25455,0.6418 l -21.82343,21.8235 a 2.1352651,2.1352651 0 1 0 3.0051,3.0342 l 21.8526,-21.8526 a 2.1302041,2.1302041 0 0 0 -1.51714,-3.6761 z m 9.132,9.3945 a 2.1302041,2.1302041 0 0 0 -1.25456,0.642 l -21.8526,21.8525 a 2.1352998,2.1352998 0 1 0 3.03427,3.0052 l 21.82343,-21.8527 a 2.1302041,2.1302041 0 0 0 -1.54631,-3.647 2.1302041,2.1302041 0 0 0 -0.20423,0 z" fill="#000000" fill-opacity="1" stroke="none" marker="none" visibility="visible" display="inline" overflow="visible"></path></g></svg>