<svg xmlns="http://www.w3.org/2000/svg" xmlns:xlink="http://www.w3.org/1999/xlink" version="1.1" x="0px" y="0px" viewBox="0 0 80 80" enable-background="new 0 0 80 80" xml:space="preserve"><g><g><path fill="#FFFFFF" d="M24.2,59.9c-3.8,0-6.9-2.9-6.9-6.9h2c0,3,2.2,4.9,4.9,4.9S29,56,29,53h2C31,57,28,59.9,24.2,59.9z"></path></g><g><path fill="#FFFFFF" d="M48,52H10v-1c0-6.7,3.2-10.8,5.5-13H11v-7h29.7L39,38h-4.6c-0.2,1.8-0.4,6.3,2.9,8.7l-1.2,1.6    c-5.1-3.9-3.6-11.2-3.5-11.5l0.2-0.8h4.7l0.7-3H13v3h9.1l-3.3,1.9c-0.3,0.1-6.1,3.6-6.5,12.1H48V52z"></path></g><g><rect x="42.6" y="31.4" transform="matrix(0.2545 0.9671 -0.9671 0.2545 71.6206 -28.1409)" fill="#FFFFFF" width="23" height="2"></rect></g><g><rect x="44" y="21" fill="#FFFFFF" width="7" height="2"></rect></g><g><path fill="#FFFFFF" d="M53,32v-2h2.8c0.2,0,1.3-0.2,1.3-2.5S56,25,55.8,25H52v-2h3.8c0.1,0,1.2,0,2.1,0.9c0.8,0.8,1.2,2,1.2,3.6    s-0.4,2.8-1.2,3.6C57,32,56,32,55.8,32H53z"></path></g><g><path fill="#FFFFFF" d="M59.3,59.9c-3.8,0-6.9-2.9-6.9-6.9h2c0,3,2.2,4.9,4.9,4.9s4.9-1.9,4.9-4.9h2C66.2,57,63.1,59.9,59.3,59.9z    "></path></g><g><rect x="20" y="40" fill="#FFFFFF" width="7" height="2"></rect></g><g><rect x="18" y="45" fill="#FFFFFF" width="9" height="2"></rect></g><g><path fill="#FFFFFF" d="M69.9,52H47.6l0.2-1.2c0-0.1,1.4-7.9,11.5-7.9c8.9,0,10.3,7.8,10.4,7.9L69.9,52z M50.2,50h17.2    c-0.7-1.8-2.7-5-8-5C53.2,45,50.9,48.2,50.2,50z"></path></g></g></svg>