<svg xmlns:dc="http://purl.org/dc/elements/1.1/" xmlns:cc="http://creativecommons.org/ns#" xmlns:rdf="http://www.w3.org/1999/02/22-rdf-syntax-ns#" xmlns:svg="http://www.w3.org/2000/svg" xmlns="http://www.w3.org/2000/svg" xmlns:sodipodi="http://sodipodi.sourceforge.net/DTD/sodipodi-0.dtd" xmlns:inkscape="http://www.inkscape.org/namespaces/inkscape" version="1.1" x="0px" y="0px" viewBox="0 0 100 100"><g transform="translate(0,-952.36218)"><path style="text-indent:0;text-transform:none;direction:ltr;block-progression:tb;baseline-shift:baseline;color:#000000;enable-background:accumulate;" d="m 81.363544,959.12692 c -0.47281,0.015 -0.93964,0.057 -1.41539,0.1155 -3.80598,0.4606 -7.77263,2.194 -11.40979,4.9972 a 2.1090195,2.1090195 0 1 0 2.57081,3.3219 c 3.11542,-2.4012 6.47892,-3.7821 9.35892,-4.1307 2.88001,-0.3484 5.15856,0.2769 6.67257,1.791 1.723715,1.7237 2.312295,4.4979 1.588695,7.9145 -0.723595,3.4168 -2.812345,7.3186 -6.152615,10.6588 -0.9294,0.9295 -1.89477,1.7799 -2.88856,2.513 a 2.1090195,2.1090195 0 0 0 -0.17331,0.1156 c -2.527,1.8311 -5.18526,3.0132 -7.5969,3.5241 -3.41665,0.7235 -6.16205,0.1061 -7.88576,-1.6176 -0.48393,-0.484 -0.8848,-1.0183 -1.18431,-1.6465 a 2.112441,2.112441 0 1 0 -3.81289,1.8197 c 0.49479,1.038 1.1607,1.9986 1.9931,2.8309 1.43088,1.4308 3.20054,2.3241 5.14163,2.773 -0.0933,0.1093 -0.18543,0.2143 -0.28885,0.3177 -2.20545,2.2055 -5.70921,2.2055 -7.91465,0 -2.20544,-2.2054 -2.20551,-5.7381 0,-7.9435 2.20539,-2.2053 5.70922,-2.2054 7.91465,0 0.2259,0.2259 0.42918,0.4734 0.60659,0.7221 a 2.1120918,2.1120918 0 1 0 3.43738,-2.4552 c -0.31265,-0.4384 -0.67827,-0.8517 -1.06876,-1.2421 -1.90858,-1.9086 -4.41505,-2.8596 -6.93254,-2.8597 -2.51749,0 -5.05283,0.9511 -6.96142,2.8597 -3.81718,3.8172 -3.81719,10.0768 0,13.8939 3.8172,3.81718 10.07678,3.81728 13.89396,0 0.90189,-0.9018 1.60253,-1.9244 2.07976,-3.0329 0.6132,-0.064 1.23296,-0.1585 1.84867,-0.2889 1.99672,-0.4229 4.02586,-1.1911 6.0082,-2.2531 l 0,11.46748 -37.2046,37.1758 -29.694351,-29.6944 37.175711,-37.20458 18.97781,0 9.27227,9.2723 a 2.1140229,2.1140229 0 0 0 3.00409,-2.9752 l -9.87886,-9.8789 a 2.1090195,2.1090195 0 0 0 -1.50205,-0.6354 l -20.76871,0 a 2.1090195,2.1090195 0 0 0 -1.47317,0.6354 L 7.3876343,1009.2722 a 2.1090195,2.1090195 0 0 0 0,3.0041 l 32.6984497,32.6984 a 2.1090195,2.1090195 0 0 0 3.0041,0 l 39.28436,-39.3131 a 2.1090195,2.1090195 0 0 0 0.63548,-1.4733 l 0,-15.16478 c 0.87211,-0.6965 1.72173,-1.4329 2.54193,-2.2532 3.864465,-3.8643 6.381285,-8.3914 7.308045,-12.7673 0.92676,-4.3761 0.21852,-8.7938 -2.74413,-11.7565 -1.95167,-1.9516 -4.554365,-2.9169 -7.336925,-3.0908 -0.46376,-0.03 -0.94258,-0.043 -1.4154,-0.029 z m -44.97481,32.8717 a 2.1090195,2.1090195 0 0 0 -1.27097,3.6108 l 21.63529,21.63518 a 2.1090195,2.1090195 0 1 0 2.97521,-2.9752 l -21.63528,-21.63528 a 2.1090195,2.1090195 0 0 0 -1.70425,-0.6355 z m -3.58181,10.42778 a 2.1090195,2.1090195 0 0 0 -1.27096,3.6106 l 14.7894,14.7894 a 2.1140303,2.1140303 0 1 0 2.97521,-3.0041 l -14.76052,-14.7605 a 2.1090195,2.1090195 0 0 0 -1.73313,-0.6354 z m -10.3988,3.5528 a 2.1090195,2.1090195 0 0 0 -1.27097,3.6396 l 21.6064,21.6064 a 2.1140465,2.1140465 0 1 0 3.0041,-2.9752 l -21.63528,-21.6353 a 2.1090195,2.1090195 0 0 0 -1.50205,-0.6355 2.1090195,2.1090195 0 0 0 -0.2022,0 z" fill="#FFFFFF" fill-opacity="1" stroke="none" marker="none" visibility="visible" display="inline" overflow="visible"></path></g></svg>