<svg xmlns="http://www.w3.org/2000/svg" xmlns:xlink="http://www.w3.org/1999/xlink" version="1.1" x="0px" y="0px" viewBox="0 0 100 100" enable-background="new 0 0 100 100" xml:space="preserve"><circle cx="37.965" cy="84.071" r="8.447"></circle><g><path d="M35.946,84.015c-19.218-9.615-23.543-30.969-23.543-37.691c0-20.9,17.003-37.903,37.902-37.903   c20.9,0,37.903,17.003,37.903,37.903c0,2.765-0.332,5.613-0.986,8.469l-3.899-0.893c0.587-2.563,0.885-5.112,0.885-7.576   C84.208,27.629,69,12.42,50.305,12.42c-18.694,0-33.902,15.209-33.902,33.903c0,6.081,3.919,25.401,21.333,34.113L35.946,84.015z"></path></g><path d="M98.616,45.778c0-8.394-7.483-15.201-16.719-15.201v30.395C91.132,60.972,98.616,54.171,98.616,45.778z"></path><path d="M1.455,45.778c0-8.394,7.484-15.201,16.72-15.201v30.395C8.939,60.972,1.455,54.171,1.455,45.778z"></path><path d="M65.047,45.529c-9.987,0-18.534-5.878-22.57-14.326c-3.33,6.979-9.728,12.22-17.506,13.812c0,0.177-0.049,0.337-0.049,0.515  c0,13.852,11.227,25.078,25.078,25.078s25.078-11.227,25.078-25.078c0-0.687-0.147-1.332-0.201-2.008  C71.854,44.81,68.534,45.529,65.047,45.529z"></path></svg>