<?xml version="1.0" encoding="utf-8"?><!DOCTYPE svg PUBLIC "-//W3C//DTD SVG 1.1//EN" "http://www.w3.org/Graphics/SVG/1.1/DTD/svg11.dtd"><svg version="1.1" xmlns="http://www.w3.org/2000/svg" xmlns:xlink="http://www.w3.org/1999/xlink" x="0px" y="0px" viewBox="0 0 100 76.655" enable-background="new 0 0 100 76.655" xml:space="preserve"><path fill="#010101" d="M89.626,45.379c1.246-2.412,1.956-4.835,1.956-7.193c0-8.546-5.26-25.054-30.288-27.508
	c-1.073-1.94-2.272-3.721-3.431-5.172c30.496,1.12,38.569,18.769,38.569,32.868c0,4.097-1.228,8.019-3.318,11.685
	C91.94,48.477,90.774,46.914,89.626,45.379z"></path><path fill="#010101" d="M44.048,19.836c-3.025-3.145-4.687-6.861-6.867-11.582c-2.179-4.72-10.693-3.41-10.693-3.41
	s7.97-5.581,14.518-4.762c6.546,0.819,8.358,3.216,11.072,5.88c2.714,2.662,7.262,11.046,4.765,14.434S47.075,22.981,44.048,19.836z
	"></path><path fill="#010101" d="M34.557,14.711C17.501,22.541,8.938,38.539,7.353,42.289c-0.866,2.049-5.924,18.049,3.707,16.673
	c5.183-1.525,8.022-15.863,24.87-15.863c21.723,0-4.4,28.646,10.639,28.646c8.555,0,21.978-5.905,31.946-13.833
	c1.354,1.303,2.73,2.622,4.123,3.95c-11.212,9.062-26.658,14.794-36.069,14.794c-23.939,0,2.916-29.465-10.639-29.465
	c-13.709,0-15.458,15.518-25.773,16.99C-0.16,65.653-0.924,52.391,0.604,45.764c1.02-7.104,12.321-26.146,31.797-35.285
	C33.125,11.95,33.834,13.367,34.557,14.711z"></path><path fill="#010101" d="M59.735,25.029c4.552-4.529,7.535,0,7.535,0s34.54,43.097,32.656,44.97
	c-1.885,1.875-40.191-37.476-40.191-37.476S55.653,29.087,59.735,25.029z"></path></svg>