<?xml version="1.0" encoding="UTF-8" standalone="no"?>
<svg width="66px" height="66px" viewBox="0 0 66 66" version="1.1" xmlns="http://www.w3.org/2000/svg" xmlns:xlink="http://www.w3.org/1999/xlink" xmlns:sketch="http://www.bohemiancoding.com/sketch/ns">
    <!-- Generator: Sketch 3.3.3 (12081) - http://www.bohemiancoding.com/sketch -->
    <title>set-03-02</title>
    <desc>Created with Sketch.</desc>
    <defs>
        <linearGradient x1="49.08522%" y1="50%" x2="49.3895484%" y2="49.2577567%" id="linearGradient-1">
            <stop stop-color="#E74C3C" offset="0%"></stop>
            <stop stop-color="#A82A1D" offset="100%"></stop>
        </linearGradient>
    </defs>
    <g id="Page-1" stroke="none" stroke-width="1" fill="none" fill-rule="evenodd" sketch:type="MSPage">
        <g id="set-03-02" sketch:type="MSArtboardGroup">
            <path d="M46.2574347,17.0731151 C46.5145399,17.4006023 47.155376,18.2015519 47.6315987,18.8576198 C48.6776371,20.2413763 50.8963394,22.3719568 51.1154569,22.2265284 C51.3918312,22.0805533 50.3281754,19.5858551 49.6851371,18.8209893 C48.9529103,17.9473256 47.9988132,17.3098462 46.7347585,16.8363839 L45.7432243,16.4717195 L46.2574347,17.0731151 Z M18.0380734,17.5094002 C16.9380815,18.0736186 15.8375391,19.0757623 15.3794844,19.9494261 C15.0491565,20.6049473 14.4259379,22.5168385 14.5173286,22.6081412 C14.6643245,22.7535696 17.1214135,20.3315856 17.7633507,19.4212914 C18.1669013,18.857073 18.7350652,18.0916605 19.0653931,17.7095009 C19.5421664,17.1452825 19.579053,17.0359379 19.2850612,17.0359379 C19.1011786,17.0359379 18.5511827,17.2546272 18.0380734,17.5094002 Z M50.8231167,19.1845603 C51.2079487,19.6213921 52.087722,22.1160903 52.5099912,24.0099397 L52.6195499,24.5380743 L52.1433272,24.064612 C51.886222,23.8092922 51.1897807,23.2450738 50.6205156,22.8262838 C50.0529022,22.4074938 49.2089144,21.733384 48.7690278,21.3337294 C48.0538679,20.6601663 47.9806452,20.6235359 48.1089225,21.0417791 C48.4205319,22.2434768 49.061368,23.1176873 50.3832301,24.1919985 C51.1528941,24.8108892 52.1609447,25.7031416 52.6201005,26.1766039 C53.0963232,26.6681081 53.5373109,27.0508144 53.5923656,27.0508144 C53.6474202,27.0508144 53.7019243,26.0311755 53.7019243,24.7742588 C53.7019243,22.7710648 53.6468697,22.3889052 53.2609366,21.5152415 C52.785815,20.4409303 51.6114993,19.1659717 50.9695621,18.9844596 C50.5841795,18.8937035 50.5660115,18.9117454 50.8231167,19.1845603 Z M13.509278,20.27746 C12.2810088,21.5885024 12.0971262,22.3533682 12.2254036,26.0131336 L12.2622902,27.4335206 L13.5825006,26.1951925 C16.4062536,23.537024 16.955699,22.9175866 17.3592496,22.0619647 C17.5981867,21.5885024 17.7264641,21.1330819 17.6708589,21.0784096 C17.6158042,21.0051487 17.3041949,21.223838 16.973867,21.5518719 C16.6435391,21.861864 15.9289298,22.4987966 15.3602153,22.9542171 C14.7738832,23.3910489 14.0031182,24.1192843 13.6364542,24.5380743 C13.2510717,24.9749062 13.0132356,25.1575117 13.0864583,24.9568643 C13.1596809,24.7567636 13.3798995,23.900595 13.5813996,23.0449731 C13.7828996,22.1893512 14.1495635,21.024284 14.3879502,20.441477 C14.9390472,19.1123928 14.6461565,19.0571737 13.509278,20.27746 Z M54.361479,25.9404194 C54.2871552,27.742966 54.2871552,29.4367146 54.343311,29.7275714 L54.4347017,30.2376642 L54.2326511,29.7827904 C54.1038232,29.5280174 53.8659872,28.999336 53.6650377,28.580546 C53.4629871,28.1251255 52.6927726,27.2695037 51.6296673,26.3231257 C50.713558,25.484999 50.0534527,24.9207806 50.1811795,25.0481671 C50.2918394,25.1941422 50.4013981,25.5221762 50.4013981,25.7764025 C50.4013981,26.3045371 51.483222,28.1803446 52.7109406,29.8008323 C53.1519284,30.3650507 53.756979,31.3125221 54.0498697,31.9133709 C54.5822481,32.9690935 54.5822481,32.9690935 54.7099749,32.422917 C54.7842987,32.1134716 55.0023151,31.3852363 55.1861976,30.7838407 C55.8463029,28.8172772 55.9376936,28.2530588 55.8644709,26.5959406 C55.8094163,25.4117381 55.6635214,24.7020913 55.3700802,24.0099397 C54.5822481,22.2259817 54.5079244,22.3714101 54.361479,25.9404194 Z M10.7036931,23.8639645 C10.0986425,25.1575117 9.8052012,26.7052853 9.95164656,27.9611086 C10.0248692,28.5072851 10.3915332,29.8915884 10.7769157,31.0386137 L11.4920756,33.1325638 L11.9143448,32.2222696 C12.1340128,31.7307654 12.7208954,30.7657988 13.2163872,30.0916891 C14.3527152,28.5258737 15.3068122,26.7779995 15.4714256,25.9770499 L15.599703,25.3581592 L14.4809925,26.3231257 C13.1789501,27.4701511 12.3355129,28.580546 11.8774582,29.7642018 L11.5658489,30.6017819 L11.5476808,28.5985879 C11.5289622,27.488193 11.4557396,26.1038897 11.3643488,25.484999 C11.2724076,24.8841501 11.2542396,24.0465701 11.3461808,23.6283268 C11.5289622,22.5720575 11.271857,22.6808554 10.7036931,23.8639645 Z M56.6346854,29.0540083 C56.6346854,29.6543105 56.2316854,30.9658995 55.4614709,32.8777907 C55.1118739,33.7334126 54.728143,34.7896819 54.6004162,35.2265138 L54.361479,36.0274634 L54.1412604,34.8443543 C54.0135336,34.1888331 53.7745964,33.3692949 53.609983,33.0418077 C53.0957726,32.0762945 51.8317179,29.9643025 51.7023395,29.8729998 C51.3356755,29.6543105 52.271054,34.2610006 52.9118901,35.8814883 C53.0594366,36.2827831 53.2433191,37.2291611 53.3159912,37.975985 L53.4266511,39.3416997 L54.8189831,37.4658922 C56.6715721,34.9711941 57.0751226,33.8241687 57.0751226,31.2381677 C57.0751226,30.1277728 56.9837319,29.1628063 56.854904,28.9621588 C56.6528535,28.6171765 56.6528535,28.6171765 56.6346854,29.0540083 Z M9.03498666,29.5088821 C8.75971342,30.1097309 8.88799075,33.4053787 9.21831864,34.5343622 C9.52992795,35.554001 9.89659191,36.1548499 11.6209035,38.3226076 L12.5375634,39.4690862 L12.6652902,38.3953218 C12.7208954,37.8125148 13.0688408,36.265288 13.4173367,34.9536989 C13.7845512,33.6601517 14.1143286,31.9855384 14.1875512,31.2387144 L14.2976605,29.8729998 L13.7294966,30.8751435 C12.2077861,33.5879842 11.8774582,34.4441528 11.8592901,35.6819343 C11.8411221,36.3374555 11.7673489,36.8295064 11.6759582,36.7742873 C11.6027355,36.719615 11.5289622,36.5189676 11.5289622,36.3188669 C11.5289622,35.9192122 10.8325209,33.6246147 10.6123023,33.3326645 C10.3557477,32.9685468 9.4759744,30.5831933 9.34714652,29.8729998 C9.21831864,29.2546558 9.18198257,29.1994367 9.03498666,29.5088821 Z M13.8390553,37.6118673 C13.4905594,39.8698344 13.545614,41.1622881 14.0411059,42.345944 C14.3339966,43.0561375 14.2057193,42.9653814 13.3991687,41.8358512 C13.0875594,41.3984726 12.1521809,40.3061195 11.3087437,39.4138672 C10.4653064,38.503573 9.56681457,37.3745895 9.29154132,36.919169 C8.79660003,36.0826824 8.778432,36.0640938 8.778432,36.6102704 C8.778432,38.0667411 9.52992795,39.9245067 10.6849745,41.2535909 C11.6379705,42.3820277 15.7824844,45.2769273 16.0577577,45.0232477 C16.1128123,44.9680287 16.0214216,44.6585833 15.8557071,44.3491379 C15.5991524,43.8210033 15.4527071,42.9473395 15.0122699,39.2509436 C14.7738832,37.3029687 14.4435554,35.6278087 14.29711,35.518464 C14.2244379,35.4818336 14.0223873,36.4282115 13.8390553,37.6118673 Z M51.5377261,35.7366066 C51.3175075,36.1193129 51.0235156,38.140002 50.7680621,40.816759 C50.5841795,42.8194063 50.4927888,43.3114572 50.1993476,44.0216507 C50.0897888,44.2944656 50.0347342,44.5858691 50.0529022,44.694667 C50.180629,45.0232477 53.3897644,42.8188596 54.6549203,41.5630363 C56.2311349,39.9786323 57.0013494,38.4674892 57.1290762,36.7556987 L57.221568,35.5173706 L56.7453453,36.500379 C56.470072,37.0285136 55.7004081,38.0481525 55.0215842,38.7769346 C54.3234913,39.4871281 53.4806046,40.433506 53.1332098,40.8883798 C52.8017808,41.3438002 52.4538354,41.7811788 52.3624447,41.8899768 C52.289222,41.9812795 52.1064406,42.2360526 51.9407261,42.4361533 C51.7017889,42.7641872 51.7017889,42.7275568 51.9407261,42.1627917 C52.5826633,40.5608925 52.6189994,39.8867828 52.2341674,37.6474044 C52.0139488,36.4817904 51.8124488,35.498782 51.7750116,35.4621515 C51.7392261,35.4266145 51.6291168,35.5545478 51.5377261,35.7366066 Z M49.0811876,41.1994653 C48.6220319,41.8724816 48.0725865,42.9653814 47.8523679,43.6214493 C47.6145318,44.2764237 47.3579771,44.9685754 47.2836534,45.1686761 C47.1922626,45.3693235 46.9913132,45.9335419 46.8085317,46.4070042 C46.6428172,46.8979617 46.2579852,47.6267438 45.964544,48.0274919 C45.6711027,48.4282401 45.4701532,48.7923578 45.5053882,48.8470301 C45.7256068,49.0651727 49.6493516,48.1007529 50.6766714,47.5726182 C51.832819,46.9903579 53.372147,45.7339879 54.1241935,44.7138023 C54.7479626,43.876769 55.3530132,42.7658274 55.3530132,42.4202983 C55.3530132,42.3650793 54.8756894,42.7477855 54.2882563,43.2759202 C53.6474202,43.8576337 52.5474283,44.5864158 51.5751632,45.0598782 C50.6761208,45.5158453 49.5029062,46.1341893 48.9903475,46.4802652 C48.457969,46.8088458 48.0180824,47.0444835 48.0180824,47.0083998 C48.0180824,46.9537275 48.2933556,46.3714672 48.6407504,45.6793156 C49.0266835,44.9155432 49.3559103,43.9133995 49.4847382,43.074726 C49.594297,42.3289955 49.7781795,41.3454404 49.8695702,40.9086085 C49.979129,40.4712299 50.0171167,40.0896171 49.979129,40.0338513 C49.9240743,39.9972209 49.5205237,40.5259023 49.0811876,41.1994653 Z M16.204203,41.3448937 C16.4794763,43.7488358 17.0113042,45.5152986 17.7809682,46.5890631 C18.1845187,47.1532815 18.6062373,47.6267438 18.7163466,47.6267438 C18.8264559,47.6267438 18.88096,47.6633743 18.8264559,47.7180466 C18.7714013,47.7732656 18.1663507,47.444685 17.4693589,46.9898112 C16.7729175,46.5163489 15.3800349,45.7509363 14.3527152,45.2599789 C13.0143367,44.6224996 12.2441221,44.1124068 11.5289622,43.40276 C10.7587477,42.6384409 10.5935838,42.5285495 10.7036931,42.8926672 C10.9789663,43.8210033 12.5188448,45.8608277 13.509278,46.6251468 C14.4441059,47.3719708 15.5264803,47.9728196 16.3880856,48.2647698 C16.9744176,48.4643238 20.4219397,49.0651727 20.4946118,48.9749633 C20.5314984,48.9377862 20.366885,48.5922571 20.1279478,48.2275927 C19.6330065,47.4627268 19.1931199,46.4797184 18.294628,44.1676258 C17.7264641,42.6745246 17.1759176,41.654339 16.4425897,40.7074144 L16.0759257,40.2525406 L16.204203,41.3448937 Z M44.2584004,46.9345922 C43.1765766,47.9722729 42.1679754,48.8825671 42.0022609,48.9744166 C41.8194795,49.064626 41.600362,49.2466848 41.4709835,49.3560294 C41.3614248,49.4659208 40.7927103,49.7206938 40.2234452,49.8841641 C39.6558318,50.0667697 39.2341132,50.2488285 39.2709998,50.2849122 C39.3078864,50.320996 39.7119875,50.4308873 40.1507731,50.5216434 C40.5917608,50.6123995 41.6917527,50.8671725 42.589694,51.0678199 C45.5422748,51.741383 47.4306493,51.4871567 49.4841877,50.1389371 C50.5660115,49.4292904 51.6291168,48.4276934 51.4650539,48.2642231 C51.4088982,48.2090041 51.0069992,48.373021 50.5660115,48.6097522 C49.4660196,49.2106011 48.659469,49.3932066 46.184212,49.6118959 C45.0291655,49.7206938 43.7452911,49.8480804 43.342291,49.9207946 L42.6089631,50.0301392 L43.4700178,49.483416 C44.4053963,48.8820204 45.3407748,47.7530369 45.7613923,46.7153562 C45.8902202,46.3698271 46.1098882,45.8963647 46.2205481,45.6782222 C46.6604347,44.7865165 46.1280563,45.1314989 44.2584004,46.9345922 Z M19.5966705,45.3693235 C19.5966705,45.441491 19.9446159,46.1702731 20.3663345,46.9717694 C21.1916037,48.5742152 22.1264316,49.5391817 23.2264235,49.921888 C24.0516927,50.2127448 23.9415834,50.2127448 22.1633182,49.9946022 C21.4112717,49.8852575 19.8895612,49.7217873 18.8077374,49.6304845 C17.3410815,49.503098 16.552699,49.339081 15.8006524,48.9930052 C15.2324885,48.7382322 14.7375472,48.5561733 14.7006606,48.5928038 C14.4991606,48.8103996 16.405703,50.3226361 17.5794681,50.8868545 C18.8633426,51.4882501 19.0830106,51.5423757 20.6966624,51.5248806 C21.9987048,51.5248806 22.9517008,51.3969473 24.4557938,51.0136943 C25.5739537,50.7222908 26.5456683,50.4319808 26.6194415,50.3587199 C26.7108322,50.2860057 26.4173909,50.1400306 25.9775043,50.0312327 C24.9138485,49.7573243 24.0340752,49.1203917 21.8153728,47.081114 C20.0002211,45.4048605 19.5966705,45.07792 19.5966705,45.3693235 Z M28.4896479,50.6129462 C27.9947066,50.7403327 26.6194415,51.2323836 25.4638444,51.7047525 C22.6769781,52.8534181 20.7148304,53.0163416 18.7714013,52.2700644 C18.0193548,51.9786609 19.5052798,53.1076444 20.5133304,53.5811067 C21.3749356,54.0004434 21.7603182,54.0540223 23.2638606,54.0540223 C25.281063,54.0540223 25.9224496,53.835333 28.1406014,52.3608204 C29.7542532,51.2679206 30.5608038,50.903803 31.3315689,50.903803 C32.1381195,50.903803 32.0098421,51.1591227 30.8916822,51.741383 C29.4613624,52.4876602 26.9310508,54.5274846 26.9310508,54.9271393 C26.9310508,55.1091982 27.0780467,55.3284342 27.2426601,55.4377789 C27.4997653,55.5651654 27.8295427,55.3645179 28.9482531,54.3093421 C30.5431863,52.7790637 32.4689979,51.4505262 33.0740485,51.4505262 C33.6609311,51.4505262 35.5861921,52.7615686 37.1266212,54.218586 C37.8417811,54.9112844 38.5018863,55.4563674 38.593277,55.4563674 C38.6846678,55.4563674 38.9048864,55.2928972 39.0876678,55.0927965 C39.3811091,54.7467207 39.362941,54.7111837 38.8867183,54.2552165 C38.1715584,53.5822002 35.9715747,52.0524685 35.0543642,51.597048 C34.394259,51.2690141 34.3023177,51.1777113 34.5588724,51.0328296 C35.1094189,50.7228376 36.11802,51.0689134 37.8048945,52.1251827 C38.7391719,52.707443 39.6932689,53.2913434 39.9498236,53.3995946 C42.0220806,54.3645611 44.7164551,54.1283767 46.7154894,52.8173343 C47.6508679,52.1984436 47.6877545,51.9070401 46.8079812,52.2711578 C45.4508841,52.8353762 42.9194713,52.598645 40.9584248,51.7249813 C38.2629492,50.5232836 36.8871335,50.2313334 34.9255363,50.4500227 C33.3482207,50.6140396 32.9639392,50.6140396 30.9654555,50.4866531 C29.9381357,50.4128455 29.0946985,50.4489292 28.4896479,50.6129462 Z" id="Shape" fill="#EAEAEA" sketch:type="MSShapeGroup"></path>
            <path d="M41.3028046,35.6237756 C41.780642,35.206218 42.2584794,34.8483115 42.7363169,34.3711028 L42.7960466,34.3711028 C47.3952319,34.3711028 52.3527954,33.3570343 55.7573871,30.0165733 C58.8633305,26.9743678 60.0579241,22.6794894 59.878735,18.4442622 L59.878735,18.32496 C59.878735,16.952985 59.5800866,15.5810099 58.7438711,14.5072903 C57.6090072,13.0160131 55.7573871,12.5388044 53.9654967,12.5388044 L51.9944173,12.5388044 C51.2776611,12.5388044 50.560905,12.8370599 49.9038785,13.1353153 C50.4414456,11.4650848 49.5455004,9.55625 47.574421,9.55625 L18.3666074,9.55625 C16.395528,9.55625 15.4995828,11.4650848 16.0371499,13.1353153 C15.3801234,12.8370599 14.6633673,12.5388044 14.0063408,12.5388044 L12.0352613,12.5388044 C10.3031006,12.5388044 8.51121022,13.0160131 7.3763463,14.3879882 C6.4804011,15.4617077 6.12202302,16.8933339 6.12202302,18.2653089 L6.12202302,18.4442622 C5.94283398,22.6198383 7.0776979,26.9147167 10.1239116,29.8972711 C13.5285033,33.2973832 18.5457965,34.3114517 23.2047115,34.3114517 L23.2644412,34.3114517 C25.0563316,35.9816821 27.2066001,37.3536572 28.520653,39.5010964 C27.2066001,39.7993518 26.3106549,41.0520246 26.4898439,42.3643486 C26.669033,43.6766725 27.8038969,44.690741 29.1179498,44.690741 L29.4165982,44.690741 C28.7595718,46.8978313 27.1468704,50.8944542 23.861738,50.8944542 L17.2914732,50.8944542 C15.9774202,50.8944542 14.902286,51.8488716 14.7230969,53.2208467 C14.4841782,54.771775 15.8579609,56.14375 17.3512029,56.14375 L48.7690146,56.14375 C50.2025269,56.14375 51.5165798,54.8314261 51.3971205,53.3997999 C51.2776611,51.9085227 50.1427972,50.8944542 48.7690146,50.8944542 L42.1987498,50.8944542 C39.0330767,50.8944542 37.4203754,47.3153889 36.6438895,44.690741 L36.9425379,44.690741 C38.2565909,44.690741 39.3914548,43.6766725 39.5706438,42.3643486 C39.7498329,41.0520246 38.8538877,39.7397007 37.5398347,39.5010964 C38.1371315,38.4273768 39.3914548,37.1747039 41.3028046,35.6237756 C41.780642,35.206218 39.3914548,37.1747039 41.3028046,35.6237756 L41.3028046,35.6237756 Z M51.9944173,13.6721751 L53.9654967,13.6721751 C55.3392794,13.6721751 56.892251,14.0300816 57.7881962,15.1634523 C58.5049524,16.0582186 58.6841414,17.1915893 58.6841414,18.32496 L58.6841414,18.5039133 C58.8633305,22.2619318 57.9076556,26.0796015 55.2795497,28.8832026 C52.3527954,31.9850592 48.0522584,33.0587788 43.9309105,33.178081 C44.4684776,32.5815701 45.0060447,31.9850592 45.4241525,31.3885483 C48.8287442,31.0306418 52.3527954,29.8972711 54.5627935,27.1533211 C56.4741433,24.7672775 57.1311698,21.6057698 57.0117104,18.5635643 L57.0117104,18.2653089 C57.0117104,17.4301937 56.892251,16.5354273 56.2352246,15.9389165 C55.6379278,15.4020567 54.7419826,15.2827545 53.9654967,15.2827545 L51.9944173,15.2827545 C51.0984721,15.2827545 51.0387424,15.8196143 51.0387424,15.9389165 L51.0387424,16.7740317 L48.2911771,16.7740317 C48.5898255,16.1178697 48.9482036,15.5213588 49.1871223,14.8651969 C49.7246894,14.5669414 51.0387424,13.6721751 51.9944173,13.6721751 L51.9944173,13.6721751 Z M47.6341506,24.409371 C47.6341506,22.2619318 47.2160429,20.1144926 47.8133397,18.0267045 L51.5763095,18.0267045 C51.8749579,18.0267045 52.1736063,17.7881002 52.1736063,17.4301937 L52.1736063,16.4757762 L53.9654967,16.4757762 C54.4433342,16.4757762 55.2795497,16.4757762 55.5781981,16.952985 C55.8171168,17.3108915 55.8171168,17.8477513 55.8171168,18.2653089 L55.8171168,18.5635643 C55.9365762,21.1882122 55.399009,23.9321623 53.8460374,26.0796015 C52.054147,28.465645 49.1273926,29.5990157 46.260368,30.0165733 C47.2160429,28.3463428 47.6341506,26.3778569 47.6341506,24.409371 L47.6341506,24.409371 Z M10.8406677,29.0025048 C9.10850702,27.2129722 7.0776979,23.9321623 7.31661662,18.5039133 L7.31661662,18.32496 C7.31661662,17.1915893 7.49580566,16.0582186 8.21256182,15.1634523 C9.10850702,14.0300816 10.601749,13.6721751 12.0352613,13.6721751 L14.0063408,13.6721751 C14.9620157,13.6721751 16.2760686,14.5072903 16.8136357,14.984499 C17.1122841,15.640661 17.4109325,16.2371719 17.7095809,16.8933339 L14.9620157,16.8933339 L14.9620157,16.0582186 C14.9620157,15.8792654 14.902286,15.3424056 14.0063408,15.3424056 L12.0352613,15.3424056 C11.2587755,15.3424056 10.3628303,15.4617077 9.7655335,15.9985675 C9.10850702,16.5354273 8.98904766,17.4898448 8.98904766,18.2653089 L8.98904766,18.5635643 C8.8695883,21.6057698 9.52661478,24.7076264 11.4379645,27.1533211 C13.6479627,29.8972711 17.1720138,31.0306418 20.5766056,31.3885483 C21.054443,32.0447103 21.5322805,32.6412212 22.0698476,33.178081 C17.1720138,32.9991277 13.409044,31.6271527 10.8406677,29.0025048 C9.10850702,27.2129722 13.409044,31.6271527 10.8406677,29.0025048 L10.8406677,29.0025048 Z M18.3666074,24.8865797 C18.4263371,26.7357634 18.8444449,28.465645 19.7403901,30.0762244 C17.0525545,29.6586668 14.3049892,28.7042494 12.5130988,26.5568102 C10.6614787,24.3497199 10.0641819,21.3671655 10.1836413,18.5635643 L10.1836413,18.2653089 C10.1836413,17.8477513 10.1836413,17.1915893 10.4822897,16.8933339 C10.8406677,16.5354273 11.5574239,16.5354273 12.0352613,16.5354273 L13.8271517,16.5354273 L13.8271517,17.4898448 C13.8271517,17.7881002 14.0660705,18.0863556 14.4244485,18.0863556 L18.1874184,18.0863556 C18.8444449,20.2934459 18.3068777,22.6198383 18.3666074,24.8865797 L18.3666074,24.8865797 Z M48.7092849,55.0700304 L17.2914732,55.0700304 C16.6941764,55.0700304 16.1566093,54.7121239 15.9774202,54.1752641 L50.0830675,54.1752641 C49.8441488,54.7121239 49.3065817,55.0700304 48.7092849,55.0700304 L48.7092849,55.0700304 Z M48.7690146,52.1471271 C49.426041,52.1471271 49.9636082,52.4453825 49.9636082,53.0418934 L16.0968796,53.0418934 C16.0371499,52.5646847 16.6941764,52.1471271 17.2914732,52.1471271 L48.7690146,52.1471271 L48.7690146,52.1471271 Z M38.9136174,50.9541053 L27.0871407,50.9541053 C29.0582202,49.3435259 30.0736247,46.5399248 30.6111918,44.7503921 L35.3895662,44.7503921 C36.1660521,47.6732955 37.3606457,49.7610835 38.9136174,50.9541053 L38.9136174,50.9541053 Z M36.9425379,43.6170214 L29.0582202,43.6170214 C28.4609234,43.6170214 27.9233562,43.2591149 27.6844375,42.7222551 L38.1968612,42.7222551 C38.0176722,43.1994638 37.5398347,43.6170214 36.9425379,43.6170214 L36.9425379,43.6170214 Z M38.2565909,41.5292334 L27.7441672,41.5292334 C27.9830859,40.9923736 28.4609234,40.634467 29.1179498,40.634467 L36.9425379,40.634467 C37.5398347,40.634467 38.0176722,40.9923736 38.2565909,41.5292334 L38.2565909,41.5292334 Z M36.1660521,39.5010964 L29.834706,39.5010964 C28.6998421,37.1150528 26.4301142,35.6237756 24.5187645,33.9535451 C22.3087663,31.9850592 20.1584978,29.5393646 19.6806604,26.5568102 C19.2028229,23.8128601 20.0987681,21.0689101 19.4417417,18.3846111 C19.0833636,16.7740317 18.1276887,15.4020567 17.5303919,13.8511284 C17.2914732,13.3142686 16.9330951,12.5984555 16.9928248,12.0019446 C17.0525545,11.3457827 17.6498513,10.8089229 18.3666074,10.8089229 L47.574421,10.8089229 C48.1717178,10.8089229 48.7690146,11.2264805 48.8884739,11.8229914 C49.067663,12.4195022 48.7092849,13.1353153 48.4703662,13.6721751 C47.8730694,15.1634523 46.9173945,16.5950784 46.5590164,18.1460067 C45.8422602,20.8899568 46.7382054,23.6339069 46.3200977,26.3778569 C45.9019899,29.4200624 43.8114511,31.865757 41.601453,33.834243 C39.6901032,35.5044734 37.3606457,37.0554017 36.1660521,39.5010964 L36.1660521,39.5010964 Z" id="Shape" fill="url(#linearGradient-1)" sketch:type="MSShapeGroup"></path>
            <path d="M43.1369565,24.8171875 C43.3434783,24.8171875 43.55,24.6521875 43.55,24.4046875 L43.55,18.0521875 C43.55,17.5159375 42.723913,17.5159375 42.723913,18.0521875 L42.723913,24.4046875 C42.723913,24.6521875 42.9304348,24.8171875 43.1369565,24.8171875 Z M41.7326087,26.4671875 C41.9391304,26.4671875 42.1456522,26.3021875 42.1456522,26.0546875 L42.1456522,16.4021875 C42.1456522,15.8659375 41.3195652,15.8659375 41.3195652,16.4021875 L41.3195652,26.0959375 C41.3195652,26.3021875 41.526087,26.4671875 41.7326087,26.4671875 Z" id="Shape" fill="#818181" sketch:type="MSShapeGroup"></path>
        </g>
    </g>
</svg>