<?xml version="1.0" encoding="UTF-8" standalone="no"?>
<svg width="60px" height="60px" viewBox="0 0 60 60" version="1.1" xmlns="http://www.w3.org/2000/svg" xmlns:xlink="http://www.w3.org/1999/xlink" xmlns:sketch="http://www.bohemiancoding.com/sketch/ns">
    <!-- Generator: Sketch 3.3.3 (12081) - http://www.bohemiancoding.com/sketch -->
    <title>stage-headphones</title>
    <desc>Created with Sketch.</desc>
    <defs></defs>
    <g id="Page-1" stroke="none" stroke-width="1" fill="none" fill-rule="evenodd" sketch:type="MSPage">
        <g id="stage-headphones" sketch:type="MSArtboardGroup" fill="#9B9B9B">
            <g id="Group" sketch:type="MSLayerGroup" transform="translate(9.000000, 5.000000)">
                <path d="M21,36.2683015 L15.75,36.2683015 C15.1704,36.2683015 14.7,35.7904133 14.7,35.2015867 L14.7,20.2675802 C14.7,19.6787537 15.1704,19.2008655 15.75,19.2008655 L21,19.2008655 C25.6326,19.2008655 29.4,23.028238 29.4,27.7345835 C29.4,32.440929 25.6326,36.2683015 21,36.2683015 L21,36.2683015 Z M16.8,34.134872 L21,34.134872 C24.4734,34.134872 27.3,31.2632759 27.3,27.7345835 C27.3,24.2058911 24.4734,21.334295 21,21.334295 L16.8,21.334295 L16.8,34.134872 L16.8,34.134872 Z" id="Shape" sketch:type="MSShapeGroup"></path>
                <path d="M15.75,34.134872 L9.45,34.134872 C8.8704,34.134872 8.4,33.6569838 8.4,33.0681572 L8.4,22.4010097 C8.4,21.8121832 8.8704,21.334295 9.45,21.334295 L15.75,21.334295 C16.3296,21.334295 16.8,21.8121832 16.8,22.4010097 L16.8,33.0681572 C16.8,33.6569838 16.3296,34.134872 15.75,34.134872 L15.75,34.134872 Z M10.5,32.0014425 L14.7,32.0014425 L14.7,23.4677245 L10.5,23.4677245 L10.5,32.0014425 L10.5,32.0014425 Z" id="Shape" sketch:type="MSShapeGroup"></path>
                <path d="M9.45,44.8020195 L1.05,44.8020195 C0.4704,44.8020195 0,44.3241313 0,43.7353047 L0,28.8012982 C0,24.0544176 3.444,21.334295 9.45,21.334295 C10.0296,21.334295 10.5,21.8121832 10.5,22.4010097 L10.5,43.7353047 C10.5,44.3241313 10.0296,44.8020195 9.45,44.8020195 L9.45,44.8020195 Z M2.1,42.66859 L8.4,42.66859 L8.4,23.4997259 C5.3172,23.7002683 2.1,24.8523202 2.1,28.8012982 L2.1,42.66859 L2.1,42.66859 Z" id="Shape" sketch:type="MSShapeGroup"></path>
                <path d="M5.25,50.1355932 C4.6704,50.1355932 4.2,49.657705 4.2,49.0688785 L4.2,44.8020195 C4.2,44.2131929 4.6704,43.7353047 5.25,43.7353047 C5.8296,43.7353047 6.3,44.2131929 6.3,44.8020195 L6.3,49.0688785 C6.3,49.657705 5.8296,50.1355932 5.25,50.1355932 L5.25,50.1355932 Z" id="Shape" sketch:type="MSShapeGroup"></path>
                <path d="M26.25,17.067436 L21,17.067436 C16.3674,17.067436 12.6,13.2400635 12.6,8.53371799 C12.6,3.82737252 16.3674,0 21,0 L26.25,0 C26.8275,0 27.3,0.477888208 27.3,1.06671475 L27.3,16.0007212 C27.3,16.5895478 26.8275,17.067436 26.25,17.067436 L26.25,17.067436 Z M21,2.1334295 C17.5266,2.1334295 14.7,5.0050256 14.7,8.53371799 C14.7,12.0624104 17.5266,14.9340065 21,14.9340065 L25.2,14.9340065 L25.2,2.1334295 L21,2.1334295 L21,2.1334295 Z" id="Shape" sketch:type="MSShapeGroup"></path>
                <path d="M32.55,14.9340065 L26.25,14.9340065 C25.6725,14.9340065 25.2,14.4561183 25.2,13.8672917 L25.2,3.20014425 C25.2,2.61131771 25.6725,2.1334295 26.25,2.1334295 L32.55,2.1334295 C33.1275,2.1334295 33.6,2.61131771 33.6,3.20014425 L33.6,13.8672917 C33.6,14.4561183 33.1275,14.9340065 32.55,14.9340065 L32.55,14.9340065 Z M27.3,12.800577 L31.5,12.800577 L31.5,4.266859 L27.3,4.266859 L27.3,12.800577 L27.3,12.800577 Z" id="Shape" sketch:type="MSShapeGroup"></path>
                <path d="M40.95,25.601154 L32.55,25.601154 C31.9725,25.601154 31.5,25.1232658 31.5,24.5344392 L31.5,3.20014425 C31.5,2.61131771 31.9725,2.1334295 32.55,2.1334295 C38.5539,2.1334295 42,4.85355211 42,9.60043274 L42,24.5344392 C42,25.1232658 41.5275,25.601154 40.95,25.601154 L40.95,25.601154 Z M33.6,23.4677245 L39.9,23.4677245 L39.9,9.60043274 C39.9,5.64505445 36.6828,4.49300252 33.6,4.29886044 L33.6,23.4677245 L33.6,23.4677245 Z" id="Shape" sketch:type="MSShapeGroup"></path>
                <path d="M36.75,50.1355932 C36.1725,50.1355932 35.7,49.657705 35.7,49.0688785 L35.7,25.601154 C35.7,25.0123274 36.1725,24.5344392 36.75,24.5344392 C37.3275,24.5344392 37.8,25.0123274 37.8,25.601154 L37.8,49.0688785 C37.8,49.657705 37.3275,50.1355932 36.75,50.1355932 L36.75,50.1355932 Z" id="Shape" sketch:type="MSShapeGroup"></path>
            </g>
        </g>
    </g>
</svg>